<svg width="33" height="52" viewBox="0 0 33 52" fill="none" xmlns="http://www.w3.org/2000/svg">
<path d="M32.1979 6.33032V1.15399C32.1979 0.705324 31.6822 0.457556 31.334 0.73211L1.14651 24.3102C0.890026 24.5097 0.682488 24.7651 0.539727 25.057C0.396966 25.3489 0.322754 25.6695 0.322754 25.9944C0.322754 26.3193 0.396966 26.6399 0.539727 26.9318C0.682488 27.2237 0.890026 27.4791 1.14651 27.6785L31.334 51.2567C31.6889 51.5312 32.1979 51.2835 32.1979 50.8348V45.6585C32.1979 45.3303 32.0438 45.0156 31.7894 44.8147L7.68223 25.9977L31.7894 7.17407C32.0438 6.97318 32.1979 6.65845 32.1979 6.33032V6.33032Z" fill="white" fill-opacity="0.85"/>
</svg>
