<svg width="18" height="12" viewBox="0 0 18 12" fill="none" xmlns="http://www.w3.org/2000/svg">
<path d="M0.551033 0.568776L8.42157 11.4192C8.70728 11.8121 9.2921 11.8121 9.57559 11.4192L17.4484 0.568778C17.4677 0.542092 17.4793 0.510562 17.4819 0.477684C17.4844 0.444806 17.4778 0.411863 17.4628 0.382508C17.4478 0.353152 17.4249 0.32853 17.3968 0.311372C17.3686 0.294213 17.3362 0.285187 17.3033 0.285295L15.6292 0.285295C15.5153 0.285295 15.4082 0.341098 15.3412 0.432616L8.99969 9.17369L2.65818 0.432615C2.59121 0.341097 2.48407 0.285294 2.37023 0.285294L0.696122 0.285294C0.551033 0.285294 0.466212 0.450473 0.551033 0.568776V0.568776Z" fill="white" fill-opacity="0.85"/>
</svg>
