<svg width="139" height="100" viewBox="0 0 139 100" fill="none" xmlns="http://www.w3.org/2000/svg">
<path d="M14.1468 48.2366C14.7346 50.2938 16.204 54.7019 18.555 57.9346C16.7917 59.6978 15.6162 62.0489 15.6162 64.6937C15.6162 67.6325 16.7917 70.5713 19.1427 72.3346C20.6121 73.8039 22.6693 74.3917 24.4325 74.6856C24.4325 74.9795 24.4325 75.5672 24.4325 75.8611C24.4325 78.506 25.608 81.1509 27.3713 83.208C29.4284 85.2652 32.0733 86.1468 34.7182 86.1468C36.4815 86.1468 37.9509 85.8529 39.4203 84.9713C39.7142 86.7346 40.5958 88.4978 42.0652 89.9672C44.1223 92.0244 46.4733 92.906 49.1182 92.906C49.9999 92.906 51.1754 92.6121 52.057 92.3182C52.3509 94.0815 53.2325 95.8448 54.7019 97.3141C56.7591 99.3713 59.404 100.253 62.0489 100.253C64.106 100.253 66.457 99.6652 68.2203 98.1958L71.7468 95.257L73.2162 96.7264C74.6856 98.1958 76.7427 98.7835 78.7999 98.7835C80.857 98.7835 83.208 97.9019 84.6774 96.4325C86.1468 94.9631 87.0285 92.6121 87.0285 90.555C87.0285 89.9672 87.0285 89.6733 87.0285 89.0856C87.9101 89.3795 88.4978 89.3795 89.3795 89.3795C91.7305 89.3795 94.0815 88.4978 95.8448 86.7346C97.608 84.9713 98.4897 82.6203 98.4897 80.2693C98.4897 79.9754 98.4897 79.6815 98.4897 79.0937C99.0774 79.0937 99.3713 79.0937 99.9591 79.0937C102.31 79.0937 104.661 78.2121 106.424 76.4489C108.188 74.6856 109.069 72.6284 109.069 70.2774C109.657 70.2774 109.951 70.2774 110.539 70.2774C113.184 70.2774 115.828 69.3958 117.886 67.3386C119.943 65.2815 120.824 62.6366 120.824 59.9917C120.824 58.2284 120.237 56.4652 119.355 54.9958L121.412 52.6448L136.694 43.5346C138.163 42.6529 138.457 40.8897 137.575 39.4203L117.298 4.44885C117.004 3.86109 116.122 3.27334 115.535 2.97946C114.653 2.68558 114.065 2.97946 113.184 3.27334L98.1958 12.0897C93.7876 12.0897 83.7958 12.0897 78.506 15.3223L77.0366 13.8529C72.9223 9.73864 66.7509 7.6815 60.8733 8.56314L43.8284 11.5019L30.0162 0.628439C28.8407 -0.253194 26.7835 -0.253193 25.9019 0.922317L0.628439 32.955C-0.253193 34.1305 -0.253194 35.8937 0.922317 37.0693L14.1468 48.2366ZM80.5631 92.3182C79.6815 93.1999 78.2121 93.1999 77.3305 92.3182L73.804 89.3795C73.2162 88.7917 72.9223 88.2039 72.9223 87.6162C72.9223 87.0284 73.2162 86.1468 73.804 85.5591C74.3917 84.9713 74.9795 84.9713 75.5672 84.9713C76.155 84.9713 76.7427 85.2652 77.3305 85.5591L80.5631 88.7917C81.1509 89.3795 81.4448 89.9672 81.4448 90.555C81.4448 91.4366 81.1509 92.0244 80.5631 92.3182ZM91.7305 82.9142C90.555 84.0897 88.7917 84.0897 87.3223 82.9142L83.5019 79.3876C82.9142 78.7999 82.3264 77.9182 82.3264 77.0366C82.3264 76.155 82.6203 75.2733 83.5019 74.6856C84.0897 74.0978 84.9713 73.8039 85.8529 73.8039C86.7346 73.8039 87.3223 74.0978 87.9101 74.6856L91.7305 78.2121C92.3182 78.7999 92.6121 79.6815 92.6121 80.5631C92.6121 81.4448 92.3182 82.3264 91.7305 82.9142ZM102.31 72.6284C101.135 73.804 99.0774 73.804 97.9019 72.6284L94.0815 69.1019C93.4938 68.5142 92.906 67.6325 92.906 66.7509C92.906 65.8693 93.1999 64.9876 94.0815 64.106C94.6693 63.5182 95.5509 63.2244 96.4325 63.2244C97.3142 63.2244 98.1958 63.5182 98.7835 64.106L102.604 67.6325C103.192 68.2203 103.486 69.1019 103.486 69.9835C103.192 71.1591 102.898 72.0407 102.31 72.6284ZM113.771 63.5182C112.008 65.2815 109.363 65.2815 107.6 63.8121L102.898 59.404C102.016 58.5223 101.428 57.3468 101.428 56.1713C101.428 54.9958 101.722 53.8203 102.898 52.6448C103.779 51.7631 104.955 51.1754 106.13 51.1754C107.306 51.1754 108.482 51.4693 109.069 52.3509L113.477 56.7591C114.359 57.6407 114.947 58.8162 114.947 59.9917C114.947 61.1672 114.653 62.6366 113.771 63.5182ZM113.771 10.3264L131.11 40.008L120.53 46.4733L102.898 16.7917L113.771 10.3264ZM97.3142 18.555L115.828 49.9999L115.535 50.8815L113.184 48.5305C109.069 44.7101 102.604 44.7101 98.4897 48.8244C96.4325 50.8815 95.5509 53.5264 95.5509 56.4652C95.5509 56.7591 95.5509 57.0529 95.5509 57.3468C93.1999 57.3468 91.1427 58.5223 89.3795 60.2856C87.6162 62.0489 86.7346 64.6937 86.7346 67.0448C86.7346 67.3386 86.7346 67.6325 86.7346 67.9264C84.0897 67.6325 81.1509 68.5142 79.0938 70.5713C77.3305 72.3346 76.4489 74.6856 76.4489 77.3305C76.4489 77.9182 76.4489 78.506 76.7427 79.0937C74.0978 78.7999 71.4529 79.6815 69.3958 81.4448C67.9264 82.9142 67.0448 85.2652 67.0448 87.6162C67.0448 88.7917 67.3386 89.6733 67.6325 90.8488L64.6937 93.7876C62.9305 94.9631 60.5795 94.9631 59.1101 93.4938C58.2284 92.6121 57.9346 91.4366 57.9346 90.2611C57.9346 89.3795 58.5223 88.2039 59.1101 87.6162L59.404 87.3223L69.3958 78.7999L65.5754 74.3917L55.2897 83.208C55.2897 83.208 55.2897 83.208 54.9958 83.5019L52.057 86.4407C50.5876 87.9101 47.6489 87.9101 46.1795 86.4407C45.2978 85.5591 45.004 84.3835 45.004 83.208C45.004 82.0325 45.5917 80.857 46.4733 80.2693L59.404 69.6897L55.8774 64.3999L42.9468 74.9795L38.2448 78.7999C38.2448 78.7999 37.9509 78.7999 37.9509 79.0937C36.1876 80.857 33.2489 80.857 31.7795 79.0937C30.8978 78.2121 30.604 77.0366 30.604 75.8611C30.604 74.6856 31.1917 73.5101 31.7795 72.6284L32.0733 72.3346L50.8815 57.0529L47.0611 52.3509L27.9591 67.9264C26.4897 69.1019 24.4325 69.1019 22.9631 67.9264C22.0815 67.0448 21.4937 66.1631 21.4937 64.9876C21.4937 63.8121 22.0815 62.6366 22.9631 62.0488L60.8733 31.7795C62.6366 30.3101 65.2815 30.604 66.7509 32.0733L75.8611 41.1835C79.6815 45.004 85.8529 45.004 89.6733 41.1835C93.4938 37.3631 93.4938 31.1917 89.6733 27.3713L82.9142 20.6121C86.1468 19.1427 92.0244 18.555 97.3142 18.555ZM44.7101 18.2611L62.0489 15.3223C66.1631 14.7346 70.2774 15.9101 73.2162 18.8489L85.5591 31.1917C87.0285 32.6611 87.0285 35.0121 85.5591 36.4815C84.0897 37.9509 81.7386 37.9509 80.2693 36.4815L71.1591 27.3713C67.3387 23.5509 61.4611 23.257 57.3468 26.4897L22.9631 54.1142C21.7876 52.3509 20.906 49.706 20.0244 47.0611L44.7101 18.2611ZM28.8407 7.97538L39.1264 15.9101L16.7917 42.3591L7.38762 34.4244L28.8407 7.97538Z" fill="#055EB0"/>
</svg>
