<svg width="59" height="64" viewBox="0 0 59 64" fill="none" xmlns="http://www.w3.org/2000/svg">
<path d="M58.73 57.1835L52.6373 46.6448C54.1814 43.9419 54.6478 40.7556 53.9432 37.7235C53.2386 34.6915 51.415 32.0373 48.8373 30.2922V3.54017C48.8373 2.75407 48.525 2.00016 47.9692 1.44431C47.4133 0.888449 46.6594 0.576172 45.8733 0.576172H3.59199C3.20334 0.576168 2.81853 0.652924 2.45963 0.802034C2.10073 0.951144 1.77481 1.16967 1.50059 1.44507C1.22636 1.72047 1.00923 2.04732 0.861663 2.40686C0.714092 2.76639 0.638984 3.15153 0.640652 3.54017V54.0168C0.640652 54.7996 0.951596 55.5503 1.50508 56.1037C2.05856 56.6572 2.80924 56.9682 3.59199 56.9682H25.1887L25.062 57.1835C24.9362 57.3848 24.8695 57.6174 24.8695 57.8548C24.8695 58.0922 24.9362 58.3249 25.062 58.5262C25.1963 58.7319 25.3876 58.8941 25.6125 58.9931C25.8374 59.0921 26.0862 59.1235 26.3287 59.0835L30.268 58.5768L31.8007 62.2375C31.8922 62.455 32.0427 62.6425 32.2352 62.7791C32.4277 62.9156 32.6545 62.9956 32.89 63.0102H32.966C33.1892 63.011 33.4087 62.9529 33.6022 62.8417C33.7957 62.7305 33.9564 62.5701 34.068 62.3768L39.6667 52.6995C40.4063 52.8363 41.1565 52.9084 41.9087 52.9148C42.665 52.9077 43.4193 52.8357 44.1633 52.6995L49.8 62.3768C49.9116 62.5701 50.0723 62.7305 50.2658 62.8417C50.4593 62.9529 50.6788 63.011 50.902 63.0102H50.978C51.2135 62.9956 51.4403 62.9156 51.6328 62.7791C51.8252 62.6425 51.9757 62.455 52.0673 62.2375L53.6 58.5768L57.5393 59.0835C57.7756 59.1168 58.0165 59.0827 58.2343 58.9852C58.4521 58.8876 58.6378 58.7304 58.7702 58.5319C58.9026 58.3333 58.9762 58.1014 58.9825 57.8628C58.9888 57.6243 58.9277 57.3888 58.806 57.1835H58.73ZM3.59199 54.4348C3.48113 54.4348 3.37481 54.3908 3.29642 54.3124C3.21802 54.234 3.17399 54.1277 3.17399 54.0168V3.54017C3.17394 3.42811 3.21757 3.32045 3.29561 3.24004C3.37366 3.15963 3.47998 3.1128 3.59199 3.10951H45.848C45.9622 3.10951 46.0717 3.15488 46.1525 3.23564C46.2333 3.31641 46.2787 3.42595 46.2787 3.54017V29.0002C45.1703 28.5737 44.0051 28.3134 42.8207 28.2275V7.83417C42.8207 7.49823 42.6872 7.17605 42.4497 6.9385C42.2121 6.70096 41.8899 6.5675 41.554 6.5675H7.88599C7.55005 6.5675 7.22786 6.70096 6.99032 6.9385C6.75277 7.17605 6.61932 7.49823 6.61932 7.83417V49.7102C6.61932 50.0461 6.75277 50.3683 6.99032 50.6058C7.22786 50.8434 7.55005 50.9768 7.88599 50.9768H28.6467L26.6453 54.4348H3.59199ZM29.5333 40.5395C29.5348 42.6808 30.0935 44.7849 31.1547 46.6448L30.1033 48.4435H9.15265V9.10084H40.2873V28.2908C37.3164 28.6862 34.5895 30.1451 32.6121 32.3974C30.6347 34.6496 29.5408 37.5424 29.5333 40.5395ZM33.1307 58.9062L32.2187 56.7148C32.1136 56.4716 31.9348 56.2674 31.7076 56.1311C31.4804 55.9947 31.2161 55.9331 30.952 55.9548L28.596 56.2462L32.852 48.8742C34.0409 50.1964 35.5013 51.2463 37.1333 51.9522L33.1307 58.9062ZM32.0667 40.5395C32.0692 38.596 32.6478 36.6968 33.7294 35.0821C34.8109 33.4673 36.3469 32.2094 38.1432 31.4674C39.9395 30.7254 41.9155 30.5326 43.8214 30.9133C45.7272 31.2939 47.4775 32.2311 48.8508 33.6063C50.2242 34.9814 51.1591 36.7329 51.5374 38.6392C51.9156 40.5456 51.7202 42.5213 50.9759 44.3166C50.2316 46.1119 48.9717 47.6463 47.3556 48.7258C45.7394 49.8053 43.8395 50.3815 41.896 50.3815C39.2879 50.3781 36.7878 49.3397 34.9448 47.4944C33.1018 45.649 32.0667 43.1476 32.0667 40.5395ZM52.9033 55.9548C52.6291 55.9189 52.3506 55.9738 52.1104 56.111C51.8703 56.2482 51.6816 56.4603 51.5733 56.7148L50.6613 58.9062L46.646 51.9522C48.3281 51.2639 49.8375 50.2129 51.0667 48.8742L55.3227 56.2462L52.9033 55.9548Z" fill="#055EB0"/>
<path d="M47.9892 37.7031L44.9112 36.6011L42.8972 34.0677C42.7785 33.9221 42.6287 33.8047 42.459 33.724C42.2892 33.6434 42.1035 33.6016 41.9156 33.6016C41.7276 33.6016 41.542 33.6434 41.3722 33.724C41.2024 33.8047 41.0527 33.9221 40.9339 34.0677L38.9199 36.6011L35.8672 37.7031C35.6863 37.7686 35.5227 37.8746 35.3888 38.0129C35.2549 38.1511 35.1543 38.3181 35.0946 38.5011C35.0344 38.6842 35.0168 38.8787 35.0431 39.0697C35.0695 39.2606 35.1391 39.4431 35.2466 39.6031L37.0959 42.3137L37.1339 45.5944C37.1393 45.7878 37.1889 45.9774 37.2789 46.1487C37.3689 46.32 37.497 46.4683 37.6532 46.5824C37.8101 46.6963 37.9911 46.7727 38.1821 46.8056C38.3732 46.8385 38.5693 46.8272 38.7552 46.7724L41.8966 45.8477L45.0506 46.7724C45.168 46.7918 45.2878 46.7918 45.4052 46.7724C45.6692 46.7707 45.9261 46.6866 46.1399 46.5317C46.2985 46.419 46.429 46.2712 46.5213 46.0999C46.6136 45.9285 46.6651 45.7382 46.6719 45.5437L46.7606 42.2631L48.6099 39.5524C48.7196 39.3934 48.7914 39.2115 48.8199 39.0205C48.8485 38.8295 48.833 38.6345 48.7746 38.4504C48.7071 38.2755 48.6017 38.1177 48.4659 37.9885C48.3301 37.8592 48.1673 37.7618 47.9892 37.7031ZM44.4679 41.1991C44.3296 41.3966 44.2505 41.6295 44.2399 41.8704V43.8844L42.2006 43.3144C41.969 43.2469 41.7229 43.2469 41.4912 43.3144L39.6672 43.8844L39.6039 41.8704C39.5934 41.6295 39.5143 41.3966 39.3759 41.1991L38.2486 39.5271L40.1359 38.8557C40.3636 38.7702 40.5646 38.626 40.7186 38.4377L41.9852 36.8417L43.2519 38.4377C43.4059 38.626 43.6069 38.7702 43.8346 38.8557L45.7219 39.5271L44.4679 41.1991Z" fill="#055EB0"/>
<path d="M30.4323 12.9141H19.0323C18.6964 12.9141 18.3742 13.0475 18.1366 13.2851C17.8991 13.5226 17.7656 13.8448 17.7656 14.1807C17.7656 14.5167 17.8991 14.8389 18.1366 15.0764C18.3742 15.3139 18.6964 15.4474 19.0323 15.4474H30.4323C30.7682 15.4474 31.0904 15.3139 31.328 15.0764C31.5655 14.8389 31.699 14.5167 31.699 14.1807C31.699 13.8448 31.5655 13.5226 31.328 13.2851C31.0904 13.0475 30.7682 12.9141 30.4323 12.9141Z" fill="#055EB0"/>
<path d="M14.0674 38.715H20.5401C20.8761 38.715 21.1982 38.5815 21.4358 38.344C21.6733 38.1064 21.8068 37.7842 21.8068 37.4483C21.8068 37.1124 21.6733 36.7902 21.4358 36.5526C21.1982 36.3151 20.8761 36.1816 20.5401 36.1816H14.0674C13.7315 36.1816 13.4093 36.3151 13.1718 36.5526C12.9342 36.7902 12.8008 37.1124 12.8008 37.4483C12.8008 37.7842 12.9342 38.1064 13.1718 38.344C13.4093 38.5815 13.7315 38.715 14.0674 38.715Z" fill="#055EB0"/>
<path d="M25.7334 41.7812H14.0674C13.7315 41.7812 13.4093 41.9147 13.1718 42.1522C12.9342 42.3898 12.8008 42.712 12.8008 43.0479C12.8008 43.3839 12.9342 43.706 13.1718 43.9436C13.4093 44.1811 13.7315 44.3146 14.0674 44.3146H25.7334C26.0694 44.3146 26.3916 44.1811 26.6291 43.9436C26.8667 43.706 27.0001 43.3839 27.0001 43.0479C27.0001 42.712 26.8667 42.3898 26.6291 42.1522C26.3916 41.9147 26.0694 41.7812 25.7334 41.7812Z" fill="#055EB0"/>
</svg>
