<svg width="34" height="39" viewBox="0 0 34 39" fill="none" xmlns="http://www.w3.org/2000/svg">
<rect x="0.512695" y="0.503906" width="3.84464" height="38.4464" fill="#F3C800"/>
<rect x="1.79395" y="3.06714" width="32.0387" height="21.7863" fill="#F3C800"/>
<path d="M8.714 18V8.984H13.474C14.3793 8.984 15.0607 9.19867 15.518 9.628C15.9847 10.0573 16.218 10.664 16.218 11.448C16.218 11.924 16.1247 12.3253 15.938 12.652C15.7607 12.9693 15.5227 13.2167 15.224 13.394C15.6347 13.5433 15.9567 13.7627 16.19 14.052C16.4233 14.3413 16.54 14.7753 16.54 15.354C16.54 16.2127 16.288 16.8707 15.784 17.328C15.28 17.776 14.5567 18 13.614 18H8.714ZM10.968 12.652H12.802C13.194 12.652 13.4787 12.5633 13.656 12.386C13.8333 12.2087 13.922 11.9613 13.922 11.644C13.922 11.2987 13.8333 11.042 13.656 10.874C13.4787 10.6967 13.1567 10.608 12.69 10.608H10.968V12.652ZM10.968 16.39H13.026C13.4367 16.39 13.74 16.306 13.936 16.138C14.1413 15.97 14.244 15.6713 14.244 15.242C14.244 14.8967 14.146 14.64 13.95 14.472C13.754 14.2947 13.418 14.206 12.942 14.206H10.968V16.39ZM16.9106 18L20.3546 8.984H22.7906L26.2346 18H23.8826L23.0706 15.956H20.0606L19.2626 18H16.9106ZM20.3686 14.29H22.7626L21.5586 11.154L20.3686 14.29Z" fill="#D74848"/>
</svg>
