<svg width="32" height="32" viewBox="0 0 32 32" fill="none" xmlns="http://www.w3.org/2000/svg">
<path d="M31.0002 17.9996C30.6729 15.1071 29.2818 12.4396 27.0973 10.5157C24.9128 8.59176 22.0909 7.54883 19.1802 7.58962H4.00022L7.25022 2.99962C7.32804 2.89121 7.38337 2.76831 7.41295 2.63818C7.44254 2.50805 7.44578 2.37332 7.42248 2.24191C7.39918 2.11051 7.34982 1.9851 7.2773 1.87308C7.20478 1.76105 7.11057 1.66467 7.00022 1.58962C6.78385 1.4378 6.51616 1.37781 6.25569 1.42279C5.99522 1.46776 5.76315 1.61403 5.61022 1.82962L1.15022 8.07962C1.04737 8.22607 0.992188 8.40067 0.992188 8.57962C0.992188 8.75857 1.04737 8.93317 1.15022 9.07962L5.62022 15.3396C5.78222 15.5263 6.00761 15.6463 6.25291 15.6766C6.49821 15.7069 6.74604 15.6453 6.94858 15.5036C7.15112 15.362 7.29402 15.1503 7.34972 14.9095C7.40543 14.6687 7.36998 14.4158 7.25022 14.1996L4.00022 9.58962H19.1802C21.6308 9.55693 24.0034 10.4502 25.8239 12.0909C27.6445 13.7316 28.7788 15.9989 29.0002 18.4396C29.0878 19.7387 28.9078 21.042 28.4711 22.2687C28.0345 23.4954 27.3506 24.6193 26.4618 25.5709C25.5731 26.5225 24.4984 27.2814 23.3043 27.8007C22.1103 28.3199 20.8223 28.5885 19.5202 28.5896H2.00022C1.735 28.5896 1.48065 28.695 1.29311 28.8825C1.10558 29.07 1.00022 29.3244 1.00022 29.5896C1.00022 29.8548 1.10558 30.1092 1.29311 30.2967C1.48065 30.4843 1.735 30.5896 2.00022 30.5896H19.5002C21.1062 30.5953 22.6957 30.2648 24.1663 29.6195C25.6369 28.9741 26.9562 28.0281 28.0394 26.8423C29.1225 25.6565 29.9455 24.2572 30.4554 22.7342C30.9653 21.2113 31.1509 19.5985 31.0002 17.9996Z" fill="#DE1026"/>
<path d="M5.60018 15.77L1.13018 9.51005C1.0313 9.36205 0.978516 9.18805 0.978516 9.01005C0.978516 8.83205 1.0313 8.65805 1.13018 8.51005L5.60018 2.23005C5.67673 2.12268 5.77376 2.0315 5.88568 1.96178C5.9976 1.89205 6.12221 1.84515 6.25233 1.82377C6.38245 1.8024 6.51552 1.80697 6.64386 1.83722C6.77221 1.86747 6.89331 1.92281 7.00018 2.00005C7.10756 2.07659 7.19873 2.17362 7.26845 2.28554C7.33818 2.39747 7.38508 2.52208 7.40646 2.6522C7.42783 2.78232 7.42326 2.91538 7.39301 3.04373C7.36276 3.17207 7.30742 3.29317 7.23018 3.40005L3.23018 9.00005L7.23018 14.6C7.30742 14.7069 7.36276 14.828 7.39301 14.9564C7.42326 15.0847 7.42783 15.2178 7.40646 15.3479C7.38508 15.478 7.33818 15.6026 7.26845 15.7146C7.19873 15.8265 7.10756 15.9235 7.00018 16C6.89331 16.0773 6.77221 16.1326 6.64386 16.1629C6.51552 16.1931 6.38245 16.1977 6.25233 16.1763C6.12221 16.1549 5.9976 16.108 5.88568 16.0383C5.77376 15.9686 5.67673 15.8774 5.60018 15.77Z" fill="#DE1026"/>
<path d="M19.16 7.99968H2C1.73478 7.99968 1.48043 8.10504 1.29289 8.29257C1.10536 8.48011 1 8.73446 1 8.99968C1 9.2649 1.10536 9.51925 1.29289 9.70679C1.48043 9.89432 1.73478 9.99968 2 9.99968H19.16C21.614 9.9619 23.9916 10.8529 25.8164 12.4941C27.6412 14.1353 28.7783 16.4055 29 18.8497C29.0877 20.1505 28.9071 21.4554 28.4692 22.6835C28.0314 23.9115 27.3457 25.0364 26.4548 25.9883C25.5639 26.9401 24.4868 27.6987 23.2903 28.2167C22.0939 28.7348 20.8038 29.0013 19.5 28.9997H2C1.73478 28.9997 1.48043 29.105 1.29289 29.2926C1.10536 29.4801 1 29.7345 1 29.9997C1 30.2649 1.10536 30.5193 1.29289 30.7068C1.48043 30.8943 1.73478 30.9997 2 30.9997H19.5C21.1079 31.0056 22.6991 30.6747 24.1713 30.0281C25.6434 29.3815 26.9637 28.4337 28.0472 27.2456C29.1306 26.0576 29.9531 24.6558 30.4617 23.1305C30.9703 21.6051 31.1537 19.9902 31 18.3897C30.6699 15.4964 29.2746 12.8296 27.0858 10.9089C24.8971 8.9882 22.0716 7.9511 19.16 7.99968Z" fill="#DE1026"/>
</svg>
