<svg width="32" height="32" viewBox="0 0 32 32" fill="none" xmlns="http://www.w3.org/2000/svg">
<path d="M31.0002 18C30.6729 15.1075 29.2818 12.44 27.0973 10.5161C24.9128 8.59213 22.0909 7.54919 19.1802 7.58998H4.00022L7.25022 2.99998C7.32804 2.89157 7.38337 2.76868 7.41295 2.63855C7.44254 2.50842 7.44578 2.37368 7.42248 2.24228C7.39918 2.11088 7.34982 1.98547 7.2773 1.87344C7.20478 1.76141 7.11057 1.66504 7.00022 1.58998C6.78385 1.43816 6.51616 1.37818 6.25569 1.42315C5.99522 1.46813 5.76315 1.6144 5.61022 1.82998L1.15022 8.07998C1.04737 8.22643 0.992188 8.40103 0.992188 8.57998C0.992188 8.75894 1.04737 8.93354 1.15022 9.07998L5.62022 15.34C5.78222 15.5266 6.00761 15.6467 6.25291 15.677C6.49821 15.7073 6.74604 15.6456 6.94858 15.504C7.15112 15.3623 7.29402 15.1507 7.34972 14.9099C7.40543 14.6691 7.36998 14.4162 7.25022 14.2L4.00022 9.58998H19.1802C21.6308 9.55729 24.0034 10.4506 25.8239 12.0913C27.6445 13.732 28.7788 15.9992 29.0002 18.44C29.0878 19.7391 28.9078 21.0424 28.4711 22.2691C28.0345 23.4957 27.3506 24.6197 26.4618 25.5713C25.5731 26.5229 24.4984 27.2818 23.3043 27.801C22.1103 28.3203 20.8223 28.5888 19.5202 28.59H2.00022C1.735 28.59 1.48065 28.6953 1.29311 28.8829C1.10558 29.0704 1.00022 29.3248 1.00022 29.59C1.00022 29.8552 1.10558 30.1096 1.29311 30.2971C1.48065 30.4846 1.735 30.59 2.00022 30.59H19.5002C21.1062 30.5957 22.6957 30.2652 24.1663 29.6198C25.6369 28.9745 26.9562 28.0285 28.0394 26.8427C29.1225 25.6569 29.9455 24.2575 30.4554 22.7346C30.9653 21.2117 31.1509 19.5989 31.0002 18Z" fill="#DE1026"/>
<path d="M5.60018 15.77L1.13018 9.50999C1.0313 9.36198 0.978516 9.18798 0.978516 9.00999C0.978516 8.83199 1.0313 8.65799 1.13018 8.50999L5.60018 2.22999C5.67673 2.12261 5.77376 2.03144 5.88568 1.96172C5.9976 1.89199 6.12221 1.84509 6.25233 1.82371C6.38245 1.80234 6.51552 1.80691 6.64386 1.83716C6.77221 1.86741 6.89331 1.92275 7.00018 1.99999C7.10756 2.07653 7.19873 2.17356 7.26845 2.28548C7.33818 2.39741 7.38508 2.52201 7.40646 2.65213C7.42783 2.78225 7.42326 2.91532 7.39301 3.04367C7.36276 3.17201 7.30742 3.29311 7.23018 3.39999L3.23018 8.99999L7.23018 14.6C7.30742 14.7069 7.36276 14.828 7.39301 14.9563C7.42326 15.0847 7.42783 15.2177 7.40646 15.3478C7.38508 15.478 7.33818 15.6026 7.26845 15.7145C7.19873 15.8264 7.10756 15.9234 7.00018 16C6.89331 16.0772 6.77221 16.1326 6.64386 16.1628C6.51552 16.1931 6.38245 16.1976 6.25233 16.1763C6.12221 16.1549 5.9976 16.108 5.88568 16.0383C5.77376 15.9685 5.67673 15.8774 5.60018 15.77Z" fill="#DE1026"/>
<path d="M19.16 7.99998H2C1.73478 7.99998 1.48043 8.10534 1.29289 8.29288C1.10536 8.48041 1 8.73477 1 8.99998C1 9.2652 1.10536 9.51955 1.29289 9.70709C1.48043 9.89463 1.73478 9.99998 2 9.99998H19.16C21.614 9.96221 23.9916 10.8532 25.8164 12.4944C27.6412 14.1356 28.7783 16.4058 29 18.85C29.0877 20.1508 28.9071 21.4557 28.4692 22.6838C28.0314 23.9118 27.3457 25.0367 26.4548 25.9886C25.5639 26.9405 24.4868 27.699 23.2903 28.217C22.0939 28.7351 20.8038 29.0016 19.5 29H2C1.73478 29 1.48043 29.1053 1.29289 29.2929C1.10536 29.4804 1 29.7348 1 30C1 30.2652 1.10536 30.5196 1.29289 30.7071C1.48043 30.8946 1.73478 31 2 31H19.5C21.1079 31.0059 22.6991 30.675 24.1713 30.0284C25.6434 29.3818 26.9637 28.434 28.0472 27.2459C29.1306 26.0579 29.9531 24.6561 30.4617 23.1308C30.9703 21.6054 31.1537 19.9905 31 18.39C30.6699 15.4967 29.2746 12.8299 27.0858 10.9092C24.8971 8.9885 22.0716 7.9514 19.16 7.99998Z" fill="#DE1026"/>
</svg>
