<svg width="42" height="41" viewBox="0 0 42 41" fill="none" xmlns="http://www.w3.org/2000/svg">
<path d="M37.125 40.4623H4.125C1.875 40.4623 0 38.636 0 36.4445V6.94952C0 4.75795 1.5 2.93164 3.46875 2.93164H5.53125V5.57979H3.46875C3.1875 5.57979 2.8125 6.12768 2.8125 6.94952V36.4445C2.8125 37.175 3.46875 37.8142 4.21875 37.8142H37.2188C37.9688 37.8142 38.625 37.175 38.625 36.4445V6.94952C38.625 6.12768 38.1562 5.57979 37.9688 5.57979H35.9062V2.93164H37.9688C39.8438 2.93164 41.4375 4.75795 41.4375 6.94952V36.4445C41.25 38.636 39.375 40.4623 37.125 40.4623Z" fill="#DE1026"/>
<path d="M9.65625 8.32019C8.90625 8.32019 8.25 7.681 8.25 6.9505V1.56305C8.25 0.832549 8.90625 0.193359 9.65625 0.193359C10.4062 0.193359 11.0625 0.832549 11.0625 1.56305V6.9505C10.9688 7.681 10.4062 8.32019 9.65625 8.32019Z" fill="#DE1026"/>
<path d="M31.5938 8.32019C30.8438 8.32019 30.1875 7.681 30.1875 6.9505V1.56305C30.1875 0.832549 30.8438 0.193359 31.5938 0.193359C32.3438 0.193359 33 0.832549 33 1.56305V6.9505C33 7.681 32.3438 8.32019 31.5938 8.32019Z" fill="#DE1026"/>
<path d="M13.7812 2.93164H27.4688V5.67072H13.7812V2.93164Z" fill="#DE1026"/>
<path d="M2.71875 10.9688H38.5312V13.708H2.71875V10.9688Z" fill="#DE1026"/>
<path d="M33 16.3555H35.7188V19.0031H33V16.3555Z" fill="#DE1026"/>
<path d="M27.4688 16.3555H30.2812V19.0031H27.4688V16.3555Z" fill="#DE1026"/>
<path d="M22.0312 16.3555H24.75V19.0031H22.0312V16.3555Z" fill="#DE1026"/>
<path d="M16.5 16.3555H19.2188V19.0031H16.5V16.3555Z" fill="#DE1026"/>
<path d="M10.9688 16.3555H13.7812V19.0031H10.9688V16.3555Z" fill="#DE1026"/>
<path d="M33 21.7441H35.7188V24.3915H33V21.7441Z" fill="#DE1026"/>
<path d="M27.4688 21.7441H30.2812V24.3915H27.4688V21.7441Z" fill="#DE1026"/>
<path d="M22.0312 21.7441H24.75V24.3915H22.0312V21.7441Z" fill="#DE1026"/>
<path d="M16.5 21.7441H19.2188V24.3915H16.5V21.7441Z" fill="#DE1026"/>
<path d="M10.9688 21.7441H13.7812V24.3915H10.9688V21.7441Z" fill="#DE1026"/>
<path d="M5.53125 21.7441H8.25V24.3915H5.53125V21.7441Z" fill="#DE1026"/>
<path d="M33 27.0391H35.7188V29.7778H33V27.0391Z" fill="#DE1026"/>
<path d="M27.4688 27.0391H30.2812V29.7778H27.4688V27.0391Z" fill="#DE1026"/>
<path d="M22.0312 27.0391H24.75V29.7778H22.0312V27.0391Z" fill="#DE1026"/>
<path d="M16.5 27.0391H19.2188V29.7778H16.5V27.0391Z" fill="#DE1026"/>
<path d="M10.9688 27.0391H13.7812V29.7778H10.9688V27.0391Z" fill="#DE1026"/>
<path d="M5.53125 27.0391H8.25V29.7778H5.53125V27.0391Z" fill="#DE1026"/>
<path d="M27.4688 32.4277H30.2812V35.0751H27.4688V32.4277Z" fill="#DE1026"/>
<path d="M22.0312 32.4277H24.75V35.0751H22.0312V32.4277Z" fill="#DE1026"/>
<path d="M16.5 32.4277H19.2188V35.0751H16.5V32.4277Z" fill="#DE1026"/>
<path d="M10.9688 32.4277H13.7812V35.0751H10.9688V32.4277Z" fill="#DE1026"/>
<path d="M5.53125 32.4277H8.25V35.0751H5.53125V32.4277Z" fill="#DE1026"/>
</svg>
