<svg width="40" height="40" viewBox="0 0 40 40" fill="none" xmlns="http://www.w3.org/2000/svg">
<path d="M20 0.75C9.36953 0.75 0.75 9.36953 0.75 20C0.75 30.6305 9.36953 39.25 20 39.25C30.6305 39.25 39.25 30.6305 39.25 20C39.25 9.36953 30.6305 0.75 20 0.75ZM20 35.9844C11.1742 35.9844 4.01562 28.8258 4.01562 20C4.01562 11.1742 11.1742 4.01562 20 4.01562C28.8258 4.01562 35.9844 11.1742 35.9844 20C35.9844 28.8258 28.8258 35.9844 20 35.9844Z" fill="#DE1026"/>
<path d="M27.507 25.4358L21.3796 21.0057V10.371C21.3796 10.1819 21.2249 10.0272 21.0359 10.0272H18.9691C18.78 10.0272 18.6253 10.1819 18.6253 10.371V22.2046C18.6253 22.3163 18.6769 22.4194 18.7671 22.4839L25.8742 27.6659C26.0289 27.7776 26.2437 27.7432 26.3554 27.5928L27.5843 25.9171C27.696 25.7581 27.6617 25.5432 27.507 25.4358Z" fill="#DE1026"/>
</svg>
