<svg width="135" height="111" viewBox="0 0 135 111" fill="none" xmlns="http://www.w3.org/2000/svg">
<path d="M13.1209 89.7969C14.6522 89.7969 15.8553 88.5938 15.8553 87.0625V58.4609L32.3709 49.6016V73.0625C32.3709 74.5938 33.5741 75.7969 35.1053 75.7969C36.6366 75.7969 37.8397 74.5938 37.8397 73.0625V40.4688L10.4412 55.1797V87.0625C10.3866 88.5391 11.5897 89.7969 13.1209 89.7969Z" fill="#055EB0"/>
<path d="M46.0425 69.0703C47.5737 69.0703 48.7769 67.8672 48.7769 66.3359V17.9922L65.2925 9.13281V87.7734C65.2925 89.3047 66.4956 90.5078 68.0269 90.5078C69.5581 90.5078 70.7612 89.3047 70.7612 87.7734V0L43.3081 14.7109V66.3359C43.3081 67.8125 44.5112 69.0703 46.0425 69.0703Z" fill="#055EB0"/>
<path d="M78.9651 86.9531C80.4964 86.9531 81.6995 85.75 81.6995 84.2188V32.1016L98.2151 23.2422V70.4375C98.2151 71.9688 99.4182 73.1719 100.949 73.1719C102.481 73.1719 103.684 71.9688 103.684 70.4375V14.1094L76.2854 28.8203V84.2188C76.2307 85.75 77.4885 86.9531 78.9651 86.9531Z" fill="#055EB0"/>
<path d="M133.762 65.3516C133.269 64.5312 132.394 63.9844 131.41 63.9844H112.543C111.558 63.9844 110.683 64.5312 110.191 65.3516C109.699 66.1719 109.699 67.2109 110.191 68.0859L113.582 73.9375L98.5429 83.0703C96.246 84.4922 94.0038 85.8594 91.7069 87.2812C90.0663 88.3203 88.4257 89.3047 86.8397 90.3437C82.5741 93.0781 78.8007 95.5391 75.3007 97.9453C73.496 99.1484 71.746 100.406 69.9413 101.609L45.4413 77.6562L1.25379 105.766C-0.00402043 106.586 -0.386833 108.281 0.43348 109.539C0.980355 110.359 1.85535 110.797 2.73035 110.797C3.22254 110.797 3.71473 110.633 4.20692 110.359L44.6757 84.6016L69.3944 108.719L72.7304 106.312C74.5897 105 76.4491 103.687 78.3632 102.43C81.8085 100.078 85.5272 97.6719 89.7929 94.9375C91.3788 93.8984 93.0194 92.9141 94.6054 91.875C96.8475 90.4531 99.1444 89.0859 101.387 87.6641L115.223 79.1875L116.316 78.5312L119.652 84.3281C120.144 85.1484 121.019 85.6953 122.004 85.6953C122.988 85.6953 123.863 85.1484 124.355 84.3281L133.816 67.9766C134.254 67.2656 134.254 66.2266 133.762 65.3516ZM121.949 77.6016L117.246 69.4531H126.652L121.949 77.6016Z" fill="#055EB0"/>
</svg>
