<svg width="34" height="40" viewBox="0 0 34 40" fill="none" xmlns="http://www.w3.org/2000/svg">
<rect x="0.280273" y="0.853394" width="3.84464" height="38.4464" fill="#F3C800"/>
<rect x="1.56152" y="3.41638" width="32.0387" height="21.7863" fill="#F3C800"/>
<path d="M9.714 19V9.984H13.62C14.5347 9.984 15.3047 10.138 15.93 10.446C16.5553 10.7447 17.0313 11.23 17.358 11.902C17.6847 12.5647 17.848 13.4467 17.848 14.548C17.848 16.0973 17.4887 17.2267 16.77 17.936C16.0607 18.6453 15.0107 19 13.62 19H9.714ZM11.968 17.264H13.312C13.7973 17.264 14.2033 17.194 14.53 17.054C14.866 16.9047 15.118 16.634 15.286 16.242C15.4633 15.85 15.552 15.2853 15.552 14.548C15.552 13.8013 15.4727 13.2273 15.314 12.826C15.1647 12.4153 14.922 12.1307 14.586 11.972C14.2593 11.804 13.8347 11.72 13.312 11.72H11.968V17.264ZM18.9972 19V9.984H25.5492V11.72H21.2512V13.61H25.0312V15.374H21.2512V19H18.9972Z" fill="#D74848"/>
</svg>
