<svg width="32" height="25" viewBox="0 0 32 25" fill="none" xmlns="http://www.w3.org/2000/svg">
<path d="M31.423 3.3377L30.1762 2.09082L18.6262 13.6408C17.1824 15.0846 14.7543 15.0846 13.3105 13.6408L1.76055 2.15645L0.513672 3.40332L9.11055 12.0002L0.513672 20.5971L1.76055 21.8439L10.3574 13.2471L12.0637 14.9533C13.1137 16.0033 14.4918 16.5939 15.9355 16.5939C17.3793 16.5939 18.7574 16.0033 19.8074 14.9533L21.5137 13.2471L30.1105 21.8439L31.3574 20.5971L22.7605 12.0002L31.423 3.3377Z" fill="#0B4173"/>
<path d="M28.9945 24.0754H3.07266C1.56328 24.0754 0.316406 22.8285 0.316406 21.3191V2.81289C0.316406 1.30351 1.56328 0.0566406 3.07266 0.0566406H28.9945C30.5039 0.0566406 31.7508 1.30351 31.7508 2.81289V21.3191C31.7508 22.8285 30.5039 24.0754 28.9945 24.0754ZM3.00703 1.82851C2.48203 1.82851 2.08828 2.22226 2.08828 2.74726V21.2535C2.08828 21.7785 2.48203 22.1723 3.00703 22.1723H28.9289C29.4539 22.1723 29.8477 21.7785 29.8477 21.2535V2.74726C29.8477 2.22226 29.4539 1.82851 28.9289 1.82851H3.00703Z" fill="#0B4173"/>
</svg>
