<svg width="34" height="40" viewBox="0 0 34 40" fill="none" xmlns="http://www.w3.org/2000/svg">
<rect x="0.609863" y="0.862915" width="3.84464" height="38.4464" fill="#F3C800"/>
<rect x="1.89209" y="3.4259" width="32.0387" height="21.7863" fill="#F3C800"/>
<path d="M10.714 19V9.984H17.364V11.72H12.968V13.61H16.846V15.374H12.968V17.264H17.364V19H10.714ZM21.3086 19.14C20.7113 19.14 20.1513 19.0933 19.6286 19C19.1153 18.916 18.6719 18.79 18.2986 18.622V16.704C18.7093 16.8813 19.1619 17.026 19.6566 17.138C20.1606 17.25 20.6366 17.306 21.0846 17.306C21.6446 17.306 22.0599 17.2547 22.3306 17.152C22.6106 17.0493 22.7506 16.8253 22.7506 16.48C22.7506 16.2467 22.6806 16.06 22.5406 15.92C22.4099 15.78 22.1906 15.6587 21.8826 15.556C21.5839 15.444 21.1733 15.3133 20.6506 15.164C20.0346 14.9773 19.5446 14.772 19.1806 14.548C18.8166 14.3147 18.5553 14.0347 18.3966 13.708C18.2379 13.3813 18.1586 12.98 18.1586 12.504C18.1586 11.6453 18.4666 10.9873 19.0826 10.53C19.6986 10.0727 20.6086 9.844 21.8126 9.844C22.3353 9.844 22.8439 9.886 23.3386 9.97C23.8333 10.0447 24.2346 10.1333 24.5426 10.236V12.168C24.1413 12.0093 23.7353 11.8927 23.3246 11.818C22.9233 11.7433 22.5313 11.706 22.1486 11.706C21.6446 11.706 21.2339 11.7527 20.9166 11.846C20.6086 11.9393 20.4546 12.154 20.4546 12.49C20.4546 12.686 20.5106 12.8447 20.6226 12.966C20.7346 13.078 20.9259 13.1807 21.1966 13.274C21.4766 13.3673 21.8546 13.4793 22.3306 13.61C23.0679 13.806 23.6326 14.044 24.0246 14.324C24.4166 14.5947 24.6873 14.912 24.8366 15.276C24.9859 15.6307 25.0606 16.032 25.0606 16.48C25.0606 17.2733 24.7526 17.9173 24.1366 18.412C23.5206 18.8973 22.5779 19.14 21.3086 19.14Z" fill="#D74848"/>
</svg>
