<svg width="28" height="28" viewBox="0 0 28 28" fill="none" xmlns="http://www.w3.org/2000/svg">
<path d="M26.3217 0.604492H1.67885C1.08622 0.604492 0.607422 1.08329 0.607422 1.67592V26.3188C0.607422 26.9114 1.08622 27.3902 1.67885 27.3902H26.3217C26.9143 27.3902 27.3931 26.9114 27.3931 26.3188V1.67592C27.3931 1.08329 26.9143 0.604492 26.3217 0.604492ZM25.2503 25.2474H19.0862V17.0174H22.5684L23.0907 12.9761H19.0862V10.3947C19.0862 9.2228 19.411 8.42592 21.0885 8.42592H23.228V4.80985C22.8563 4.75963 21.5873 4.64914 20.1074 4.64914C17.0204 4.64914 14.9076 6.53418 14.9076 9.99289V12.9728H11.4188V17.0141H14.911V25.2474H2.75028V2.74735H25.2503V25.2474Z" fill="white" fill-opacity="0.85"/>
</svg>
