<svg width="34" height="34" viewBox="0 0 34 34" fill="none" xmlns="http://www.w3.org/2000/svg">
<path d="M31.7863 0.924805H2.21491C1.50375 0.924805 0.929199 1.49936 0.929199 2.21052V31.7819C0.929199 32.4931 1.50375 33.0677 2.21491 33.0677H31.7863C32.4975 33.0677 33.0721 32.4931 33.0721 31.7819V2.21052C33.0721 1.49936 32.4975 0.924805 31.7863 0.924805ZM30.5006 30.4962H23.1038V20.6203H27.2823L27.9091 15.7708H23.1038V12.673C23.1038 11.2668 23.4935 10.3105 25.5064 10.3105H28.0738V5.97123C27.6279 5.91097 26.1051 5.77838 24.3292 5.77838C20.6247 5.77838 18.0895 8.04043 18.0895 12.1909V15.7668H13.9029V20.6163H18.0935V30.4962H3.50063V3.49623H30.5006V30.4962Z" fill="#DE1026" fill-opacity="0.85"/>
</svg>
