<svg width="34" height="39" viewBox="0 0 34 39" fill="none" xmlns="http://www.w3.org/2000/svg">
<rect x="0.270508" y="0.0766602" width="3.84464" height="38.4464" fill="#F3C800"/>
<rect x="1.55225" y="2.63965" width="32.0387" height="21.7863" fill="#F3C800"/>
<path d="M13.208 18.14C11.6493 18.14 10.464 17.748 9.652 16.964C8.84 16.1707 8.434 15.0553 8.434 13.618C8.434 12.1153 8.84933 10.944 9.68 10.104C10.5107 9.264 11.7333 8.844 13.348 8.844C13.8987 8.844 14.3933 8.87667 14.832 8.942C15.28 9.00733 15.7047 9.10533 16.106 9.236V11.168C15.7047 11.0187 15.2847 10.916 14.846 10.86C14.4167 10.804 13.9733 10.776 13.516 10.776C12.5453 10.776 11.836 11.0093 11.388 11.476C10.9493 11.9333 10.73 12.6473 10.73 13.618C10.73 14.5047 10.94 15.1627 11.36 15.592C11.78 16.012 12.4007 16.222 13.222 16.222C13.7633 16.222 14.2673 16.1473 14.734 15.998V14.29H12.788V12.876H16.624V17.342C16.3067 17.5473 15.8633 17.734 15.294 17.902C14.734 18.0607 14.0387 18.14 13.208 18.14ZM21.9925 18.14C20.5271 18.14 19.4118 17.7667 18.6465 17.02C17.8811 16.2733 17.4985 15.1113 17.4985 13.534C17.4985 11.8633 17.8811 10.664 18.6465 9.936C19.4118 9.208 20.5271 8.844 21.9925 8.844C23.4578 8.844 24.5731 9.208 25.3385 9.936C26.1038 10.664 26.4865 11.8633 26.4865 13.534C26.4865 15.1113 26.1038 16.2733 25.3385 17.02C24.5731 17.7667 23.4578 18.14 21.9925 18.14ZM21.9925 16.222C22.7485 16.222 23.2991 16.0073 23.6445 15.578C23.9991 15.1393 24.1765 14.458 24.1765 13.534C24.1765 12.526 23.9991 11.8167 23.6445 11.406C23.2991 10.986 22.7485 10.776 21.9925 10.776C21.2271 10.776 20.6671 10.986 20.3125 11.406C19.9671 11.8167 19.7945 12.526 19.7945 13.534C19.7945 14.458 19.9671 15.1393 20.3125 15.578C20.6671 16.0073 21.2271 16.222 21.9925 16.222Z" fill="#D74848"/>
</svg>
