<svg width="41" height="57" viewBox="0 0 41 57" fill="none" xmlns="http://www.w3.org/2000/svg">
<path d="M41 49.2715V37.3365C41 33.2975 38.555 29.5575 34.492 27.0375C36.318 24.3405 37.387 21.0865 37.387 17.5845C37.387 8.29147 29.869 0.730469 20.629 0.730469C11.393 0.730469 3.87895 8.29147 3.87895 17.5845C3.87895 21.1315 4.97895 24.4205 6.84695 27.1395C2.88595 29.6595 0.501953 33.3625 0.501953 37.3365V49.2725H3.90195V37.3365C3.90195 34.4225 5.84495 31.6485 9.06695 29.7485C11.257 31.8575 14.006 33.3755 17.073 34.0475L13.589 51.0375L20.752 56.7675L27.915 51.0375L24.369 33.9985C27.404 33.2995 30.127 31.7755 32.287 29.6665C35.6 31.5665 37.6 34.3695 37.6 37.3365V49.2725H41V49.2715ZM20.752 52.4145L17.338 49.6845L20.203 35.7115H21.252L24.161 49.6865L20.752 52.4145ZM20.629 31.0375C13.268 31.0375 7.27795 25.0025 7.27795 17.5845C7.27795 10.1645 13.267 4.13147 20.629 4.13147C27.994 4.13147 33.986 10.1645 33.986 17.5845C33.986 25.0025 27.994 31.0375 20.629 31.0375Z" fill="#055EB0"/>
</svg>
