<svg width="32" height="34" viewBox="0 0 32 34" fill="none" xmlns="http://www.w3.org/2000/svg">
<path fill-rule="evenodd" clip-rule="evenodd" d="M31.5361 16.7835C31.2503 17.07 30.7861 17.07 30.5003 16.7835L23.7961 10.08C23.7481 10.0417 23.7068 10.0005 23.6686 9.95171L20.7961 7.07996C20.7481 7.04171 20.7068 7.00046 20.6686 6.95171L15.9998 2.28296L1.50006 16.7835C1.21431 17.07 0.750063 17.07 0.464312 16.7835C0.178562 16.4977 0.178562 16.0335 0.464312 15.7477L15.3931 0.818961C15.4163 0.783711 15.4328 0.743211 15.4636 0.710961C15.6113 0.563961 15.8063 0.495711 15.9998 0.500211C16.1933 0.495711 16.3883 0.563211 16.5361 0.710961C16.5683 0.742461 16.5826 0.782961 16.6081 0.818961L20.4998 4.71221V2.74796C20.4998 2.33396 20.8351 1.99796 21.2498 1.99796H24.2498C24.4576 1.99796 24.6451 2.08196 24.7801 2.21771C24.9166 2.35346 24.9998 2.54096 24.9998 2.74796V9.21221L31.5361 15.7477C31.8218 16.0335 31.8218 16.4977 31.5361 16.7835ZM23.4998 3.49796H21.9998V6.21221L23.4998 7.71221V3.49796ZM5.49981 15.498C5.91381 15.498 6.24981 15.834 6.24981 16.248V30.498C6.24981 31.3267 6.92181 31.998 7.74981 31.998H12.2498V22.248C12.2498 21.8332 12.5851 21.498 12.9998 21.498H18.9998C19.4146 21.498 19.7498 21.8332 19.7498 22.248V31.998H24.2498C25.0786 31.998 25.7498 31.3267 25.7498 30.498V16.248C25.7498 15.834 26.0851 15.498 26.4998 15.498C26.9146 15.498 27.2498 15.834 27.2498 16.248V30.498C27.2498 32.1547 25.9066 33.498 24.2498 33.498H7.74981C6.09306 33.498 4.74981 32.1547 4.74981 30.498V16.248C4.74981 15.8332 5.08581 15.498 5.49981 15.498ZM18.2498 31.9972V22.9972H13.7498V31.9972H18.2498Z" fill="white"/>
</svg>
