<svg width="26" height="25" viewBox="0 0 26 25" fill="none" xmlns="http://www.w3.org/2000/svg">
<path d="M25.9737 12.7043C25.9737 11.019 24.6571 10.1238 22.8139 10.1238H17.4949C17.8635 8.70184 18.0742 7.33258 18.0742 6.17397C18.0742 1.59221 16.8102 0.644257 15.7043 0.644257C14.967 0.644257 14.4403 0.696921 13.703 1.1709C13.4924 1.27622 13.3871 1.48688 13.3344 1.69754L12.5444 5.96332C11.7018 8.22787 9.5426 10.1764 7.80469 11.493V22.7631C8.38399 22.7631 9.12129 23.0791 9.80592 23.4477C10.6485 23.869 11.5438 24.2904 12.5444 24.2904H20.0754C21.6553 24.2904 22.8139 23.0264 22.8139 21.9205C22.8139 21.7098 22.8139 21.4992 22.7612 21.3412C23.7619 20.9725 24.3938 20.1299 24.3938 19.182C24.3938 18.708 24.2885 18.2867 24.1305 17.9707C24.7098 17.5494 25.3418 16.8648 25.3418 16.0221C25.3418 15.6008 25.1311 15.0742 24.8151 14.7055C25.4998 14.1789 25.9737 13.4416 25.9737 12.7043ZM24.3412 12.7043C24.3412 13.7049 23.2879 13.8102 23.1299 14.2842C22.9719 14.8109 23.7619 15.0215 23.7619 15.9695C23.7619 16.9701 22.5506 16.9701 22.3926 17.444C22.1819 18.0233 22.7612 18.234 22.7612 19.182C22.7612 19.2346 22.7612 19.2873 22.7612 19.34C22.6033 20.1299 21.392 20.1826 21.1813 20.4986C20.9707 20.8672 21.234 21.0779 21.234 21.9205C21.234 22.3945 20.7073 22.7104 20.0754 22.7104H12.5444C11.9651 22.7104 11.2278 22.3945 10.5432 22.0258C9.91125 21.7098 9.27928 21.3938 8.59465 21.2359V12.8623C10.5432 11.3877 13.0711 9.12315 14.0717 6.38462C14.0717 6.33196 14.0717 6.2793 14.1244 6.2793L14.8617 2.32951C15.125 2.22418 15.3356 2.22417 15.7569 2.22417C15.9149 2.22417 16.5469 3.17213 16.5469 6.17397C16.5469 7.33258 16.3362 8.64917 15.9149 10.1238H15.7043C15.283 10.1238 14.9143 10.4924 14.9143 10.9137C14.9143 11.335 15.283 11.7037 15.7043 11.7037H22.8139C23.6039 11.7037 24.3412 12.0723 24.3412 12.7043Z" fill="white"/>
<path d="M7.01498 24.343H2.27523C1.37994 24.343 0.695312 23.6584 0.695312 22.7631V11.7037C0.695312 10.8084 1.37994 10.1238 2.27523 10.1238H7.01498C7.91027 10.1238 8.5949 10.8084 8.5949 11.7037V22.7631C8.5949 23.6584 7.91027 24.343 7.01498 24.343ZM2.27523 11.7037V22.7631H7.01498V11.7037H2.27523Z" fill="white"/>
</svg>
