<svg width="117" height="111" viewBox="0 0 117 111" fill="none" xmlns="http://www.w3.org/2000/svg">
<path d="M115.415 24.322L107.246 10.1714V2.8513C107.246 2.84545 107.244 2.84155 107.244 2.83765C107.244 2.70506 107.194 2.57636 107.165 2.44377C107.137 2.32092 107.133 2.19027 107.085 2.07913C107.083 2.07328 107.083 2.06938 107.081 2.06353C107.042 1.97773 106.971 1.91923 106.923 1.84124C106.839 1.70669 106.765 1.56825 106.654 1.45905C106.56 1.3674 106.443 1.31475 106.336 1.24456C106.232 1.17826 106.143 1.09636 106.028 1.04956C105.881 0.991064 105.724 0.979365 105.566 0.955966C105.472 0.942316 105.392 0.901367 105.296 0.901367C105.291 0.901367 105.287 0.905267 105.281 0.905267C105.168 0.905267 105.057 0.952066 104.944 0.973515C104.801 1.00081 104.653 1.00861 104.524 1.06516C104.518 1.06711 104.515 1.06711 104.509 1.06906L68.8093 16.8304C68.7528 16.7231 68.6865 16.6237 68.626 16.5184C68.5753 16.4307 68.5227 16.3468 68.47 16.261C68.158 15.7521 67.8168 15.2665 67.4327 14.8122C67.3878 14.7596 67.3391 14.7128 67.2942 14.6601C66.8906 14.1999 66.4577 13.7651 65.9878 13.3712C65.9741 13.3615 65.9643 13.3478 65.9507 13.3381C65.4788 12.9461 64.9679 12.6029 64.4395 12.287C64.3654 12.2441 64.2952 12.1954 64.2211 12.1544C63.7083 11.8659 63.1681 11.6202 62.6124 11.4096C62.511 11.3706 62.4116 11.3335 62.3082 11.2984C61.7486 11.1054 61.1734 10.9513 60.5786 10.846C60.5338 10.8382 60.4928 10.8207 60.448 10.8129V4.80124C60.448 3.72292 59.5764 2.8513 58.4981 2.8513C57.4197 2.8513 56.5481 3.72292 56.5481 4.80124V10.8265C51.024 11.7586 46.7984 16.5632 46.7984 22.3507C46.7984 23.4543 46.9622 24.517 47.2489 25.529L10.9762 40.0385C10.9703 40.0405 10.9664 40.0463 10.9606 40.0483C10.7714 40.1263 10.6096 40.2491 10.4556 40.3778C10.4146 40.411 10.36 40.4305 10.323 40.4675C10.2157 40.5747 10.1475 40.7151 10.0656 40.8458C10.0149 40.9277 9.94272 40.9959 9.90372 41.0856C9.87837 41.1422 9.88227 41.2104 9.86277 41.2709C9.80427 41.4542 9.75163 41.6394 9.74968 41.8344C9.75358 41.8383 9.74968 41.8442 9.74968 41.85V49.5698L1.5814 63.7205C0.629829 65.3701 0.130646 67.1641 0.0370488 68.9736C0.029249 69.034 0 69.0867 0 69.1491C0 69.1803 0.0155995 69.2076 0.0175494 69.2388C-0.0428986 71.3525 0.467984 73.478 1.57945 75.4064C3.69318 79.0645 7.47605 81.2485 11.6996 81.2485C15.9232 81.2485 19.706 79.0645 21.8178 75.4064C22.9312 73.478 23.4402 71.3525 23.3797 69.2388C23.3836 69.2076 23.3992 69.1803 23.3992 69.1491C23.3992 69.0867 23.37 69.034 23.3641 68.9736C23.2705 67.166 22.7713 65.3701 21.8198 63.7205L13.6495 49.5698V43.1701L48.9278 29.0584C49.4679 29.8248 50.0977 30.5228 50.8017 31.139C50.8075 31.1449 50.8134 31.1488 50.8192 31.1546C51.4939 31.7435 52.231 32.2602 53.0265 32.6834C53.126 32.736 53.2313 32.7809 53.3327 32.8316C53.6096 32.9681 53.8884 33.0967 54.177 33.2118C54.3271 33.2722 54.4773 33.3249 54.6294 33.3775C54.8848 33.4672 55.1442 33.5491 55.4094 33.6213C55.5692 33.6642 55.7272 33.7071 55.889 33.7441C56.1074 33.7948 56.3278 33.8338 56.5501 33.8728V80.8468H44.8505V90.5964C35.1729 90.5964 27.301 98.4683 27.301 108.146V110.096H89.699V108.146C89.699 98.4683 81.8271 90.5964 72.1495 90.5964V80.8468H60.4499V33.8884C60.4948 33.8806 60.5357 33.8631 60.5806 33.8533C61.1734 33.7461 61.7505 33.594 62.3102 33.4009C62.4135 33.3658 62.513 33.3288 62.6144 33.2898C63.172 33.0792 63.7122 32.8335 64.225 32.5449C64.2991 32.504 64.3693 32.4572 64.4415 32.4143C64.9718 32.1003 65.4827 31.7552 65.9546 31.3633C65.9683 31.3535 65.978 31.3399 65.9917 31.3301C66.4616 30.9362 66.8945 30.5033 67.2981 30.0412C67.343 29.9886 67.3917 29.9418 67.4366 29.8891C67.8187 29.4348 68.1619 28.9492 68.4739 28.4403C68.5266 28.3545 68.5792 28.2707 68.6299 28.1829C68.9244 27.6759 69.1778 27.1436 69.3943 26.5918C69.4313 26.4962 69.4664 26.3987 69.5015 26.3012C69.7063 25.7338 69.874 25.1508 69.989 24.5482C70.0046 24.4722 70.0105 24.3922 70.0241 24.3142C70.1275 23.6747 70.1977 23.0214 70.1977 22.3507C70.1977 21.7364 70.1353 21.1378 70.0436 20.5489L103.347 5.84445V10.1714L95.1783 24.3201C93.0665 27.9801 93.0665 32.348 95.1783 36.0061C97.2901 39.6641 101.073 41.8481 105.296 41.8481C109.52 41.8481 113.303 39.6641 115.415 36.0061C117.526 32.348 117.526 27.9821 115.415 24.322ZM11.6996 77.3486C8.88585 77.3486 6.36459 75.8939 4.95868 73.4565C4.5258 72.7077 4.24111 71.9102 4.07536 71.099H19.3239C19.1581 71.9102 18.8734 72.7077 18.4405 73.4565C17.0346 75.8939 14.5134 77.3486 11.6996 77.3486ZM19.1055 67.1992H4.29376C4.4634 66.6766 4.67399 66.1618 4.95868 65.6704L11.6996 53.9903L18.4405 65.6685C18.7252 66.1618 18.9358 66.6766 19.1055 67.1992ZM85.6587 106.198H31.3374C32.2851 99.5915 37.9828 94.4983 44.8485 94.4983H72.1476C79.0133 94.4983 84.7091 99.5915 85.6587 106.198ZM68.2477 90.5984H48.7484V84.7486H68.2477V90.5984ZM58.4981 14.5509C61.7037 14.5509 64.4571 16.495 65.6563 19.2659L65.8942 20.0185C66.0209 20.4222 66.1106 20.7907 66.1769 21.1495C66.2373 21.5434 66.2978 21.9392 66.2978 22.3507C66.2978 26.6522 62.7996 30.1504 58.4981 30.1504C58.0203 30.1504 57.5582 30.0919 57.1038 30.01C56.9752 29.9866 56.8465 29.9574 56.7197 29.9281C56.3687 29.8462 56.0255 29.737 55.694 29.6083C55.5926 29.5693 55.4893 29.5401 55.3899 29.4972C55.0096 29.3314 54.6489 29.1286 54.3018 28.9063C54.1341 28.7971 53.9762 28.6743 53.8182 28.5534C53.6525 28.4286 53.4945 28.296 53.3385 28.1576C53.1455 27.9821 52.9524 27.8066 52.775 27.6116C52.7418 27.5745 52.7126 27.5336 52.6814 27.4965C52.231 26.9798 51.8371 26.4026 51.5231 25.763L51.2677 25.2424C50.9089 24.3454 50.6983 23.3724 50.6983 22.3507C50.6983 18.0491 54.1965 14.5509 58.4981 14.5509ZM105.296 14.5938L112.037 26.27C112.394 26.8882 112.658 27.5355 112.835 28.1985H97.758C97.9335 27.5355 98.1987 26.8882 98.5556 26.27L105.296 14.5938ZM105.296 37.9501C102.483 37.9501 99.9615 36.4955 98.5556 34.0581C98.1929 33.4321 97.9277 32.7731 97.7522 32.1003H112.841C112.665 32.7731 112.4 33.4321 112.037 34.0581C110.632 36.4955 108.11 37.9501 105.296 37.9501Z" fill="#055EB0"/>
</svg>
