<svg width="38" height="38" viewBox="0 0 38 38" fill="none" xmlns="http://www.w3.org/2000/svg">
<path d="M35.1171 17.7141C35.8748 13.2671 34.0102 8.73972 31.0549 5.61775C28.1076 2.50425 23.814 0.533415 19.541 1.69391L20.2387 4.24206C23.2597 3.42157 26.5994 4.76125 29.1253 7.42956C31.6431 10.0894 33.0915 13.8152 32.5025 17.2724L35.1171 17.7141Z" fill="#0B4173"/>
<path fill-rule="evenodd" clip-rule="evenodd" d="M0 9.95793C0 5.7329 3.43867 2.30762 7.68076 2.30762C8.50918 2.30762 9.30947 2.43872 10.0604 2.68223C11.0206 2.99364 11.5846 3.82386 11.7294 4.65143L13.0346 12.1071L13.2611 13.6954C13.3782 14.5124 13.112 15.456 12.3248 16.0519C11.5086 16.6697 10.5631 17.1295 9.53515 17.3834C10.4759 19.5523 11.8207 21.5249 13.4991 23.1966C15.1783 24.8693 17.16 26.2092 19.3387 27.1463C19.5935 26.1229 20.0546 25.1816 20.6744 24.3689C21.2728 23.5844 22.2205 23.3189 23.0412 23.4356L24.6338 23.6621L32.1217 24.9613C32.9528 25.1056 33.7868 25.6676 34.0993 26.6244C34.3433 27.3717 34.4748 28.1682 34.4748 28.9927C34.4748 33.2178 31.0361 36.6431 26.7939 36.6431C26.4533 36.6431 26.1173 36.6209 25.7872 36.5778C24.2486 36.5202 22.7202 36.3305 21.2189 36.012C19.6275 35.6743 18.0664 35.1919 16.5559 34.5687C13.3111 33.23 10.3627 31.2677 7.87916 28.794C5.39566 26.3202 3.42563 23.3835 2.08157 20.1515C1.45589 18.6469 0.971558 17.0921 0.632567 15.5069C0.312448 14.01 0.121933 12.4861 0.0643766 10.9518C0.0218575 10.6259 0 10.2942 0 9.95793ZM24.1989 26.2677L22.7183 26.0576C22.3322 26.5885 22.0487 27.1965 21.8955 27.8533C21.7382 28.528 21.3204 29.1178 20.7525 29.4836C20.168 29.8598 19.3727 30.0214 18.5825 29.6954C15.9801 28.6218 13.6155 27.0481 11.6238 25.0642C9.63201 23.0803 8.05206 20.725 6.97413 18.133C6.6473 17.3471 6.80934 16.5559 7.18671 15.9746C7.55349 15.4095 8.14503 14.9941 8.82189 14.8378C9.48278 14.6853 10.0945 14.4025 10.6284 14.0169L10.4096 12.4896L9.23499 5.77992L9.12623 5.15845C8.6699 5.02234 8.18507 4.94879 7.68076 4.94879C5.34546 4.94879 3.38181 6.53443 2.816 8.68394C2.70893 9.09071 2.65191 9.51768 2.65191 9.95793C2.65191 10.196 2.6685 10.4295 2.7004 10.6575L2.70989 10.7253L2.71228 10.7937C2.76139 12.1959 2.93378 13.5889 3.22631 14.9567C3.53169 16.3847 3.968 17.7854 4.53165 19.1408C5.74247 22.0524 7.51717 24.698 9.75445 26.9265C11.9917 29.1549 14.6478 30.9226 17.5709 32.1287C18.9316 32.69 20.3379 33.1247 21.7716 33.4288C23.1435 33.7199 24.5407 33.8916 25.9471 33.9406L26.0166 33.943L26.0854 33.9527C26.3162 33.9851 26.5528 34.0019 26.7939 34.0019C29.5712 34.0019 31.8228 31.7594 31.8228 28.9927C31.8228 28.4908 31.7491 28.0082 31.6127 27.554L24.1989 26.2677Z" fill="#0B4173"/>
<path d="M27.2429 10.1573C28.9487 11.9543 29.8402 14.6093 29.122 17.1868L26.5667 16.4804C27.001 14.922 26.4797 13.1979 25.3158 11.9718C24.1706 10.7654 22.4984 10.1399 20.697 10.636L19.9902 8.09032C22.8641 7.29886 25.5184 8.34064 27.2429 10.1573Z" fill="#0B4173"/>
</svg>
