<svg width="40" height="40" viewBox="0 0 40 40" fill="none" xmlns="http://www.w3.org/2000/svg">
<path d="M30.1765 10.8462C30.1765 5.22447 25.62 0.667969 19.9975 0.667969C14.375 0.667969 9.81934 5.22447 9.81934 10.8462C9.81934 18.9005 19.9975 30.8182 19.9975 30.8182C19.9975 30.8182 30.1765 18.859 30.1765 10.8462ZM14.9779 10.2384C14.9779 7.46534 17.2261 5.21797 19.9983 5.21797C22.7706 5.21797 25.0188 7.46534 25.0188 10.2384C25.0188 13.0115 22.7706 15.2588 19.9983 15.2588C17.2261 15.2588 14.9779 13.0115 14.9779 10.2384Z" fill="#F3C800"/>
<path d="M19.9977 12.7063C21.3609 12.7063 22.466 11.6012 22.466 10.2379C22.466 8.87466 21.3609 7.76953 19.9977 7.76953C18.6344 7.76953 17.5293 8.87466 17.5293 10.2379C17.5293 11.6012 18.6344 12.7063 19.9977 12.7063Z" fill="#F3C800"/>
<path d="M25.7525 27.2773C24.9229 28.4758 24.1445 29.5207 23.4961 30.3592C29.9279 30.7451 34.1431 32.1337 35.7113 33.1672C33.8742 34.3786 28.415 36.0816 19.9991 36.0816C11.5833 36.0816 6.12407 34.3778 4.28701 33.1672C5.85514 32.1345 10.0671 30.7467 16.4924 30.36C15.8424 29.5215 15.0632 28.4774 14.2328 27.279C6.31826 28.0582 0.569824 30.3998 0.569824 33.1663C0.569824 36.5707 9.26926 39.3316 19.9991 39.3316C30.7298 39.3316 39.4276 36.5715 39.4276 33.1663C39.4293 30.3982 33.6743 28.0557 25.7525 27.2773Z" fill="#F3C800"/>
</svg>
