<svg width="37" height="30" viewBox="0 0 37 30" fill="none" xmlns="http://www.w3.org/2000/svg">
<path d="M36.0373 0.422852H0.495967C0.296501 0.422852 0.133301 0.570729 0.133301 0.751469V3.38041C0.133301 3.56115 0.296501 3.70902 0.495967 3.70902H36.0373C36.2368 3.70902 36.4 3.56115 36.4 3.38041V0.751469C36.4 0.570729 36.2368 0.422852 36.0373 0.422852ZM36.0373 26.055H0.495967C0.296501 26.055 0.133301 26.2029 0.133301 26.3836V29.0126C0.133301 29.1933 0.296501 29.3412 0.495967 29.3412H36.0373C36.2368 29.3412 36.4 29.1933 36.4 29.0126V26.3836C36.4 26.2029 36.2368 26.055 36.0373 26.055ZM36.0373 13.2389H0.495967C0.296501 13.2389 0.133301 13.3868 0.133301 13.5675V16.1965C0.133301 16.3772 0.296501 16.5251 0.495967 16.5251H36.0373C36.2368 16.5251 36.4 16.3772 36.4 16.1965V13.5675C36.4 13.3868 36.2368 13.2389 36.0373 13.2389Z" fill="white" fill-opacity="0.85"/>
</svg>
