<svg width="35" height="40" viewBox="0 0 35 40" fill="none" xmlns="http://www.w3.org/2000/svg">
<rect x="0.911133" y="0.989136" width="3.84464" height="38.4464" fill="#F3C800"/>
<rect x="2.19238" y="3.55237" width="32.0387" height="21.7863" fill="#F3C800"/>
<path d="M9.59632 18.9891V9.97313H11.8223L14.2723 14.9711L16.7083 9.97313H18.9203V18.9891H16.6663V13.8091L14.8883 17.4491H13.6423L11.8503 13.8091V18.9891H9.59632ZM24.8364 19.1291C23.2778 19.1291 22.0924 18.7371 21.2804 17.9531C20.4684 17.1598 20.0624 16.0445 20.0624 14.6071C20.0624 13.1045 20.4778 11.9331 21.3084 11.0931C22.1391 10.2531 23.3618 9.83314 24.9764 9.83314C25.5271 9.83314 26.0218 9.8658 26.4604 9.93114C26.9084 9.99647 27.3331 10.0945 27.7344 10.2251V12.1571C27.3331 12.0078 26.9131 11.9051 26.4744 11.8491C26.0451 11.7931 25.6018 11.7651 25.1444 11.7651C24.1738 11.7651 23.4644 11.9985 23.0164 12.4651C22.5778 12.9225 22.3584 13.6365 22.3584 14.6071C22.3584 15.4938 22.5684 16.1518 22.9884 16.5811C23.4084 17.0011 24.0291 17.2111 24.8504 17.2111C25.3918 17.2111 25.8958 17.1365 26.3624 16.9871V15.2791H24.4164V13.8651H28.2524V18.3311C27.9351 18.5365 27.4918 18.7231 26.9224 18.8911C26.3624 19.0498 25.6671 19.1291 24.8364 19.1291Z" fill="#D74848"/>
</svg>
