<svg width="34" height="40" viewBox="0 0 34 40" fill="none" xmlns="http://www.w3.org/2000/svg">
<rect x="0.26123" y="0.83374" width="3.84464" height="38.4464" fill="#F3C800"/>
<rect x="1.54248" y="3.39673" width="32.0387" height="21.7863" fill="#F3C800"/>
<path d="M8.94642 18.8337V9.81774H11.1724L13.6224 14.8157L16.0584 9.81774H18.2704V18.8337H16.0164V13.6537L14.2384 17.2937H12.9924L11.2004 13.6537V18.8337H8.94642ZM22.5625 18.9737C21.9652 18.9737 21.4052 18.9271 20.8825 18.8337C20.3692 18.7497 19.9258 18.6237 19.5525 18.4557V16.5377C19.9632 16.7151 20.4158 16.8597 20.9105 16.9717C21.4145 17.0837 21.8905 17.1397 22.3385 17.1397C22.8985 17.1397 23.3138 17.0884 23.5845 16.9857C23.8645 16.8831 24.0045 16.6591 24.0045 16.3137C24.0045 16.0804 23.9345 15.8937 23.7945 15.7537C23.6638 15.6137 23.4445 15.4924 23.1365 15.3897C22.8378 15.2777 22.4272 15.1471 21.9045 14.9977C21.2885 14.8111 20.7985 14.6057 20.4345 14.3817C20.0705 14.1484 19.8092 13.8684 19.6505 13.5417C19.4918 13.2151 19.4125 12.8137 19.4125 12.3377C19.4125 11.4791 19.7205 10.8211 20.3365 10.3637C20.9525 9.90641 21.8625 9.67774 23.0665 9.67774C23.5892 9.67774 24.0978 9.71974 24.5925 9.80374C25.0872 9.87841 25.4885 9.96707 25.7965 10.0697V12.0017C25.3952 11.8431 24.9892 11.7264 24.5785 11.6517C24.1772 11.5771 23.7852 11.5397 23.4025 11.5397C22.8985 11.5397 22.4878 11.5864 22.1705 11.6797C21.8625 11.7731 21.7085 11.9877 21.7085 12.3237C21.7085 12.5197 21.7645 12.6784 21.8765 12.7997C21.9885 12.9117 22.1798 13.0144 22.4505 13.1077C22.7305 13.2011 23.1085 13.3131 23.5845 13.4437C24.3218 13.6397 24.8865 13.8777 25.2785 14.1577C25.6705 14.4284 25.9412 14.7457 26.0905 15.1097C26.2398 15.4644 26.3145 15.8657 26.3145 16.3137C26.3145 17.1071 26.0065 17.7511 25.3905 18.2457C24.7745 18.7311 23.8318 18.9737 22.5625 18.9737Z" fill="#D74848"/>
</svg>
