<svg width="35" height="40" viewBox="0 0 35 40" fill="none" xmlns="http://www.w3.org/2000/svg">
<rect x="0.921387" y="0.611084" width="3.84464" height="38.4464" fill="#F3C800"/>
<rect x="2.20264" y="3.17419" width="32.0387" height="21.7863" fill="#F3C800"/>
<path d="M10.714 19V9.984H15.152C15.8707 9.984 16.4633 10.1287 16.93 10.418C17.3967 10.698 17.742 11.0807 17.966 11.566C18.1993 12.0513 18.316 12.5973 18.316 13.204C18.316 13.82 18.1853 14.366 17.924 14.842C17.6627 15.318 17.2893 15.6913 16.804 15.962C16.328 16.2233 15.7587 16.354 15.096 16.354H12.968V19H10.714ZM12.968 14.618H14.592C15.068 14.618 15.4227 14.4873 15.656 14.226C15.8987 13.9647 16.02 13.6193 16.02 13.19C16.02 12.7233 15.908 12.364 15.684 12.112C15.4693 11.8507 15.1287 11.72 14.662 11.72H12.968V14.618ZM17.8031 19L21.2471 9.984H23.6831L27.1271 19H24.7751L23.9631 16.956H20.9531L20.1551 19H17.8031ZM21.2611 15.29H23.6551L22.4511 12.154L21.2611 15.29Z" fill="#D74848"/>
</svg>
