<svg width="34" height="39" viewBox="0 0 34 39" fill="none" xmlns="http://www.w3.org/2000/svg">
<rect x="0.619629" y="0.145264" width="3.84464" height="38.4464" fill="#F3C800"/>
<rect x="1.90088" y="2.70831" width="32.0387" height="21.7863" fill="#F3C800"/>
<path d="M9.714 18V8.984H14.152C14.8707 8.984 15.4633 9.12867 15.93 9.418C16.3967 9.698 16.742 10.0807 16.966 10.566C17.1993 11.0513 17.316 11.5973 17.316 12.204C17.316 12.82 17.1853 13.366 16.924 13.842C16.6627 14.318 16.2893 14.6913 15.804 14.962C15.328 15.2233 14.7587 15.354 14.096 15.354H11.968V18H9.714ZM11.968 13.618H13.592C14.068 13.618 14.4227 13.4873 14.656 13.226C14.8987 12.9647 15.02 12.6193 15.02 12.19C15.02 11.7233 14.908 11.364 14.684 11.112C14.4693 10.8507 14.1287 10.72 13.662 10.72H11.968V13.618ZM18.2042 18V8.984H22.9642C23.8696 8.984 24.5509 9.19867 25.0082 9.628C25.4749 10.0573 25.7082 10.664 25.7082 11.448C25.7082 11.924 25.6149 12.3253 25.4282 12.652C25.2509 12.9693 25.0129 13.2167 24.7142 13.394C25.1249 13.5433 25.4469 13.7627 25.6802 14.052C25.9136 14.3413 26.0302 14.7753 26.0302 15.354C26.0302 16.2127 25.7782 16.8707 25.2742 17.328C24.7702 17.776 24.0469 18 23.1042 18H18.2042ZM20.4582 12.652H22.2922C22.6842 12.652 22.9689 12.5633 23.1462 12.386C23.3236 12.2087 23.4122 11.9613 23.4122 11.644C23.4122 11.2987 23.3236 11.042 23.1462 10.874C22.9689 10.6967 22.6469 10.608 22.1802 10.608H20.4582V12.652ZM20.4582 16.39H22.5162C22.9269 16.39 23.2302 16.306 23.4262 16.138C23.6316 15.97 23.7342 15.6713 23.7342 15.242C23.7342 14.8967 23.6362 14.64 23.4402 14.472C23.2442 14.2947 22.9082 14.206 22.4322 14.206H20.4582V16.39Z" fill="#D74848"/>
</svg>
