<svg width="34" height="40" viewBox="0 0 34 40" fill="none" xmlns="http://www.w3.org/2000/svg">
<rect x="0.0078125" y="0.960693" width="3.84464" height="38.4464" fill="#F3C800"/>
<rect x="1.28955" y="3.52393" width="32.0387" height="21.7863" fill="#F3C800"/>
<path d="M11.693 18.9607V9.94469H16.131C16.8497 9.94469 17.4423 10.0894 17.909 10.3787C18.3757 10.6587 18.721 11.0414 18.945 11.5267C19.1783 12.012 19.295 12.558 19.295 13.1647C19.295 13.7807 19.1643 14.3267 18.903 14.8027C18.6417 15.2787 18.2683 15.652 17.783 15.9227C17.307 16.184 16.7377 16.3147 16.075 16.3147H13.947V18.9607H11.693ZM13.947 14.5787H15.571C16.047 14.5787 16.4017 14.448 16.635 14.1867C16.8777 13.9254 16.999 13.58 16.999 13.1507C16.999 12.684 16.887 12.3247 16.663 12.0727C16.4483 11.8114 16.1077 11.6807 15.641 11.6807H13.947V14.5787ZM20.1832 18.9607V9.94469H22.4372V18.9607H20.1832Z" fill="#D74848"/>
</svg>
