<svg width="34" height="39" viewBox="0 0 34 39" fill="none" xmlns="http://www.w3.org/2000/svg">
<rect x="0.582031" y="0.250977" width="3.84464" height="38.4464" fill="#F3C800"/>
<rect x="1.86328" y="2.81396" width="32.0387" height="21.7863" fill="#F3C800"/>
<path d="M9.714 18V8.984H14.152C14.8707 8.984 15.4633 9.12867 15.93 9.418C16.3967 9.698 16.742 10.0807 16.966 10.566C17.1993 11.0513 17.316 11.5973 17.316 12.204C17.316 12.82 17.1853 13.366 16.924 13.842C16.6627 14.318 16.2893 14.6913 15.804 14.962C15.328 15.2233 14.7587 15.354 14.096 15.354H11.968V18H9.714ZM11.968 13.618H13.592C14.068 13.618 14.4227 13.4873 14.656 13.226C14.8987 12.9647 15.02 12.6193 15.02 12.19C15.02 11.7233 14.908 11.364 14.684 11.112C14.4693 10.8507 14.1287 10.72 13.662 10.72H11.968V13.618ZM18.2042 18V8.984H22.7122C23.7762 8.984 24.5602 9.264 25.0642 9.824C25.5682 10.384 25.8202 11.1353 25.8202 12.078C25.8202 12.6847 25.6662 13.2167 25.3582 13.674C25.0502 14.1313 24.6302 14.472 24.0982 14.696C24.2289 14.7987 24.3316 14.9153 24.4062 15.046C24.4902 15.1673 24.5789 15.34 24.6722 15.564L25.7362 18H23.3842L22.3762 15.704C22.2922 15.508 22.1849 15.368 22.0542 15.284C21.9236 15.1907 21.7369 15.144 21.4942 15.144H20.4582V18H18.2042ZM20.4582 13.408H22.1242C22.5629 13.408 22.9036 13.3007 23.1462 13.086C23.3982 12.862 23.5242 12.526 23.5242 12.078C23.5242 11.1727 23.0902 10.72 22.2222 10.72H20.4582V13.408Z" fill="#D74848"/>
</svg>
