<svg width="34" height="39" viewBox="0 0 34 39" fill="none" xmlns="http://www.w3.org/2000/svg">
<rect x="0.571289" y="0.338501" width="3.84464" height="38.4464" fill="#F3C800"/>
<rect x="1.85254" y="2.90137" width="32.0387" height="21.7863" fill="#F3C800"/>
<path d="M11.2565 18.3385V9.3225H15.7645C16.8285 9.3225 17.6125 9.6025 18.1165 10.1625C18.6205 10.7225 18.8725 11.4738 18.8725 12.4165C18.8725 13.0232 18.7185 13.5552 18.4105 14.0125C18.1025 14.4698 17.6825 14.8105 17.1505 15.0345C17.2811 15.1372 17.3838 15.2538 17.4585 15.3845C17.5425 15.5058 17.6311 15.6785 17.7245 15.9025L18.7885 18.3385H16.4365L15.4285 16.0425C15.3445 15.8465 15.2371 15.7065 15.1065 15.6225C14.9758 15.5292 14.7891 15.4825 14.5465 15.4825H13.5105V18.3385H11.2565ZM13.5105 13.7465H15.1765C15.6151 13.7465 15.9558 13.6392 16.1985 13.4245C16.4505 13.2005 16.5765 12.8645 16.5765 12.4165C16.5765 11.5112 16.1425 11.0585 15.2745 11.0585H13.5105V13.7465ZM21.2587 18.4785C20.876 18.4785 20.5074 18.4505 20.1527 18.3945C19.8074 18.3478 19.4854 18.2685 19.1867 18.1565V16.2665C19.4107 16.3598 19.6627 16.4345 19.9427 16.4905C20.2227 16.5372 20.5074 16.5605 20.7967 16.5605C21.3474 16.5605 21.7347 16.4532 21.9587 16.2385C22.192 16.0145 22.3087 15.6458 22.3087 15.1325V9.3225H24.5627V15.5525C24.5627 16.4952 24.2827 17.2185 23.7227 17.7225C23.1627 18.2265 22.3414 18.4785 21.2587 18.4785Z" fill="#D74848"/>
</svg>
