<svg width="34" height="39" viewBox="0 0 34 39" fill="none" xmlns="http://www.w3.org/2000/svg">
<rect x="0.329102" y="0.202148" width="3.84464" height="38.4464" fill="#F3C800"/>
<rect x="1.61035" y="2.76526" width="32.0387" height="21.7863" fill="#F3C800"/>
<path d="M10.0143 18.2021V9.18615H14.5223C15.5863 9.18615 16.3703 9.46615 16.8743 10.0261C17.3783 10.5861 17.6303 11.3375 17.6303 12.2801C17.6303 12.8868 17.4763 13.4188 17.1683 13.8761C16.8603 14.3335 16.4403 14.6741 15.9083 14.8981C16.039 15.0008 16.1416 15.1175 16.2163 15.2481C16.3003 15.3695 16.389 15.5421 16.4823 15.7661L17.5463 18.2021H15.1943L14.1863 15.9061C14.1023 15.7101 13.995 15.5701 13.8643 15.4861C13.7336 15.3928 13.547 15.3461 13.3043 15.3461H12.2683V18.2021H10.0143ZM12.2683 13.6101H13.9343C14.373 13.6101 14.7136 13.5028 14.9563 13.2881C15.2083 13.0641 15.3343 12.7281 15.3343 12.2801C15.3343 11.3748 14.9003 10.9221 14.0323 10.9221H12.2683V13.6101ZM21.648 18.3421C21.0506 18.3421 20.4906 18.2955 19.968 18.2021C19.4546 18.1181 19.0113 17.9921 18.638 17.8241V15.9061C19.0486 16.0835 19.5013 16.2281 19.996 16.3401C20.5 16.4521 20.976 16.5081 21.424 16.5081C21.984 16.5081 22.3993 16.4568 22.67 16.3541C22.95 16.2515 23.09 16.0275 23.09 15.6821C23.09 15.4488 23.02 15.2621 22.88 15.1221C22.7493 14.9821 22.53 14.8608 22.222 14.7581C21.9233 14.6461 21.5126 14.5155 20.99 14.3661C20.374 14.1795 19.884 13.9741 19.52 13.7501C19.156 13.5168 18.8946 13.2368 18.736 12.9101C18.5773 12.5835 18.498 12.1821 18.498 11.7061C18.498 10.8475 18.806 10.1895 19.422 9.73215C20.038 9.27481 20.948 9.04615 22.152 9.04615C22.6746 9.04615 23.1833 9.08815 23.678 9.17215C24.1726 9.24681 24.574 9.33548 24.882 9.43815V11.3701C24.4806 11.2115 24.0746 11.0948 23.664 11.0201C23.2626 10.9455 22.8706 10.9081 22.488 10.9081C21.984 10.9081 21.5733 10.9548 21.256 11.0481C20.948 11.1415 20.794 11.3561 20.794 11.6921C20.794 11.8881 20.85 12.0468 20.962 12.1681C21.074 12.2801 21.2653 12.3828 21.536 12.4761C21.816 12.5695 22.194 12.6815 22.67 12.8121C23.4073 13.0081 23.972 13.2461 24.364 13.5261C24.756 13.7968 25.0266 14.1141 25.176 14.4781C25.3253 14.8328 25.4 15.2341 25.4 15.6821C25.4 16.4755 25.092 17.1195 24.476 17.6141C23.86 18.0995 22.9173 18.3421 21.648 18.3421Z" fill="#D74848"/>
</svg>
