<svg width="34" height="39" viewBox="0 0 34 39" fill="none" xmlns="http://www.w3.org/2000/svg">
<rect x="0.211914" y="0.444824" width="3.84464" height="38.4464" fill="#F3C800"/>
<rect x="1.49316" y="3.0083" width="32.0387" height="21.7863" fill="#F3C800"/>
<path d="M12.7671 18.5848C12.1698 18.5848 11.6098 18.5382 11.0871 18.4448C10.5738 18.3608 10.1304 18.2348 9.75711 18.0668V16.1488C10.1678 16.3262 10.6204 16.4708 11.1151 16.5828C11.6191 16.6948 12.0951 16.7508 12.5431 16.7508C13.1031 16.7508 13.5184 16.6995 13.7891 16.5968C14.0691 16.4942 14.2091 16.2702 14.2091 15.9248C14.2091 15.6915 14.1391 15.5048 13.9991 15.3648C13.8684 15.2248 13.6491 15.1035 13.3411 15.0008C13.0424 14.8888 12.6318 14.7582 12.1091 14.6088C11.4931 14.4222 11.0031 14.2168 10.6391 13.9928C10.2751 13.7595 10.0138 13.4795 9.85511 13.1528C9.69644 12.8262 9.61711 12.4248 9.61711 11.9488C9.61711 11.0902 9.92511 10.4322 10.5411 9.97482C11.1571 9.51749 12.0671 9.28882 13.2711 9.28882C13.7938 9.28882 14.3024 9.33082 14.7971 9.41482C15.2918 9.48949 15.6931 9.57816 16.0011 9.68082V11.6128C15.5998 11.4542 15.1938 11.3375 14.7831 11.2628C14.3818 11.1882 13.9898 11.1508 13.6071 11.1508C13.1031 11.1508 12.6924 11.1975 12.3751 11.2908C12.0671 11.3842 11.9131 11.5988 11.9131 11.9348C11.9131 12.1308 11.9691 12.2895 12.0811 12.4108C12.1931 12.5228 12.3844 12.6255 12.6551 12.7188C12.9351 12.8122 13.3131 12.9242 13.7891 13.0548C14.5264 13.2508 15.0911 13.4888 15.4831 13.7688C15.8751 14.0395 16.1458 14.3568 16.2951 14.7208C16.4444 15.0755 16.5191 15.4768 16.5191 15.9248C16.5191 16.7182 16.2111 17.3622 15.5951 17.8568C14.9791 18.3422 14.0364 18.5848 12.7671 18.5848ZM22.2267 18.5848C20.6494 18.5848 19.4454 18.1835 18.6147 17.3808C17.7934 16.5688 17.3827 15.4442 17.3827 14.0068C17.3827 12.5042 17.7841 11.3422 18.5867 10.5208C19.3987 9.69949 20.6074 9.28882 22.2127 9.28882C22.7634 9.28882 23.2534 9.33082 23.6827 9.41482C24.1214 9.49882 24.5414 9.61082 24.9427 9.75082V11.7248C24.1307 11.3888 23.2767 11.2208 22.3807 11.2208C21.4474 11.2208 20.7614 11.4448 20.3227 11.8928C19.8934 12.3408 19.6787 13.0455 19.6787 14.0068C19.6787 14.9215 19.9074 15.5935 20.3647 16.0228C20.8221 16.4522 21.5034 16.6668 22.4087 16.6668C22.8474 16.6668 23.2814 16.6295 23.7107 16.5548C24.1401 16.4708 24.5554 16.3448 24.9567 16.1768V18.1648C24.5647 18.2955 24.1494 18.3982 23.7107 18.4728C23.2721 18.5475 22.7774 18.5848 22.2267 18.5848Z" fill="#D74848"/>
</svg>
