<svg width="34" height="39" viewBox="0 0 34 39" fill="none" xmlns="http://www.w3.org/2000/svg">
<rect x="0.648926" y="0.310181" width="3.84464" height="38.4464" fill="#F3C800"/>
<rect x="1.93018" y="2.87305" width="32.0387" height="21.7863" fill="#F3C800"/>
<path d="M12.584 18.14C11.9867 18.14 11.4267 18.0933 10.904 18C10.3907 17.916 9.94733 17.79 9.574 17.622V15.704C9.98467 15.8813 10.4373 16.026 10.932 16.138C11.436 16.25 11.912 16.306 12.36 16.306C12.92 16.306 13.3353 16.2547 13.606 16.152C13.886 16.0493 14.026 15.8253 14.026 15.48C14.026 15.2467 13.956 15.06 13.816 14.92C13.6853 14.78 13.466 14.6587 13.158 14.556C12.8593 14.444 12.4487 14.3133 11.926 14.164C11.31 13.9773 10.82 13.772 10.456 13.548C10.092 13.3147 9.83067 13.0347 9.672 12.708C9.51333 12.3813 9.434 11.98 9.434 11.504C9.434 10.6453 9.742 9.98733 10.358 9.53C10.974 9.07267 11.884 8.844 13.088 8.844C13.6107 8.844 14.1193 8.886 14.614 8.97C15.1087 9.04467 15.51 9.13333 15.818 9.236V11.168C15.4167 11.0093 15.0107 10.8927 14.6 10.818C14.1987 10.7433 13.8067 10.706 13.424 10.706C12.92 10.706 12.5093 10.7527 12.192 10.846C11.884 10.9393 11.73 11.154 11.73 11.49C11.73 11.686 11.786 11.8447 11.898 11.966C12.01 12.078 12.2013 12.1807 12.472 12.274C12.752 12.3673 13.13 12.4793 13.606 12.61C14.3433 12.806 14.908 13.044 15.3 13.324C15.692 13.5947 15.9627 13.912 16.112 14.276C16.2613 14.6307 16.336 15.032 16.336 15.48C16.336 16.2733 16.028 16.9173 15.412 17.412C14.796 17.8973 13.8533 18.14 12.584 18.14ZM17.4796 18V8.984H24.1296V10.72H19.7336V12.61H23.6116V14.374H19.7336V16.264H24.1296V18H17.4796Z" fill="#D74848"/>
</svg>
