<svg width="30" height="30" viewBox="0 0 30 30" fill="none" xmlns="http://www.w3.org/2000/svg">
<path d="M29.2006 27.2366L19.9256 17.9616C21.3648 16.1009 22.1434 13.8259 22.1434 11.433C22.1434 8.56875 21.0256 5.88304 19.0041 3.85804C16.9827 1.83304 14.2898 0.71875 11.4291 0.71875C8.56841 0.71875 5.87556 1.83661 3.85413 3.85804C1.82913 5.87946 0.714844 8.56875 0.714844 11.433C0.714844 14.2937 1.8327 16.9866 3.85413 19.008C5.87556 21.033 8.56484 22.1473 11.4291 22.1473C13.822 22.1473 16.0934 21.3687 17.9541 19.933L27.2291 29.2045C27.2563 29.2317 27.2886 29.2533 27.3242 29.268C27.3597 29.2827 27.3978 29.2903 27.4363 29.2903C27.4747 29.2903 27.5128 29.2827 27.5484 29.268C27.5839 29.2533 27.6162 29.2317 27.6434 29.2045L29.2006 27.6509C29.2278 27.6237 29.2494 27.5914 29.2641 27.5559C29.2788 27.5203 29.2864 27.4822 29.2864 27.4437C29.2864 27.4053 29.2788 27.3672 29.2641 27.3316C29.2494 27.2961 29.2278 27.2638 29.2006 27.2366V27.2366ZM17.0863 17.0902C15.572 18.6009 13.5648 19.433 11.4291 19.433C9.29341 19.433 7.28627 18.6009 5.77199 17.0902C4.26127 15.5759 3.42913 13.5687 3.42913 11.433C3.42913 9.29732 4.26127 7.28661 5.77199 5.77589C7.28627 4.26518 9.29341 3.43304 11.4291 3.43304C13.5648 3.43304 15.5756 4.26161 17.0863 5.77589C18.597 7.29018 19.4291 9.29732 19.4291 11.433C19.4291 13.5687 18.597 15.5795 17.0863 17.0902Z" fill="#D74848"/>
</svg>
