<svg width="34" height="39" viewBox="0 0 34 39" fill="none" xmlns="http://www.w3.org/2000/svg">
<rect x="0.464844" y="0.338501" width="3.84464" height="38.4464" fill="#F3C800"/>
<rect x="1.74609" y="2.90137" width="32.0387" height="21.7863" fill="#F3C800"/>
<path d="M13.02 18.4785C12.4227 18.4785 11.8627 18.4318 11.34 18.3385C10.8267 18.2545 10.3834 18.1285 10.01 17.9605V16.0425C10.4207 16.2198 10.8734 16.3645 11.368 16.4765C11.872 16.5885 12.348 16.6445 12.796 16.6445C13.356 16.6445 13.7714 16.5932 14.042 16.4905C14.322 16.3878 14.462 16.1638 14.462 15.8185C14.462 15.5852 14.392 15.3985 14.252 15.2585C14.1214 15.1185 13.902 14.9972 13.594 14.8945C13.2954 14.7825 12.8847 14.6518 12.362 14.5025C11.746 14.3158 11.256 14.1105 10.892 13.8865C10.528 13.6532 10.2667 13.3732 10.108 13.0465C9.94937 12.7198 9.87004 12.3185 9.87004 11.8425C9.87004 10.9838 10.178 10.3258 10.794 9.8685C11.41 9.41117 12.32 9.1825 13.524 9.1825C14.0467 9.1825 14.5554 9.2245 15.05 9.3085C15.5447 9.38317 15.946 9.47183 16.254 9.5745V11.5065C15.8527 11.3478 15.4467 11.2312 15.036 11.1565C14.6347 11.0818 14.2427 11.0445 13.86 11.0445C13.356 11.0445 12.9454 11.0912 12.628 11.1845C12.32 11.2778 12.166 11.4925 12.166 11.8285C12.166 12.0245 12.222 12.1832 12.334 12.3045C12.446 12.4165 12.6374 12.5192 12.908 12.6125C13.188 12.7058 13.566 12.8178 14.042 12.9485C14.7794 13.1445 15.344 13.3825 15.736 13.6625C16.128 13.9332 16.3987 14.2505 16.548 14.6145C16.6974 14.9692 16.772 15.3705 16.772 15.8185C16.772 16.6118 16.464 17.2558 15.848 17.7505C15.232 18.2358 14.2894 18.4785 13.02 18.4785ZM17.9157 18.3385V9.3225H22.3537C23.0723 9.3225 23.665 9.46717 24.1317 9.7565C24.5983 10.0365 24.9437 10.4192 25.1677 10.9045C25.401 11.3898 25.5177 11.9358 25.5177 12.5425C25.5177 13.1585 25.387 13.7045 25.1257 14.1805C24.8643 14.6565 24.491 15.0298 24.0057 15.3005C23.5297 15.5618 22.9603 15.6925 22.2977 15.6925H20.1697V18.3385H17.9157ZM20.1697 13.9565H21.7937C22.2697 13.9565 22.6243 13.8258 22.8577 13.5645C23.1003 13.3032 23.2217 12.9578 23.2217 12.5285C23.2217 12.0618 23.1097 11.7025 22.8857 11.4505C22.671 11.1892 22.3303 11.0585 21.8637 11.0585H20.1697V13.9565Z" fill="#D74848"/>
</svg>
