<svg width="57" height="55" viewBox="0 0 57 55" fill="none" xmlns="http://www.w3.org/2000/svg">
<path d="M17.6822 25.3975L17.6802 25.3985C17.6782 25.4005 17.6782 25.4025 17.6782 25.4025C17.5412 25.5415 17.4382 25.7095 17.3542 25.8885C17.3312 25.9335 17.3152 25.9745 17.2972 26.0215C17.2792 26.0675 17.2542 26.1095 17.2402 26.1585L13.2322 40.9845C13.0742 41.5725 13.2422 42.1995 13.6712 42.6305C13.9952 42.9535 14.4292 43.1285 14.8722 43.1285C15.0202 43.1285 15.1712 43.1095 15.3152 43.0685L29.5712 39.2155C29.6652 39.2315 29.7552 39.2705 29.8502 39.2705C30.2862 39.2705 30.7212 39.1045 31.0532 38.7725L54.1392 15.6845C55.3692 14.4535 56.0492 12.8165 56.0492 11.0755C56.0492 9.33455 55.3692 7.69755 54.1392 6.46655L49.9852 2.31255C47.5242 -0.150453 43.2252 -0.146453 40.7682 2.31255L17.6822 25.3975ZM43.1742 4.71555C44.3482 3.53855 46.4042 3.53955 47.5822 4.71655L51.7362 8.86955C52.3262 9.45855 52.6502 10.2415 52.6502 11.0755C52.6502 11.9095 52.3262 12.6915 51.7362 13.2815L50.4862 14.5315L41.9222 5.96855L43.1742 4.71555ZM39.5182 8.37255L48.0822 16.9355L29.8522 35.1665L21.2862 26.6025L39.5182 8.37255ZM20.2852 30.4075L26.4222 36.5455L17.2872 39.0165L19.7562 29.8805L20.2852 30.4075Z" fill="#055EB0"/>
<path d="M41.6974 17.1597L39.293 14.7559L28.6265 25.4254L31.0309 27.8292L41.6974 17.1597Z" fill="#055EB0"/>
<path d="M1.96072 54.1657H47.7007C51.2967 54.1657 54.2187 51.2407 54.2187 47.6457V24.6277H50.8197V47.6467C50.8197 49.3677 49.4217 50.7657 47.7007 50.7657H3.66172V5.66172H32.6737V2.26172H1.96072C1.02172 2.26172 0.261719 3.02272 0.261719 3.96172V52.4647C0.261719 53.4037 1.02072 54.1657 1.96072 54.1657Z" fill="#055EB0"/>
</svg>
