<svg width="64" height="58" viewBox="0 0 64 58" fill="none" xmlns="http://www.w3.org/2000/svg">
<path d="M61.6895 4.03945H52.2895V1.93945C52.2895 1.10945 51.6195 0.439453 50.7895 0.439453H12.5895C11.7595 0.439453 11.0895 1.10945 11.0895 1.93945V4.03945H1.68945C0.859453 4.03945 0.189453 4.70945 0.189453 5.53945V14.3395C0.189453 21.6695 6.00945 27.6495 13.2695 27.9295C15.6395 32.6595 19.7595 36.3395 24.7895 38.1395V46.2794C20.8195 46.2894 17.5895 49.5195 17.5895 53.4995V54.9594H12.5895C11.7595 54.9594 11.0895 55.6294 11.0895 56.4594C11.0895 57.2895 11.7595 57.9594 12.5895 57.9594H19.0895H44.2895H50.7895C51.6195 57.9594 52.2895 57.2895 52.2895 56.4594C52.2895 55.6294 51.6195 54.9594 50.7895 54.9594H45.7895V53.4995C45.7895 49.5294 42.5595 46.2894 38.5895 46.2794V38.1395C43.6195 36.3395 47.7395 32.6595 50.1095 27.9295C57.3695 27.6395 63.1895 21.6695 63.1895 14.3395V5.53945C63.1895 4.71945 62.5195 4.03945 61.6895 4.03945ZM3.18945 14.3395V7.03945H11.0895V18.7495C11.0895 19.3795 11.1295 20.0095 11.1895 20.6295C11.2095 20.8195 11.2295 21.0095 11.2495 21.1995C11.2995 21.6295 11.3695 22.0695 11.4495 22.4995C11.4895 22.7095 11.5195 22.9095 11.5695 23.1195C11.6795 23.6095 11.7995 24.0995 11.9495 24.5795C11.9695 24.6595 11.9895 24.7395 12.0095 24.8095C7.00945 23.9495 3.18945 19.5795 3.18945 14.3395ZM42.7895 53.4995V54.9594H20.5895V53.4995C20.5895 51.1694 22.4795 49.2794 24.8095 49.2794H26.2895H37.0895H38.5695C40.8995 49.2794 42.7895 51.1795 42.7895 53.4995ZM35.5895 38.9795V46.2794H27.7895V38.9795C27.9395 39.0095 28.0895 39.0195 28.2395 39.0395C28.7195 39.1195 29.2095 39.1995 29.6995 39.2495C30.1695 39.2994 30.6395 39.3095 31.1095 39.3195C31.3095 39.3294 31.4995 39.3494 31.6995 39.3494C31.8995 39.3494 32.0895 39.3294 32.2895 39.3195C32.7595 39.3095 33.2295 39.2895 33.6995 39.2495C34.1995 39.1995 34.6795 39.1195 35.1595 39.0395C35.2995 39.0195 35.4495 39.0095 35.5895 38.9795ZM35.4395 35.9495C35.1995 35.9995 34.9595 36.0395 34.7195 36.0795C34.4395 36.1295 34.1595 36.1694 33.8695 36.2094C33.6495 36.2394 33.4295 36.2594 33.2094 36.2794C32.7895 36.3195 32.3595 36.3395 31.9295 36.3395C31.7695 36.3395 31.6195 36.3395 31.4595 36.3395C31.0295 36.3295 30.6095 36.3094 30.1795 36.2794C29.9595 36.2594 29.7395 36.2394 29.5195 36.2094C29.2295 36.1694 28.9495 36.1295 28.6695 36.0795C28.4295 36.0395 28.1895 35.9995 27.9495 35.9495C22.3895 34.7395 17.8095 30.9095 15.5695 25.8095C15.3395 25.2895 15.1395 24.7595 14.9695 24.2295C14.9595 24.1895 14.9395 24.1595 14.9295 24.1295C14.7595 23.5995 14.6195 23.0495 14.4995 22.5095C14.4895 22.4595 14.4695 22.4195 14.4595 22.3695C14.3495 21.8495 14.2695 21.3195 14.2095 20.7895C14.1995 20.7195 14.1795 20.6495 14.1795 20.5795C14.1195 19.9795 14.0895 19.3695 14.0895 18.7595V5.53945V3.43945H49.2995V5.53945V18.7495C49.2995 19.3595 49.2695 19.9695 49.2094 20.5695C49.1995 20.6395 49.1894 20.7095 49.1795 20.7795C49.1194 21.3095 49.0395 21.8395 48.9295 22.3595C48.9195 22.4095 48.8994 22.4495 48.8895 22.4995C48.7695 23.0495 48.6294 23.5895 48.4594 24.1195C48.4495 24.1595 48.4294 24.1895 48.4194 24.2195C48.2394 24.7495 48.0395 25.2795 47.8195 25.7995C45.5695 30.9095 40.9895 34.7395 35.4395 35.9495ZM60.1895 14.3395C60.1895 19.5795 56.3794 23.9395 51.3794 24.8095C51.3994 24.7295 51.4195 24.6495 51.4395 24.5795C51.5795 24.0995 51.7094 23.6095 51.8195 23.1195C51.8595 22.9195 51.8995 22.7095 51.9395 22.4995C52.0195 22.0695 52.0895 21.6395 52.1395 21.1995C52.1595 21.0095 52.1894 20.8195 52.1994 20.6295C52.2594 20.0095 52.2995 19.3795 52.2995 18.7495V7.03945H60.1994V14.3395H60.1895Z" fill="#055EB0"/>
</svg>
