<svg width="34" height="28" viewBox="0 0 34 28" fill="none" xmlns="http://www.w3.org/2000/svg">
<path d="M33.7138 3.64725C32.4844 4.17761 31.1464 4.55931 29.7683 4.70797C31.1991 3.85793 32.2706 2.51502 32.7817 0.931183C31.4391 1.72989 29.9682 2.28996 28.4344 2.58654C27.7933 1.9012 27.018 1.35523 26.1567 0.982641C25.2954 0.610056 24.3666 0.418842 23.4281 0.420915C19.6313 0.420915 16.5777 3.49859 16.5777 7.27538C16.5777 7.80574 16.642 8.33609 16.7464 8.84636C11.0612 8.54904 5.99063 5.83297 2.61964 1.67449C2.00541 2.72361 1.68354 3.91816 1.6875 5.13386C1.6875 7.51243 2.89687 9.60975 4.74107 10.8432C3.65426 10.8004 2.59289 10.5017 1.6433 9.97136V10.0557C1.6433 13.3865 3.99777 16.1468 7.13572 16.7816C6.54653 16.9347 5.94043 17.013 5.3317 17.0147C4.88572 17.0147 4.46384 16.9705 4.03795 16.9102C4.9058 19.6263 7.43304 21.599 10.4424 21.6633C8.08795 23.5075 5.13884 24.5923 1.93661 24.5923C1.36205 24.5923 0.831696 24.5723 0.28125 24.508C3.31875 26.4566 6.92277 27.5816 10.804 27.5816C23.404 27.5816 30.2987 17.1432 30.2987 8.08297C30.2987 7.78565 30.2987 7.48833 30.2786 7.191C31.6125 6.21466 32.7817 5.00529 33.7138 3.64725Z" fill="#DE1026" fill-opacity="0.85"/>
</svg>
