<svg width="28" height="24" viewBox="0 0 28 24" fill="none" xmlns="http://www.w3.org/2000/svg">
<path d="M27.9279 3.37222C26.9033 3.81419 25.7884 4.13227 24.6399 4.25615C25.8323 3.54779 26.7252 2.4287 27.1511 1.10883C26.0322 1.77442 24.8065 2.24114 23.5283 2.4883C22.9941 1.91718 22.348 1.4622 21.6302 1.15171C20.9125 0.841225 20.1385 0.68188 19.3564 0.683608C16.1924 0.683608 13.6477 3.24834 13.6477 6.39566C13.6477 6.83763 13.7013 7.27959 13.7884 7.70481C9.05064 7.45705 4.8252 5.19365 2.01604 1.72825C1.50419 2.60252 1.23596 3.59798 1.23926 4.61106C1.23926 6.59321 2.24707 8.34097 3.7839 9.36888C2.87822 9.33321 1.99375 9.08427 1.20243 8.64231V8.71263C1.20243 11.4883 3.16448 13.7885 5.77944 14.3175C5.28845 14.4451 4.78337 14.5103 4.27609 14.5117C3.90444 14.5117 3.55287 14.4749 3.19796 14.4247C3.92118 16.6881 6.0272 18.332 8.53502 18.3856C6.57296 19.9224 4.11537 20.8265 1.44685 20.8265C0.968053 20.8265 0.526088 20.8097 0.0673828 20.7562C2.59863 22.38 5.60198 23.3175 8.83636 23.3175C19.3364 23.3175 25.0819 14.6189 25.0819 7.06865C25.0819 6.82089 25.0819 6.57312 25.0652 6.32535C26.1768 5.51173 27.1511 4.50392 27.9279 3.37222Z" fill="white" fill-opacity="0.85"/>
</svg>
