<svg width="27" height="20" viewBox="0 0 27 20" fill="none" xmlns="http://www.w3.org/2000/svg">
<path d="M18.4144 0.597626C18.6177 0.597626 18.8211 0.597626 19.0245 0.597626C19.0499 0.603912 19.0753 0.610198 19.1007 0.616483C19.2405 0.635341 19.374 0.647912 19.5138 0.666769C20.3718 0.811343 21.128 1.16335 21.7889 1.7165C21.9097 1.81707 22.0177 1.92393 22.1321 2.03079C22.1575 2.05593 22.183 2.07479 22.2275 2.05593C22.2465 2.04964 22.2656 2.04964 22.2783 2.04336C23.2633 1.83593 24.1975 1.48392 25.0745 0.987345C25.1 0.968488 25.1317 0.955916 25.1572 0.943344C25.1635 0.94963 25.1699 0.955916 25.1699 0.955916C24.8013 2.03707 24.1213 2.87937 23.1489 3.50166C23.2316 3.49538 23.3142 3.48909 23.3904 3.47652C24.1912 3.35709 24.9602 3.14337 25.7037 2.82908C25.7355 2.81651 25.7673 2.79765 25.799 2.7788C25.799 2.79137 25.799 2.80394 25.799 2.81651C25.78 2.84165 25.7609 2.8668 25.7418 2.89194C25.2398 3.60852 24.6551 4.24338 23.9815 4.80282C23.8099 4.94111 23.6319 5.07311 23.4603 5.2114C23.4603 5.2554 23.4603 5.2994 23.4603 5.34968C23.4858 5.97198 23.4603 6.58798 23.3904 7.21028C23.3269 7.776 23.2316 8.32915 23.0917 8.8823C22.5706 10.9818 21.6301 12.8675 20.2256 14.5269C19.0054 15.9727 17.5437 17.0978 15.8151 17.8961C14.2327 18.6253 12.5613 19.015 10.82 19.103C10.7819 19.103 10.7501 19.1156 10.712 19.1156C10.2481 19.1156 9.78413 19.1156 9.32656 19.1156C9.29478 19.1093 9.26936 19.103 9.23759 19.103C8.84357 19.0841 8.45591 19.0464 8.06189 18.9898C7.34376 18.8893 6.6447 18.7258 5.95199 18.5121C4.8462 18.1664 3.80396 17.6887 2.82527 17.079C2.8062 17.0664 2.78078 17.0475 2.76172 17.035C4.00732 17.1607 5.23386 17.0727 6.43498 16.7395C7.6361 16.4064 8.72282 15.8595 9.70786 15.0989C9.04693 15.0675 8.42413 14.9229 7.82675 14.6527C7.22937 14.3761 6.7146 13.9926 6.2761 13.5024C5.86302 13.0435 5.35461 12.1383 5.33554 11.8429C5.67872 11.9058 6.02825 11.9372 6.37143 11.9183C6.72096 11.9058 7.06414 11.8618 7.40096 11.7612C4.73181 11.1578 3.56882 8.76915 3.6705 7.11599C3.99461 7.29199 4.33143 7.43028 4.68732 7.52457C5.1004 7.63771 5.64059 7.71314 5.76134 7.67543C3.38452 6.02226 3.28284 3.1308 4.3505 1.45878C5.55797 2.9108 7.00058 4.06738 8.69105 4.92225C10.3815 5.77083 12.18 6.24227 14.0802 6.34284C14.0738 6.30512 14.0738 6.27998 14.0675 6.25484C14.0421 6.10398 14.0166 5.95941 13.9976 5.80855C13.9277 5.26168 13.9658 4.71482 14.0993 4.18053C14.5759 2.22565 16.2473 0.836486 18.1665 0.629055C18.2619 0.622769 18.3381 0.610197 18.4144 0.597626Z" stroke="white" stroke-miterlimit="10"/>
</svg>
