<svg width="24" height="26" viewBox="0 0 24 26" fill="none" xmlns="http://www.w3.org/2000/svg">
<path d="M22.8272 20.8586C22.2377 19.4623 21.3823 18.1939 20.3085 17.1242C19.238 16.0514 17.9698 15.1961 16.5741 14.6055C16.5616 14.5992 16.5491 14.5961 16.5366 14.5898C18.4835 13.1836 19.7491 10.893 19.7491 8.3086C19.7491 4.02734 16.2804 0.558594 11.9991 0.558594C7.71785 0.558594 4.2491 4.02734 4.2491 8.3086C4.2491 10.893 5.51473 13.1836 7.4616 14.593C7.4491 14.5992 7.4366 14.6023 7.4241 14.6086C6.0241 15.1992 4.76785 16.0461 3.68973 17.1273C2.61694 18.1979 1.76162 19.466 1.17098 20.8617C0.590733 22.2281 0.277795 23.6931 0.249102 25.1773C0.248268 25.2107 0.254118 25.2439 0.266307 25.2749C0.278497 25.306 0.29678 25.3343 0.320078 25.3582C0.343376 25.3821 0.371219 25.401 0.401965 25.414C0.432711 25.4269 0.465739 25.4336 0.499102 25.4336H2.3741C2.5116 25.4336 2.62098 25.3242 2.6241 25.1899C2.6866 22.7773 3.65535 20.518 5.36785 18.8055C7.13973 17.0336 9.49285 16.0586 11.9991 16.0586C14.5054 16.0586 16.8585 17.0336 18.6304 18.8055C20.3429 20.518 21.3116 22.7773 21.3741 25.1899C21.3772 25.3274 21.4866 25.4336 21.6241 25.4336H23.4991C23.5325 25.4336 23.5655 25.4269 23.5962 25.414C23.627 25.401 23.6548 25.3821 23.6781 25.3582C23.7014 25.3343 23.7197 25.306 23.7319 25.2749C23.7441 25.2439 23.7499 25.2107 23.7491 25.1773C23.7179 23.6836 23.4085 22.2305 22.8272 20.8586V20.8586ZM11.9991 13.6836C10.5647 13.6836 9.21473 13.1242 8.1991 12.1086C7.18348 11.093 6.6241 9.74297 6.6241 8.3086C6.6241 6.87422 7.18348 5.52422 8.1991 4.50859C9.21473 3.49297 10.5647 2.93359 11.9991 2.93359C13.4335 2.93359 14.7835 3.49297 15.7991 4.50859C16.8147 5.52422 17.3741 6.87422 17.3741 8.3086C17.3741 9.74297 16.8147 11.093 15.7991 12.1086C14.7835 13.1242 13.4335 13.6836 11.9991 13.6836Z" fill="white"/>
</svg>
