<svg width="170" height="167" viewBox="0 0 170 167" fill="none" xmlns="http://www.w3.org/2000/svg">
<path d="M71.7255 31.5478C73.2638 35.813 75.6411 38.8896 78.7876 40.6376C80.8153 41.7564 83.1228 42.3857 85.3603 42.3857C85.4302 42.3857 85.5001 42.3857 85.6399 42.3857C87.9474 42.3857 90.2548 41.7564 92.2825 40.6376C95.429 38.8197 97.8064 35.813 99.3446 31.5478C100.603 28.1216 102.142 23.5767 102.421 18.822C102.771 13.6478 101.163 8.75326 98.0161 5.46693C94.9396 2.25053 90.4646 0.502479 85.6399 0.712245C80.6755 0.572401 76.2005 2.25053 73.1239 5.46693C69.9774 8.75326 68.2993 13.6478 68.7188 18.822C68.9286 23.5767 70.4669 28.1216 71.7255 31.5478ZM77.8087 10.0119C79.6267 8.12396 82.2837 7.14506 85.57 7.2849C88.6466 7.14506 91.3735 8.19388 93.1216 10.0119C95.0095 11.9697 95.9185 14.9763 95.7087 18.3326C95.429 22.2482 94.1005 26.2337 92.9817 29.2404C92.0028 31.9673 90.6044 33.8552 88.8564 34.8341C87.8075 35.3935 86.5489 35.6732 85.3603 35.7431C84.1716 35.7431 82.9829 35.4634 81.9341 34.8341C80.186 33.8552 78.7876 31.9673 77.8087 29.2404C76.6899 26.2337 75.3614 22.2482 75.0817 18.3326C75.0118 14.9763 75.9208 11.9697 77.8087 10.0119Z" fill="#055EB0"/>
<path d="M117.244 60.4258C116.405 55.741 113.259 51.8953 108.854 50.1473C103.749 48.0496 96.6873 44.973 96.6873 44.973L94.9393 44.2039L93.401 45.3227C93.401 45.3227 92.7717 45.8121 92.2822 46.0918C91.0936 46.8609 89.835 47.3504 88.5064 47.7C87.7373 47.9098 86.9682 47.9797 86.3389 47.9797H84.6607C83.9615 47.9797 83.2623 47.8398 82.4232 47.6301C81.0947 47.3504 79.8361 46.791 78.5775 45.952C78.2279 45.7422 77.5986 45.2527 77.5986 45.2527L75.8506 43.9941L73.9627 45.043C73.8928 45.043 73.683 45.1828 73.4033 45.3227C71.4455 46.2316 66.3412 48.3293 62.1459 50.0773C57.7408 51.8953 54.6643 55.741 53.8252 60.3559L51.3779 73.2215H119.762L117.244 60.4258ZM59.2791 66.6488L60.258 61.6145C60.6775 59.1672 62.3557 57.1395 64.5932 56.2305C66.4811 55.4613 72.2846 53.084 75.2912 51.7555C77.1092 52.8742 78.9971 53.6434 80.9549 54.1328C82.1436 54.4125 83.3322 54.5523 84.6607 54.6223H86.5486C87.6674 54.5523 88.8561 54.4125 90.0447 54.1328C92.0725 53.6434 94.0303 52.8742 95.7084 51.7555C95.7084 51.7555 95.7783 51.7555 95.7783 51.6855C98.2256 52.7344 102.771 54.6922 106.406 56.1605C108.714 57.1395 110.322 59.0973 110.812 61.5445L111.79 66.5789H59.2791V66.6488Z" fill="#055EB0"/>
<path d="M21.3813 124.614C22.9196 128.879 25.297 131.956 28.4435 133.704C30.4712 134.823 32.7786 135.452 35.0161 135.452C35.086 135.452 35.156 135.452 35.2259 135.452C37.5333 135.452 39.8407 134.823 41.8685 133.704C45.0149 131.886 47.3923 128.879 48.9306 124.614C50.1892 121.188 51.7274 116.643 52.0071 111.888C52.3567 106.714 50.7485 101.82 47.6021 98.5333C44.5255 95.3169 40.0505 93.5689 35.2259 93.7787C30.2614 93.5689 25.7864 95.3169 22.7099 98.5333C19.5634 101.82 17.8853 106.714 18.3048 111.888C18.6544 116.643 20.1228 121.188 21.3813 124.614ZM27.4646 103.078C29.1427 101.26 31.7298 100.351 34.8063 100.351C34.9462 100.351 35.086 100.351 35.2259 100.351C37.0438 100.281 40.4001 100.561 42.7774 103.078C44.6653 105.036 45.5743 108.043 45.3645 111.399C45.0849 115.385 43.7563 119.3 42.6376 122.307C41.6587 125.034 40.2603 126.922 38.5122 127.901C37.4634 128.46 36.2747 128.74 35.0161 128.81C33.8274 128.81 32.6388 128.53 31.5899 127.901C29.8419 126.922 28.4435 125.034 27.4646 122.307C26.3458 119.3 25.0173 115.315 24.7376 111.399C24.6677 108.043 25.5767 105.036 27.4646 103.078Z" fill="#055EB0"/>
<path d="M58.5801 143.213C53.4758 141.115 46.4137 138.039 46.4137 138.039L44.6656 137.27L43.1273 138.458C43.1273 138.458 42.4981 138.948 42.0086 139.227C40.8199 139.996 39.5613 140.486 38.2328 140.836C37.3937 141.045 36.6945 141.115 36.0652 141.115C35.8555 141.115 35.6457 141.115 35.366 141.115H35.1562H34.9465C34.7367 141.115 34.527 141.115 34.3172 141.115C33.618 141.115 32.9188 140.975 32.0797 140.766C30.7512 140.486 29.4926 139.927 28.234 139.088C27.8844 138.878 27.2551 138.388 27.1852 138.388L25.6469 137.27L23.8988 138.039C23.8988 138.039 16.8367 141.115 11.7324 143.213C7.32734 145.031 4.25078 148.877 3.3418 153.491L0.894531 166.357H69.2781L66.8309 153.491C66.0617 148.807 62.9852 144.961 58.5801 143.213ZM8.93555 159.714L9.91445 154.68C10.334 152.233 12.0121 150.205 14.2496 149.296C17.8855 147.828 22.4305 145.87 24.8777 144.821C26.6957 145.94 28.5836 146.779 30.6113 147.198C31.8699 147.478 32.9887 147.618 34.3172 147.688C34.5969 147.688 34.8766 147.688 35.1562 147.688C35.4359 147.688 35.7156 147.688 36.2051 147.688C37.3238 147.688 38.5125 147.478 39.7012 147.198C41.7289 146.709 43.6867 145.94 45.3648 144.821C45.3648 144.821 45.4348 144.821 45.4348 144.751C47.882 145.8 52.427 147.758 56.0629 149.226C58.3703 150.135 59.9785 152.163 60.468 154.61L61.4469 159.645H8.93555V159.714Z" fill="#055EB0"/>
<path d="M118.923 111.818C119.273 116.573 120.741 121.118 122 124.544C123.538 128.809 125.915 131.886 129.062 133.634C131.089 134.752 133.397 135.382 135.634 135.382C135.704 135.382 135.704 135.382 135.774 135.382C138.082 135.382 140.459 134.822 142.557 133.634C145.703 131.816 148.08 128.809 149.619 124.544C150.877 121.118 152.416 116.573 152.695 111.818C153.045 106.644 151.437 101.749 148.29 98.463C145.214 95.2466 140.739 93.4986 135.914 93.7083C130.95 93.4986 126.475 95.2466 123.398 98.463C120.182 101.819 118.573 106.644 118.923 111.818ZM128.153 103.078C130.6 100.561 133.956 100.281 135.914 100.351C138.991 100.281 141.718 101.26 143.466 103.078C145.354 105.036 146.263 108.042 146.053 111.399C145.773 115.384 144.445 119.3 143.326 122.306C142.347 125.033 140.948 126.921 139.2 127.9C138.152 128.46 136.893 128.739 135.704 128.809C134.516 128.809 133.327 128.529 132.278 127.9C130.53 126.921 129.132 125.033 128.153 122.306C127.034 119.3 125.705 115.314 125.426 111.399C125.286 108.042 126.265 105.036 128.153 103.078Z" fill="#055EB0"/>
<path d="M167.588 153.491C166.749 148.876 163.602 144.961 159.197 143.212C154.093 141.115 147.031 138.038 147.031 138.038L145.283 137.269L143.745 138.388C143.745 138.388 143.115 138.877 142.626 139.157C141.437 139.926 140.179 140.416 138.85 140.765C138.011 140.975 137.312 141.045 136.682 141.045C136.473 141.045 136.263 141.045 135.983 141.045H135.773H135.564C135.354 141.045 135.144 141.045 134.934 141.045C134.235 141.045 133.536 140.905 132.697 140.695C131.368 140.416 130.11 139.856 128.851 139.017C128.502 138.807 127.872 138.318 127.802 138.318L126.264 137.199L124.516 137.968C124.516 137.968 117.454 141.045 112.35 143.143C107.945 144.961 104.868 148.806 103.959 153.421L101.512 166.287H169.895L167.588 153.491ZM109.623 159.714L110.602 154.68C111.021 152.232 112.699 150.205 114.937 149.296C118.573 147.827 123.118 145.87 125.565 144.821C127.383 145.939 129.271 146.779 131.298 147.198C132.557 147.478 133.676 147.618 135.004 147.688C135.284 147.688 135.564 147.688 135.843 147.688C136.123 147.688 136.473 147.688 136.892 147.688C138.011 147.688 139.2 147.478 140.388 147.198C142.416 146.709 144.374 145.939 146.052 144.821C146.052 144.821 146.122 144.821 146.122 144.751C148.569 145.8 153.114 147.757 156.75 149.226C159.057 150.205 160.666 152.162 161.155 154.61L162.134 159.644H109.623V159.714Z" fill="#055EB0"/>
<path d="M103.05 124.543C104.169 124.543 105.218 123.984 105.847 123.005C106.826 121.467 106.336 119.439 104.798 118.46L88.8558 108.461L88.716 89.4426C88.716 87.6246 87.2476 86.1562 85.4297 86.1562C83.6117 86.1562 82.1433 87.6246 82.1433 89.5125L82.2832 108.321L66.1312 118.39C64.5929 119.369 64.1035 121.397 65.0824 122.935C65.7117 123.914 66.7605 124.473 67.8793 124.473C68.5086 124.473 69.0679 124.334 69.6273 123.984L85.4996 114.125L101.302 124.054C101.861 124.334 102.491 124.543 103.05 124.543Z" fill="#055EB0"/>
</svg>
