<svg width="30" height="22" viewBox="0 0 30 22" fill="none" xmlns="http://www.w3.org/2000/svg">
<path d="M30 10.9076C30 10.834 30 10.7503 29.9967 10.6532C29.9933 10.382 29.9866 10.0773 29.9799 9.75251C29.9531 8.81836 29.9062 7.88756 29.8326 7.01032C29.7321 5.80162 29.5848 4.79381 29.3839 4.03711C29.1719 3.24743 28.7564 2.52723 28.1788 1.94848C27.6012 1.36974 26.8819 0.952721 26.0926 0.739118C25.1451 0.484654 23.2902 0.327288 20.6786 0.23019C19.4364 0.183315 18.1071 0.153181 16.7779 0.13644C16.3125 0.129743 15.8806 0.126395 15.4922 0.123047H14.5078C14.1194 0.126395 13.6875 0.129743 13.2221 0.13644C11.8929 0.153181 10.5636 0.183315 9.32143 0.23019C6.70982 0.330636 4.85156 0.488002 3.90737 0.739118C3.11786 0.952197 2.39822 1.36904 1.82057 1.94786C1.24292 2.52669 0.827545 3.24717 0.616071 4.03711C0.41183 4.79381 0.267857 5.80162 0.167411 7.01032C0.09375 7.88756 0.0468749 8.81836 0.0200892 9.75251C0.0100446 10.0773 0.00669638 10.382 0.00334816 10.6532C0.00334816 10.7503 0 10.834 0 10.9076V11.0951C0 11.1688 -5.11396e-08 11.2525 0.00334816 11.3496C0.00669638 11.6208 0.0133928 11.9255 0.0200892 12.2503C0.0468749 13.1844 0.09375 14.1152 0.167411 14.9925C0.267857 16.2012 0.415179 17.209 0.616071 17.9657C1.04464 19.5695 2.30357 20.8351 3.90737 21.2637C4.85156 21.5181 6.70982 21.6755 9.32143 21.7726C10.5636 21.8195 11.8929 21.8496 13.2221 21.8664C13.6875 21.873 14.1194 21.8764 14.5078 21.8797H15.4922C15.8806 21.8764 16.3125 21.873 16.7779 21.8664C18.1071 21.8496 19.4364 21.8195 20.6786 21.7726C23.2902 21.6722 25.1484 21.5148 26.0926 21.2637C27.6964 20.8351 28.9554 19.5728 29.3839 17.9657C29.5882 17.209 29.7321 16.2012 29.8326 14.9925C29.9062 14.1152 29.9531 13.1844 29.9799 12.2503C29.99 11.9255 29.9933 11.6208 29.9967 11.3496C29.9967 11.2525 30 11.1688 30 11.0951V10.9076V10.9076ZM27.5893 11.0818C27.5893 11.1521 27.5893 11.2291 27.5859 11.3195C27.5826 11.5806 27.5759 11.8686 27.5692 12.18C27.5458 13.0706 27.4989 13.9612 27.4286 14.7882C27.3382 15.8664 27.2109 16.7503 27.0536 17.3429C26.846 18.1164 26.2366 18.7291 25.4665 18.9333C24.7634 19.1208 22.9922 19.2715 20.5848 19.3619C19.3661 19.4088 18.0536 19.4389 16.7444 19.4556C16.2857 19.4623 15.8605 19.4657 15.4788 19.4657H14.5212L13.2556 19.4556C11.9464 19.4389 10.6373 19.4088 9.41518 19.3619C7.00781 19.2681 5.23326 19.1208 4.53348 18.9333C3.76339 18.7257 3.15402 18.1164 2.94643 17.3429C2.78906 16.7503 2.66183 15.8664 2.57143 14.7882C2.50112 13.9612 2.45759 13.0706 2.4308 12.18C2.42076 11.8686 2.41741 11.5773 2.41406 11.3195C2.41406 11.2291 2.41071 11.1487 2.41071 11.0818V10.921C2.41071 10.8507 2.41071 10.7737 2.41406 10.6833C2.41741 10.4222 2.42411 10.1342 2.4308 9.82282C2.45424 8.9322 2.50112 8.04157 2.57143 7.21456C2.66183 6.13644 2.78906 5.25251 2.94643 4.65988C3.15402 3.88644 3.76339 3.27372 4.53348 3.06948C5.23661 2.88198 7.00781 2.73131 9.41518 2.6409C10.6339 2.59403 11.9464 2.5639 13.2556 2.54715C13.7143 2.54046 14.1395 2.53711 14.5212 2.53711H15.4788L16.7444 2.54715C18.0536 2.5639 19.3627 2.59403 20.5848 2.6409C22.9922 2.73465 24.7667 2.88198 25.4665 3.06948C26.2366 3.27706 26.846 3.88644 27.0536 4.65988C27.2109 5.25251 27.3382 6.13644 27.4286 7.21456C27.4989 8.04157 27.5424 8.9322 27.5692 9.82282C27.5792 10.1342 27.5826 10.4255 27.5859 10.6833C27.5859 10.7737 27.5893 10.8541 27.5893 10.921V11.0818ZM12.0201 15.488L19.7879 10.9679L12.0201 6.51479V15.488Z" fill="white" fill-opacity="0.85"/>
</svg>
