<svg width="82" height="80" viewBox="0 0 82 80" fill="none" xmlns="http://www.w3.org/2000/svg">
<path d="M8.39249 39.5963L8.39262 39.5961L34.5043 18.6773L49.089 26.7209L49.089 26.721L49.0938 26.7235C49.5722 26.9741 50.1736 26.9096 50.571 26.5122L50.571 26.5121L72.0559 5.00911V10.4938C72.0559 11.1871 72.612 11.7432 73.3053 11.7432C73.9985 11.7432 74.5546 11.1871 74.5546 10.4938V1.99935L74.5546 1.99061C74.5548 1.94904 74.555 1.86416 74.5361 1.78129C74.5357 1.7596 74.533 1.7208 74.5168 1.67649C74.5166 1.67367 74.5164 1.67064 74.5161 1.66744C74.5136 1.64251 74.5069 1.60904 74.4889 1.573C74.4862 1.56758 74.4834 1.56244 74.4806 1.55761V1.55169L74.4542 1.4989L74.4489 1.4884C74.3965 1.38329 74.3253 1.24086 74.2038 1.11933L74.2038 1.11933C73.9479 0.863455 73.6226 0.75 73.2868 0.75H64.7923V0.749861L64.7839 0.750139C64.0883 0.773325 63.557 1.35392 63.5801 2.04469L63.5801 2.04529C63.6035 2.70195 64.14 3.20275 64.7744 3.24807L64.7833 3.2487H64.7923H70.2959L49.462 24.0826L34.9555 16.0885C34.9546 16.0881 34.9538 16.0876 34.953 16.0871C34.5115 15.8329 33.9561 15.8798 33.5621 16.2034C33.5617 16.2038 33.5613 16.2041 33.5609 16.2044L6.82145 37.6515L6.82143 37.6515L6.81865 37.6538C6.28966 38.0907 6.1965 38.8558 6.63381 39.4082L6.63375 39.4082L6.63776 39.413C6.86586 39.6868 7.21158 39.8731 7.60709 39.8731C7.88501 39.8731 8.16237 39.7803 8.39249 39.5963Z" fill="#055EB0" stroke="#055EB0" stroke-width="0.5"/>
<path d="M46.2029 62.1273H46.2028L46.203 62.1339L46.2215 62.8371L46.2213 62.8371L46.222 62.8478C46.2679 63.5132 46.8169 64.0384 47.4806 64.0613L47.4891 64.0615L47.4976 64.0613C48.1888 64.0382 48.7201 63.4823 48.7201 62.7935H48.7202L48.72 62.7868L48.7016 62.1047C48.6823 59.0084 46.9563 56.2113 44.2177 54.7951C44.2629 54.7514 44.3063 54.708 44.3481 54.6662L44.3534 54.6609L44.3542 54.6601C46.5242 52.4707 46.5047 48.926 44.316 46.7563C43.2695 45.71 41.855 45.1289 40.3828 45.1289L40.3643 45.1289L40.3627 45.1289C37.2836 45.1483 34.7839 47.6466 34.8029 50.7466C34.8031 52.239 35.4041 53.6528 36.4492 54.6979C36.4946 54.7434 36.542 54.7887 36.5899 54.8329C33.8656 56.2686 32.1566 59.1027 32.175 62.1843H32.1749L32.175 62.1894L32.1935 62.8896C32.1954 63.5658 32.7538 64.1169 33.4428 64.1169H33.4613V64.1171L33.4696 64.1168C34.1608 64.0937 34.6922 63.5378 34.6922 62.8491H34.6923L34.6921 62.8423L34.6736 62.1603C34.6573 58.9877 37.2279 56.3993 40.402 56.3812H40.4198C43.6144 56.3812 46.2029 58.9542 46.2029 62.1273ZM40.4185 53.827C38.7065 53.8263 37.3194 52.4392 37.3016 50.7445C37.3022 49.0307 38.6724 47.6461 40.3828 47.6461H40.4013C42.0944 47.6461 43.4831 49.0326 43.5009 50.7286C43.5002 52.4212 42.114 53.8092 40.4185 53.827Z" fill="#055EB0" stroke="#055EB0" stroke-width="0.5"/>
<path d="M80.4114 76.9608L80.4025 76.9602H80.3936H74.5734V19.0072C74.5734 18.3139 74.0173 17.7578 73.3241 17.7578C72.6308 17.7578 72.0747 18.3139 72.0747 19.0072V76.9602H61.4153V25.1328C61.4153 24.4396 60.8592 23.8835 60.1659 23.8835C59.4727 23.8835 58.9166 24.4396 58.9166 25.1328V76.9602H48.2571V68.6916C55.3496 64.4433 57.7067 55.2683 53.4971 48.1209C52.2224 45.9411 50.4045 44.1248 48.2571 42.8311V33.7013C48.2571 33.0081 47.7011 32.452 47.0078 32.452C46.3145 32.452 45.7584 33.0081 45.7584 33.7013V41.6271C42.3133 40.3384 38.5277 40.3552 35.099 41.6617V27.5757H35.0992L35.0989 27.5674C35.0757 26.8718 34.4951 26.3405 33.8043 26.3635L33.8037 26.3635C33.1471 26.387 32.6463 26.9234 32.6009 27.5579L32.6003 27.5668V27.5757V42.8875C25.5447 47.1912 23.262 56.3851 27.5093 63.4954C28.7647 65.6 30.5091 67.3605 32.6003 68.6348V76.9602H21.9964V38.365C21.9964 37.6717 21.4403 37.1156 20.747 37.1156C20.0538 37.1156 19.4977 37.6717 19.4977 38.365V76.9602H8.83826V45.49C8.83826 44.7967 8.28217 44.2406 7.5889 44.2406C6.89564 44.2406 6.33955 44.7967 6.33955 45.49V76.9602H1.96292V76.96L1.95459 76.9603C1.25899 76.9835 0.727694 77.5641 0.750719 78.2549L0.75074 78.2555C0.774193 78.9121 1.31062 79.4129 1.94511 79.4582L1.954 79.4589H1.96292H80.4121V79.459L80.4204 79.4587C81.116 79.4356 81.6473 78.855 81.6243 78.1642L81.6245 78.1642L81.6238 78.1547C81.5775 77.5067 81.0477 77.0063 80.4114 76.9608ZM27.9185 55.7605C27.9188 48.811 33.5623 43.1672 40.5127 43.1491C47.4622 43.1494 53.1059 48.7929 53.124 55.7433C53.1237 62.6928 47.4802 68.3365 40.5299 68.3546C33.5621 68.3543 27.9366 62.711 27.9185 55.7605ZM45.7955 76.9602H35.136V69.8605C38.5647 71.1671 42.3503 71.1838 45.7955 69.8951V76.9602Z" fill="#055EB0" stroke="#055EB0" stroke-width="0.5"/>
</svg>
