<svg width="98" height="57" viewBox="0 0 98 57" fill="none" xmlns="http://www.w3.org/2000/svg">
<path d="M57.7246 30.2578C57.5389 30.2575 57.355 30.2937 57.1833 30.3645C57.0116 30.4354 56.8556 30.5393 56.7242 30.6705C56.5928 30.8017 56.4885 30.9575 56.4173 31.1291C56.3462 31.3006 56.3096 31.4845 56.3096 31.6702V50.1977C56.3255 50.562 56.4814 50.906 56.7448 51.1582C57.0081 51.4103 57.3587 51.551 57.7233 51.551C58.0879 51.551 58.4384 51.4103 58.7018 51.1582C58.9652 50.906 59.1211 50.562 59.137 50.1977V31.6594C59.1341 31.2867 58.9841 30.9302 58.7195 30.6677C58.4549 30.4051 58.0973 30.2578 57.7246 30.2578Z" fill="#055EB0"/>
<path d="M38.3157 30.2578C38.1301 30.2575 37.9463 30.2938 37.7748 30.3646C37.6033 30.4355 37.4474 30.5395 37.3162 30.6707C37.185 30.8019 37.081 30.9577 37.0101 31.1293C36.9393 31.3008 36.903 31.4846 36.9033 31.6702V50.1977C36.9033 50.5723 37.0521 50.9315 37.317 51.1964C37.5819 51.4613 37.9411 51.6101 38.3157 51.6101C38.6902 51.6101 39.0495 51.4613 39.3143 51.1964C39.5792 50.9315 39.728 50.5723 39.728 50.1977V31.6594C39.7259 31.2865 39.576 30.9296 39.3113 30.6669C39.0466 30.4042 38.6886 30.2571 38.3157 30.2578Z" fill="#055EB0"/>
<path d="M82.9984 24.3564H81.7477C83.132 22.994 84.0796 21.2505 84.4698 19.3479C84.8601 17.4453 84.6754 15.4695 83.9393 13.6722C83.2032 11.8748 81.9489 10.3372 80.3361 9.25489C78.7234 8.17263 76.825 7.59471 74.8828 7.59471C72.9405 7.59471 71.0422 8.17263 69.4294 9.25489C67.8166 10.3372 66.5624 11.8748 65.8262 13.6722C65.0901 15.4695 64.9054 17.4453 65.2957 19.3479C65.686 21.2505 66.6335 22.994 68.0178 24.3564H65.4896C63.5467 22.4158 60.9126 21.3261 58.1664 21.3269H55.6221C57.4991 19.7645 58.8491 17.6616 59.4882 15.3045C60.1273 12.9474 60.0245 10.4506 59.1938 8.15401C58.363 5.85742 56.8447 3.87263 54.8456 2.46985C52.8464 1.06707 50.4635 0.314453 48.0213 0.314453C45.5791 0.314453 43.1962 1.06707 41.197 2.46985C39.1979 3.87263 37.6796 5.85742 36.8488 8.15401C36.0181 10.4506 35.9153 12.9474 36.5544 15.3045C37.1935 17.6616 38.5435 19.7645 40.4205 21.3269H37.8761C36.5167 21.3263 35.1705 21.5935 33.9145 22.1133C32.6584 22.6331 31.517 23.3954 30.5557 24.3564H27.9816C29.3668 22.9939 30.3152 21.2499 30.706 19.3466C31.0968 17.4433 30.9124 15.4668 30.1762 13.6686C29.44 11.8705 28.1854 10.332 26.5721 9.24924C24.9588 8.16644 23.0597 7.58823 21.1167 7.58823C19.1737 7.58823 17.2746 8.16644 15.6613 9.24924C14.0479 10.332 12.7933 11.8705 12.0571 13.6686C11.321 15.4668 11.1366 17.4433 11.5274 19.3466C11.9182 21.2499 12.8665 22.9939 14.2517 24.3564H13.0011C10.7236 24.3586 8.53991 25.2643 6.92944 26.8748C5.31897 28.4852 4.41327 30.6689 4.41113 32.9464V47.7383C4.42704 48.1025 4.58294 48.4466 4.84631 48.6987C5.10969 48.9508 5.46022 49.0916 5.82482 49.0916C6.18943 49.0916 6.53996 48.9508 6.80334 48.6987C7.06671 48.4466 7.22261 48.1025 7.23852 47.7383V32.9464C7.23994 31.4185 7.84753 29.9536 8.92791 28.8732C10.0083 27.7928 11.4732 27.1853 13.0011 27.1838H28.5773C27.8756 28.5896 27.5067 30.1381 27.4992 31.7093V50.1991C27.4992 50.5737 27.648 50.9329 27.9128 51.1978C28.1777 51.4626 28.5369 51.6114 28.9115 51.6114C29.2861 51.6114 29.6453 51.4626 29.9102 51.1978C30.1751 50.9329 30.3239 50.5737 30.3239 50.1991V31.7093C30.3288 29.7092 31.1256 27.7925 32.5398 26.3783C33.954 24.9641 35.8707 24.1674 37.8707 24.1624H58.1611C60.1611 24.1674 62.0778 24.9641 63.492 26.3783C64.9062 27.7925 65.703 29.7092 65.7079 31.7093V32.8197C65.7079 32.8521 65.6891 32.8817 65.6891 32.9141V47.7383C65.6891 47.7706 65.7052 47.8003 65.7079 47.8326V50.1991C65.7238 50.5634 65.8797 50.9074 66.1431 51.1595C66.4065 51.4117 66.757 51.5524 67.1216 51.5524C67.4862 51.5524 67.8368 51.4117 68.1001 51.1595C68.3635 50.9074 68.5194 50.5634 68.5353 50.1991V31.7093C68.5278 30.1381 68.1589 28.5896 67.4572 27.1838H82.9876C84.5155 27.1853 85.9804 27.7928 87.0608 28.8732C88.1411 29.9536 88.7487 31.4185 88.7502 32.9464V47.7383C88.7661 48.1025 88.922 48.4466 89.1853 48.6987C89.4487 48.9508 89.7992 49.0916 90.1638 49.0916C90.5285 49.0916 90.879 48.9508 91.1424 48.6987C91.4057 48.4466 91.5616 48.1025 91.5775 47.7383V32.9464C91.5754 30.6707 90.6712 28.4887 89.063 26.8786C87.4549 25.2684 85.274 24.3614 82.9984 24.3564ZM14.1547 17.3945C14.1547 16.0175 14.563 14.6715 15.328 13.5266C16.093 12.3817 17.1803 11.4893 18.4524 10.9624C19.7246 10.4355 21.1244 10.2976 22.4749 10.5662C23.8254 10.8349 25.0659 11.4979 26.0396 12.4716C27.0132 13.4452 27.6763 14.6857 27.9449 16.0362C28.2135 17.3867 28.0757 18.7866 27.5487 20.0587C27.0218 21.3308 26.1294 22.4181 24.9846 23.1831C23.8397 23.9481 22.4936 24.3564 21.1167 24.3564C19.2709 24.3543 17.5013 23.6201 16.1962 22.315C14.891 21.0098 14.1568 19.2402 14.1547 17.3945ZM38.9516 12.2734C38.9516 10.4822 39.4827 8.73127 40.4778 7.24198C41.4729 5.75269 42.8873 4.59192 44.5421 3.90648C46.1969 3.22103 48.0179 3.04169 49.7746 3.39113C51.5313 3.74056 53.145 4.60309 54.4115 5.86963C55.6781 7.13617 56.5406 8.74984 56.89 10.5066C57.2395 12.2633 57.0601 14.0842 56.3747 15.739C55.6893 17.3939 54.5285 18.8082 53.0392 19.8034C51.5499 20.7985 49.799 21.3296 48.0078 21.3296C45.6087 21.3232 43.3099 20.3662 41.615 18.6682C39.9201 16.9703 38.9672 14.6698 38.965 12.2707L38.9516 12.2734ZM67.9073 17.3945C67.9073 16.0176 68.3155 14.6717 69.0804 13.5269C69.8453 12.382 70.9325 11.4897 72.2044 10.9627C73.4764 10.4357 74.8761 10.2976 76.2265 10.566C77.5769 10.8344 78.8175 11.4972 79.7912 12.4706C80.765 13.444 81.4283 14.6843 81.6972 16.0346C81.9661 17.3849 81.8286 18.7846 81.3021 20.0568C80.7756 21.329 79.8837 22.4165 78.7391 23.1818C77.5946 23.9471 76.2488 24.3559 74.872 24.3564C73.0281 24.3515 71.2613 23.616 69.9584 22.3112C68.6556 21.0063 67.9229 19.2384 67.9208 17.3945H67.9073Z" fill="#055EB0"/>
<path d="M82.6428 31.502C82.2682 31.502 81.909 31.6508 81.6441 31.9156C81.3793 32.1805 81.2305 32.5397 81.2305 32.9143V47.7385C81.2305 48.1131 81.3793 48.4723 81.6441 48.7372C81.909 49.0021 82.2682 49.1509 82.6428 49.1509C83.0174 49.1509 83.3766 49.0021 83.6415 48.7372C83.9064 48.4723 84.0552 48.1131 84.0552 47.7385V32.9143C84.0552 32.7288 84.0186 32.5452 83.9476 32.3738C83.8767 32.2025 83.7726 32.0468 83.6415 31.9156C83.5103 31.7845 83.3546 31.6804 83.1833 31.6095C83.0119 31.5385 82.8283 31.502 82.6428 31.502Z" fill="#055EB0"/>
<path d="M13.3518 31.502C12.9772 31.502 12.618 31.6508 12.3531 31.9156C12.0883 32.1805 11.9395 32.5397 11.9395 32.9143V47.7385C11.9395 48.1131 12.0883 48.4723 12.3531 48.7372C12.618 49.0021 12.9772 49.1509 13.3518 49.1509C13.7264 49.1509 14.0856 49.0021 14.3505 48.7372C14.6153 48.4723 14.7641 48.1131 14.7641 47.7385V32.9143C14.7641 32.5397 14.6153 32.1805 14.3505 31.9156C14.0856 31.6508 13.7264 31.502 13.3518 31.502Z" fill="#055EB0"/>
</svg>
