<svg width="72" height="66" viewBox="0 0 72 66" fill="none" xmlns="http://www.w3.org/2000/svg">
<path d="M63.1 46.1996V46.6996H63.6H71.5V64.8996H53.3V46.6996H61.2H61.7V46.1996V34.1996V33.6996H61.2H37.2H36.7V34.1996V46.1996V46.6996H37.2H45.1V64.8996H26.9V46.6996H34.8H35.3V46.1996V34.1996V33.6996H34.8H10.8H10.3V34.1996V46.1996V46.6996H10.8H18.7V64.8996H0.5V46.6996H8.4H8.9V46.1996V32.2996H34.8H35.3V31.7996V19.7168V19.2757L34.8623 19.2207C30.3802 18.6576 26.9 14.8298 26.9 10.1996C26.9 5.18255 30.9829 1.09961 36 1.09961C41.0171 1.09961 45.1 5.18255 45.1 10.1996C45.1 14.8298 41.6198 18.6576 37.1377 19.2207L36.7 19.2757V19.7168V31.7996V32.2996H37.2H63.1V46.1996ZM16.8 63.4996H17.3V62.9996V48.5996V48.0996H16.8H2.4H1.9V48.5996V62.9996V63.4996H2.4H16.8ZM43.2 63.4996H43.7V62.9996V48.5996V48.0996H43.2H28.8H28.3V48.5996V62.9996V63.4996H28.8H43.2ZM69.6 63.4996H70.1V62.9996V48.5996V48.0996H69.6H55.2H54.7V48.5996V62.9996V63.4996H55.2H69.6ZM36 2.49961C31.7531 2.49961 28.3 5.95267 28.3 10.1996C28.3 14.4466 31.7531 17.8996 36 17.8996C40.2469 17.8996 43.7 14.4466 43.7 10.1996C43.7 5.95267 40.2469 2.49961 36 2.49961Z" fill="#055EB0" stroke="#055EB0"/>
</svg>
