<svg width="88" height="88" viewBox="0 0 88 88" fill="none" xmlns="http://www.w3.org/2000/svg">
<path d="M72.0138 15.3122L68.9338 14.6669V14.1975C68.9338 13.0306 68.4702 11.9114 67.645 11.0863C66.8199 10.2611 65.7007 9.79754 64.5338 9.79754H48.0778L32.0471 6.07221C31.4807 5.93768 30.8932 5.9169 30.3187 6.01106C29.7442 6.10523 29.1941 6.31247 28.7002 6.62077C28.2064 6.92908 27.7786 7.33233 27.4418 7.80714C27.1049 8.28196 26.8656 8.81891 26.7378 9.38688L26.6498 9.78288H23.4671C22.3002 9.78288 21.181 10.2464 20.3558 11.0716C19.5307 11.8968 19.0671 13.0159 19.0671 14.1829V42.6215L12.6724 70.4002C12.5401 70.9656 12.521 71.5516 12.6162 72.1245C12.7114 72.6973 12.9191 73.2456 13.2272 73.7378C13.5353 74.23 13.9378 74.6563 14.4115 74.9922C14.8852 75.3281 15.4207 75.5669 15.9871 75.6949L19.0671 76.4135V76.8095C19.0671 77.9765 19.5307 79.0956 20.3558 79.9208C21.181 80.746 22.3002 81.2095 23.4671 81.2095H40.0698L40.2311 81.2829L55.9538 84.9202C56.5202 85.0547 57.1077 85.0755 57.6822 84.9814C58.2567 84.8872 58.8068 84.6799 59.3007 84.3716C59.7945 84.0633 60.2222 83.6601 60.5591 83.1853C60.896 82.7104 61.1353 82.1735 61.2631 81.6055L61.3511 81.2095H64.5338C65.7007 81.2095 66.8199 80.746 67.645 79.9208C68.4702 79.0956 68.9338 77.9765 68.9338 76.8095V48.3122L75.3284 20.6069C75.4608 20.0415 75.4799 19.4555 75.3847 18.8826C75.2895 18.3098 75.0818 17.7615 74.7737 17.2693C74.4656 16.7771 74.063 16.3508 73.5894 16.0149C73.1157 15.679 72.5802 15.4402 72.0138 15.3122ZM19.0671 73.3335L16.6471 72.7615C16.4564 72.7201 16.2759 72.6409 16.1161 72.5288C15.9564 72.4166 15.8206 72.2738 15.7168 72.1085C15.613 71.9432 15.5432 71.7589 15.5115 71.5663C15.4799 71.3737 15.487 71.1767 15.5324 70.9869L19.0671 55.7335V73.3335ZM31.3871 8.93221L35.0391 9.78288H29.7151C29.8505 9.46809 30.0919 9.21066 30.3973 9.05527C30.7027 8.89988 31.0529 8.85634 31.3871 8.93221ZM56.6138 82.0015L52.9764 81.1509H58.2858C58.1504 81.4657 57.909 81.7231 57.6036 81.8785C57.2981 82.0339 56.9479 82.0774 56.6138 82.0015ZM66.0004 76.7362C66.0004 77.1252 65.8459 77.4982 65.5709 77.7733C65.2958 78.0483 64.9228 78.2029 64.5338 78.2029H23.4671C23.0781 78.2029 22.7051 78.0483 22.43 77.7733C22.155 77.4982 22.0004 77.1252 22.0004 76.7362V14.1975C22.0004 13.8086 22.155 13.4355 22.43 13.1605C22.7051 12.8854 23.0781 12.7309 23.4671 12.7309H64.5338C64.9228 12.7309 65.2958 12.8854 65.5709 13.1605C65.8459 13.4355 66.0004 13.8086 66.0004 14.1975V76.7362ZM72.4684 19.9469L68.9338 35.2735V17.6002L71.3538 18.1575C71.5461 18.1989 71.7281 18.2785 71.889 18.3916C72.0499 18.5047 72.1864 18.649 72.2904 18.8159C72.3944 18.9829 72.4637 19.169 72.4943 19.3633C72.5249 19.5576 72.5161 19.7561 72.4684 19.9469Z" fill="#055EB0"/>
<path d="M58.6662 70.1504H30.7995V58.2264C30.7995 57.8374 30.645 57.4644 30.37 57.1893C30.0949 56.9143 29.7219 56.7598 29.3329 56.7598C28.9439 56.7598 28.5708 56.9143 28.2958 57.1893C28.0207 57.4644 27.8662 57.8374 27.8662 58.2264V71.6171C27.8662 72.0061 28.0207 72.3791 28.2958 72.6542C28.5708 72.9292 28.9439 73.0838 29.3329 73.0838H58.6662C59.0552 73.0838 59.4283 72.9292 59.7033 72.6542C59.9784 72.3791 60.1329 72.0061 60.1329 71.6171C60.1329 71.2281 59.9784 70.8551 59.7033 70.58C59.4283 70.305 59.0552 70.1504 58.6662 70.1504Z" fill="#055EB0"/>
<path d="M34.217 32.5889C35.9027 32.5889 37.5195 31.9203 38.7128 30.7297C39.9061 29.5392 40.5785 27.9239 40.5823 26.2382C40.5735 25.0583 40.2329 23.9046 39.5997 22.9089L42.269 20.2542C42.5452 19.9781 42.7003 19.6035 42.7003 19.2129C42.7003 18.8223 42.5452 18.4477 42.269 18.1716C41.9928 17.8954 41.6183 17.7402 41.2277 17.7402C40.8371 17.7402 40.4625 17.8954 40.1863 18.1716L34.2023 24.1556L30.873 20.8262C30.5982 20.5531 30.2265 20.3997 29.839 20.3997C29.4515 20.3997 29.0798 20.5531 28.805 20.8262C28.5318 21.101 28.3785 21.4728 28.3785 21.8602C28.3785 22.2477 28.5318 22.6194 28.805 22.8942C28.1838 23.8984 27.8585 25.0575 27.8663 26.2382C27.8663 27.9225 28.5354 29.5379 29.7264 30.7288C30.9174 31.9198 32.5327 32.5889 34.217 32.5889ZM31.005 25.0942L33.1903 27.2796C33.4635 27.5505 33.8323 27.7033 34.217 27.7049C34.5865 27.692 34.9374 27.5401 35.1997 27.2796L37.385 25.0942C37.5124 25.4626 37.5817 25.8486 37.5903 26.2382C37.5334 27.1078 37.1478 27.9231 36.5119 28.5188C35.8759 29.1145 35.0371 29.446 34.1657 29.446C33.2943 29.446 32.4555 29.1145 31.8195 28.5188C31.1835 27.9231 30.7979 27.1078 30.741 26.2382C30.7612 25.8444 30.8505 25.4571 31.005 25.0942Z" fill="#055EB0"/>
<path d="M34.2169 48.6642C35.4764 48.6671 36.7086 48.2963 37.7573 47.5986C38.806 46.901 39.6241 45.9079 40.1081 44.745C40.5922 43.5821 40.7203 42.3018 40.4764 41.0661C40.2324 39.8304 39.6273 38.6948 38.7377 37.8032C37.8481 36.9115 36.7139 36.3038 35.4788 36.057C34.2436 35.8102 32.963 35.9354 31.799 36.4167C30.6351 36.8981 29.6401 37.7139 28.94 38.761C28.2399 39.8081 27.8662 41.0393 27.8662 42.2989C27.8701 43.9834 28.5399 45.598 29.7297 46.7904C30.9194 47.9829 32.5324 48.6565 34.2169 48.6642ZM34.2169 38.8816C34.8969 38.8787 35.5625 39.0779 36.1291 39.4539C36.6957 39.8299 37.1379 40.3657 37.3995 40.9934C37.661 41.6211 37.7302 42.3124 37.5983 42.9795C37.4663 43.6466 37.1392 44.2595 36.6583 44.7403C36.1774 45.2212 35.5646 45.5484 34.8975 45.6803C34.2304 45.8123 33.5391 45.7431 32.9114 45.4815C32.2837 45.2199 31.7478 44.7778 31.3718 44.2111C30.9958 43.6445 30.7966 42.9789 30.7995 42.2989C30.8034 41.3938 31.1647 40.5268 31.8047 39.8868C32.4448 39.2467 33.3117 38.8854 34.2169 38.8816Z" fill="#055EB0"/>
<path d="M58.6666 51.8906H52.9172C52.5282 51.8906 52.1552 52.0451 51.8801 52.3202C51.6051 52.5953 51.4506 52.9683 51.4506 53.3573C51.4506 53.7463 51.6051 54.1193 51.8801 54.3944C52.1552 54.6694 52.5282 54.824 52.9172 54.824H55.1319L46.9332 63.0666L41.1692 57.2C40.8944 56.9268 40.5227 56.7735 40.1352 56.7735C39.7477 56.7735 39.376 56.9268 39.1012 57.2L33.8506 62.4653C33.697 62.5968 33.5723 62.7586 33.4843 62.9405C33.3963 63.1225 33.3468 63.3207 33.339 63.5227C33.3312 63.7247 33.3652 63.9261 33.439 64.1143C33.5127 64.3025 33.6245 64.4734 33.7675 64.6164C33.9104 64.7593 34.0813 64.8712 34.2695 64.9449C34.4578 65.0186 34.6592 65.0527 34.8612 65.0449C35.0632 65.0371 35.2613 64.9876 35.4433 64.8996C35.6253 64.8115 35.7871 64.6868 35.9186 64.5333L40.1426 60.3093L45.8919 66.0733C46.0282 66.2108 46.1904 66.3199 46.3692 66.3943C46.5479 66.4688 46.7396 66.5071 46.9332 66.5071C47.1268 66.5071 47.3185 66.4688 47.4973 66.3943C47.676 66.3199 47.8382 66.2108 47.9746 66.0733L57.1999 56.9066V59.1066C57.1999 59.4956 57.3544 59.8687 57.6295 60.1437C57.9045 60.4188 58.2776 60.5733 58.6666 60.5733C59.0555 60.5733 59.4286 60.4188 59.7036 60.1437C59.9787 59.8687 60.1332 59.4956 60.1332 59.1066V53.3573C60.1332 52.9683 59.9787 52.5953 59.7036 52.3202C59.4286 52.0451 59.0555 51.8906 58.6666 51.8906Z" fill="#055EB0"/>
<path d="M45.951 40.8318H52.243C52.632 40.8318 53.0051 40.6772 53.2801 40.4022C53.5552 40.1271 53.7097 39.7541 53.7097 39.3651C53.7097 38.9761 53.5552 38.6031 53.2801 38.328C53.0051 38.053 52.632 37.8984 52.243 37.8984H45.951C45.5621 37.8984 45.189 38.053 44.914 38.328C44.6389 38.6031 44.4844 38.9761 44.4844 39.3651C44.4844 39.7541 44.6389 40.1271 44.914 40.4022C45.189 40.6772 45.5621 40.8318 45.951 40.8318Z" fill="#055EB0"/>
<path d="M45.951 46.7126H58.0217C58.4107 46.7126 58.7837 46.5581 59.0588 46.283C59.3338 46.008 59.4884 45.6349 59.4884 45.246C59.4884 44.857 59.3338 44.4839 59.0588 44.2089C58.7837 43.9338 58.4107 43.7793 58.0217 43.7793H45.951C45.5621 43.7793 45.189 43.9338 44.914 44.2089C44.6389 44.4839 44.4844 44.857 44.4844 45.246C44.4844 45.6349 44.6389 46.008 44.914 46.283C45.189 46.5581 45.5621 46.7126 45.951 46.7126Z" fill="#055EB0"/>
<path d="M45.951 24.7712H52.243C52.632 24.7712 53.0051 24.6167 53.2801 24.3416C53.5552 24.0666 53.7097 23.6935 53.7097 23.3046C53.7097 22.9156 53.5552 22.5425 53.2801 22.2675C53.0051 21.9924 52.632 21.8379 52.243 21.8379H45.951C45.5621 21.8379 45.189 21.9924 44.914 22.2675C44.6389 22.5425 44.4844 22.9156 44.4844 23.3046C44.4844 23.6935 44.6389 24.0666 44.914 24.3416C45.189 24.6167 45.5621 24.7712 45.951 24.7712Z" fill="#055EB0"/>
<path d="M45.951 30.6384H58.0217C58.4107 30.6384 58.7837 30.4839 59.0588 30.2088C59.3338 29.9338 59.4884 29.5607 59.4884 29.1717C59.4884 28.7828 59.3338 28.4097 59.0588 28.1347C58.7837 27.8596 58.4107 27.7051 58.0217 27.7051H45.951C45.5621 27.7051 45.189 27.8596 44.914 28.1347C44.6389 28.4097 44.4844 28.7828 44.4844 29.1717C44.4844 29.5607 44.6389 29.9338 44.914 30.2088C45.189 30.4839 45.5621 30.6384 45.951 30.6384Z" fill="#055EB0"/>
</svg>
