<svg width="61" height="61" viewBox="0 0 61 61" fill="none" xmlns="http://www.w3.org/2000/svg">
<path d="M57 26.31V12C57 7.89 48.45 6 40.5 6C37.9876 5.99028 35.4789 6.19098 33 6.6V6C33 1.89 24.45 0 16.5 0C8.55 0 0 1.89 0 6V51C0 55.11 8.55 57 16.5 57C19.3495 57.0049 22.1928 56.7337 24.99 56.19C29.2036 59.0294 34.2552 60.3568 39.3204 59.9558C44.3855 59.5547 49.1652 57.4488 52.8795 53.9817C56.5938 50.5146 59.0233 45.8909 59.7716 40.8653C60.52 35.8397 59.543 30.7089 57 26.31ZM47.67 17.46C49.8598 17.1709 51.9937 16.554 54 15.63V22.26C52.1893 20.2996 50.0463 18.6746 47.67 17.46ZM16.5 12C21.1167 12.1698 25.7172 11.3622 30 9.63V15C29.76 15.84 25.26 18 16.5 18C7.74 18 3.24 15.81 3 15V9.63C7.2828 11.3622 11.8833 12.1698 16.5 12ZM16.32 30C15.5844 31.9233 15.1396 33.9455 15 36C7.2 35.76 3.15 33.81 3 33V27.63C7.22867 29.3314 11.764 30.1384 16.32 30ZM3 42V36.63C6.80021 38.218 10.8814 39.024 15 39C15.1439 41.0482 15.5678 43.067 16.26 45C7.68 45 3.24 42.81 3 42ZM17.64 27H16.5C7.74 27 3.24 24.81 3 24V18.63C7.2828 20.3622 11.8833 21.1698 16.5 21C18.5664 21.0075 20.631 20.8772 22.68 20.61C20.627 22.4173 18.9193 24.5824 17.64 27ZM40.5 9C49.29 9 53.79 11.19 54 12C54.21 12.81 49.29 15 40.5 15C37.9865 15.0057 35.4773 14.795 33 14.37V9.63C35.4773 9.20505 37.9865 8.99427 40.5 9ZM16.5 3C25.2 3 29.7 5.16 30 6C29.7 6.81 25.5 8.82 17.43 9H16.5C7.74 9 3.24 6.81 3 6C3.24 5.19 7.74 3 16.5 3ZM16.5 54C7.74 54 3.24 51.81 3 51V45.63C7.2828 47.3622 11.8833 48.1698 16.5 48H17.61C18.7213 50.1033 20.1592 52.0171 21.87 53.67C20.0884 53.8894 18.2951 53.9996 16.5 54ZM37.5 57C33.6433 57 29.8731 55.8563 26.6664 53.7137C23.4596 51.571 20.9603 48.5255 19.4844 44.9623C18.0084 41.3992 17.6223 37.4784 18.3747 33.6957C19.1271 29.9131 20.9843 26.4385 23.7114 23.7114C26.4385 20.9843 29.9131 19.1271 33.6957 18.3747C37.4784 17.6223 41.3992 18.0084 44.9623 19.4844C48.5255 20.9603 51.571 23.4596 53.7137 26.6664C55.8563 29.8731 57 33.6433 57 37.5C56.9921 42.6693 54.9351 47.6246 51.2798 51.2798C47.6246 54.9351 42.6693 56.9921 37.5 57Z" fill="#055EB0"/>
<path d="M38.9987 36V29.1C39.6916 29.2255 40.3371 29.5376 40.8658 30.0028C41.3944 30.468 41.7861 31.0687 41.9987 31.74C42.0941 32.1378 42.3437 32.4814 42.6926 32.6952C43.0414 32.909 43.4608 32.9755 43.8587 32.88C44.2565 32.7845 44.6001 32.5349 44.8139 32.1861C45.0277 31.8373 45.0941 31.4178 44.9987 31.02C44.5697 29.72 43.7761 28.5706 42.7123 27.709C41.6485 26.8473 40.3594 26.3096 38.9987 26.16V25.5C38.9987 25.1022 38.8406 24.7206 38.5593 24.4393C38.278 24.158 37.8965 24 37.4987 24C37.1008 24 36.7193 24.158 36.438 24.4393C36.1567 24.7206 35.9987 25.1022 35.9987 25.5V26.13C34.4111 26.3173 32.9401 27.0572 31.8432 28.2199C30.7462 29.3827 30.0933 30.8943 29.9987 32.49C30.0023 32.9539 30.0526 33.4162 30.1487 33.87C30.5266 35.1974 31.2796 36.3876 32.3173 37.2975C33.355 38.2075 34.6332 38.7987 35.9987 39V45.93C35.3057 45.8045 34.6602 45.4924 34.1315 45.0272C33.6029 44.562 33.2112 43.9613 32.9987 43.29C32.9032 42.8922 32.6536 42.5486 32.3048 42.3348C31.9559 42.121 31.5365 42.0545 31.1387 42.15C30.7408 42.2455 30.3972 42.4951 30.1834 42.8439C29.9696 43.1927 29.9032 43.6122 29.9987 44.01C30.4258 45.3083 31.2197 46.4553 32.2844 47.3123C33.349 48.1694 34.6391 48.7 35.9987 48.84V49.5C35.9987 49.8978 36.1567 50.2794 36.438 50.5607C36.7193 50.842 37.1008 51 37.4987 51C37.8965 51 38.278 50.842 38.5593 50.5607C38.8406 50.2794 38.9987 49.8978 38.9987 49.5V48.84C40.3801 48.6861 41.6858 48.129 42.7527 47.2381C43.8197 46.3472 44.6008 45.1619 44.9987 43.83C45.0914 43.3959 45.1416 42.9538 45.1487 42.51C45.0775 40.8668 44.4167 39.3042 43.2872 38.1086C42.1577 36.913 40.6352 36.1644 38.9987 36ZM32.9987 33C32.9675 32.7811 32.9675 32.5589 32.9987 32.34C33.0764 31.5433 33.411 30.7935 33.9522 30.2036C34.4933 29.6138 35.2116 29.2159 35.9987 29.07V35.64C35.3241 35.5247 34.6918 35.2338 34.1652 34.7968C33.6386 34.3597 33.2363 33.7918 32.9987 33.15V33ZM41.9987 43.14C41.7861 43.8113 41.3944 44.412 40.8658 44.8772C40.3371 45.3424 39.6916 45.6545 38.9987 45.78V39.21C39.7903 39.3574 40.512 39.7597 41.0536 40.3555C41.5953 40.9513 41.9272 41.708 41.9987 42.51C42.0257 42.7191 42.0257 42.9309 41.9987 43.14Z" fill="#055EB0"/>
</svg>
