<svg width="74" height="74" viewBox="0 0 74 74" fill="none" xmlns="http://www.w3.org/2000/svg">
<path d="M72.7701 47.7859C71.3686 46.0492 69.0529 45.4703 67.0115 46.3234L48.3342 54.1539C47.5725 54.4891 47.2068 55.3422 47.542 56.1039C47.8771 56.8656 48.7303 57.2313 49.492 56.8961L68.1693 49.0656C68.9615 48.7305 69.8756 48.9742 70.4545 49.6445C70.7896 50.0711 70.942 50.6195 70.8506 51.168C70.7592 51.7164 70.4545 52.2039 69.9975 52.5086C61.8623 57.8102 43.3678 68.2914 42.4537 68.8094C42.4232 68.8398 42.3928 68.8398 42.3318 68.8703C40.0771 70.2109 37.5482 70.5766 34.3795 69.9977C34.1662 69.9672 29.9311 69.4492 19.8459 68.2L14.4225 67.5297V47.1156C15.2756 47.0547 16.0068 47.0242 16.342 47.0242H16.5248C23.5631 46.5672 30.2967 47.9383 37.4264 49.3703C38.3404 49.5531 39.2545 49.7359 40.1686 49.9187C41.1436 50.1016 41.8443 50.9852 41.8443 51.9602C41.8443 52.0211 41.8443 52.082 41.8139 52.2039C41.7529 52.7828 41.4482 53.1789 41.235 53.4227C40.8389 53.8187 40.3209 54.032 39.7725 54.032H25.4826C24.66 54.032 23.9897 54.7023 23.9897 55.525C23.9897 56.3477 24.66 57.018 25.4826 57.018H39.742C41.0826 57.018 42.3928 56.4695 43.3373 55.525C44.16 54.7023 44.6475 53.6664 44.7693 52.6C44.7998 52.3867 44.8303 52.143 44.8303 51.9297C44.8303 49.4922 43.0936 47.3898 40.717 46.9328C39.8029 46.75 38.8889 46.5672 38.0053 46.3844C30.9975 44.9828 23.7764 43.4898 16.342 43.9773H16.1896C15.8545 44.0078 15.1232 44.0383 14.3311 44.0687C14.1482 43.4289 13.5998 42.9414 12.899 42.9414H1.65605C0.833398 42.9414 0.163086 43.6117 0.163086 44.4344V69.8758C0.163086 70.6984 0.833398 71.3688 1.65605 71.3688H12.899C13.5084 71.3688 14.0264 71.0031 14.2396 70.4852L19.4498 71.125C25.3912 71.8563 33.4959 72.8313 33.8311 72.8922C34.9584 73.1055 36.0248 73.1969 37.0607 73.1969C39.5592 73.1969 41.7834 72.618 43.7943 71.3992C43.8248 71.3992 43.8248 71.3688 43.8553 71.3688C44.0381 71.2469 63.2029 60.4305 71.5818 54.9461C72.7701 54.1844 73.5623 52.9656 73.7756 51.5641C74.0193 50.2844 73.6232 48.8523 72.7701 47.7859ZM11.4061 68.4133H3.14902V45.9883H11.4061V68.4133Z" fill="#055EB0"/>
<path d="M32.9172 15.7031H21.0039V38.3414H32.9172V15.7031ZM29.9312 35.3555H23.9898V18.7195H29.9008V35.3555H29.9312Z" fill="#055EB0"/>
<path d="M67.1643 11.0098H55.251V38.3707H67.1643V11.0098ZM64.1783 35.3543H58.2674V13.9957H64.1783V35.3543Z" fill="#055EB0"/>
<path d="M50.0402 0.742188H38.127V38.3406H50.0402V0.742188ZM47.0543 35.3547H41.1434V3.75859H47.0543V35.3547Z" fill="#055EB0"/>
</svg>
