<svg width="62" height="68" viewBox="0 0 62 68" fill="none" xmlns="http://www.w3.org/2000/svg">
<path d="M54.1437 62.3301C54.1437 64.5624 52.3066 66.4014 50.0742 66.4014" stroke="#055EB0" stroke-width="3" stroke-miterlimit="2.6131" stroke-linecap="round" stroke-linejoin="round"/>
<path d="M50.0738 66.4004H5.63184" stroke="#055EB0" stroke-width="3" stroke-miterlimit="2.6131" stroke-linecap="round" stroke-linejoin="round"/>
<path d="M5.632 66.4014C3.40159 66.4014 1.56055 64.5722 1.56055 62.3301" stroke="#055EB0" stroke-width="3" stroke-miterlimit="2.6131" stroke-linecap="round" stroke-linejoin="round"/>
<path d="M1.56152 62.3292V17.9011L19.1829 1.59961H50.0748" stroke="#055EB0" stroke-width="3" stroke-miterlimit="2.6131" stroke-linecap="round" stroke-linejoin="round"/>
<path d="M50.0742 1.59961C52.3166 1.59961 54.1437 3.44065 54.1437 5.66905" stroke="#055EB0" stroke-width="3" stroke-miterlimit="2.6131" stroke-linecap="round" stroke-linejoin="round"/>
<path d="M54.1436 5.66797V32.6124" stroke="#055EB0" stroke-width="3" stroke-miterlimit="2.6131" stroke-linecap="round" stroke-linejoin="round"/>
<path d="M19.9902 1.59961V16.6292" stroke="#055EB0" stroke-width="3" stroke-miterlimit="2.6131" stroke-linecap="round" stroke-linejoin="round"/>
<path d="M19.9909 16.6289C19.9909 17.8209 19.0085 18.8073 17.8145 18.8073" stroke="#055EB0" stroke-width="3" stroke-miterlimit="2.6131" stroke-linecap="round" stroke-linejoin="round"/>
<path d="M17.8143 18.8066H1.56055" stroke="#055EB0" stroke-width="3" stroke-miterlimit="2.6131" stroke-linecap="round" stroke-linejoin="round"/>
<path d="M7.99023 29.8496H47.061" stroke="#055EB0" stroke-width="3" stroke-miterlimit="2.6131" stroke-linecap="round" stroke-linejoin="round"/>
<path d="M7.99023 43.3945H34.8588" stroke="#055EB0" stroke-width="3" stroke-miterlimit="2.6131" stroke-linecap="round" stroke-linejoin="round"/>
<path d="M7.99023 56.9414H36.7797" stroke="#055EB0" stroke-width="3" stroke-miterlimit="2.6131" stroke-linecap="round" stroke-linejoin="round"/>
<path d="M60.4394 47.203C60.4394 52.4325 56.2004 56.6758 50.9709 56.6758C45.7373 56.6758 41.4961 52.4325 41.4961 47.203C41.4961 41.9695 45.7373 37.7324 50.9709 37.7324C52.7061 37.7324 54.3314 38.1996 55.7331 39.0143" stroke="#055EB0" stroke-width="3" stroke-miterlimit="2.6131" stroke-linecap="round" stroke-linejoin="round"/>
<path d="M46.8115 46.2598L51.6237 50.6706" stroke="#055EB0" stroke-width="3" stroke-miterlimit="2.6131" stroke-linecap="round" stroke-linejoin="round"/>
<path d="M60.4396 41.043L51.624 50.6712" stroke="#055EB0" stroke-width="3" stroke-miterlimit="2.6131" stroke-linecap="round" stroke-linejoin="round"/>
</svg>
