<svg width="63" height="77" viewBox="0 0 63 77" fill="none" xmlns="http://www.w3.org/2000/svg">
<mask id="path-1-outside-1_346_3466" maskUnits="userSpaceOnUse" x="0" y="0" width="63" height="77" fill="black">
<rect fill="white" width="63" height="77"/>
<path d="M61.2988 50.5945H54.2117L54.375 50.415C57.084 47.4224 58.6534 43.6607 58.796 39.8187C58.796 39.617 58.8064 39.417 58.8064 39.2205V25.5478C58.8064 22.9039 57.151 19.9865 55.0625 18.5936C56.8537 17.535 58.2458 15.921 59.0249 13.9995C59.804 12.0779 59.9269 9.9552 59.3749 7.95744C58.8228 5.95969 57.6263 4.19742 55.9692 2.94141C54.3121 1.68539 52.286 1.00513 50.2023 1.00513C48.1186 1.00513 46.0925 1.68539 44.4354 2.94141C42.7783 4.19742 41.5818 5.95969 41.0297 7.95744C40.4777 9.9552 40.6006 12.0779 41.3797 13.9995C42.1588 15.921 43.5509 17.535 45.3421 18.5936C42.9064 20.1146 41.6051 23.1073 41.6051 25.5512V29.6701L30.9358 39.4769C30.7212 39.675 30.5287 39.8957 30.3617 40.1349C30.1948 39.8961 30.0029 39.6755 29.7893 39.4769L19.1114 29.665V25.5461C19.1114 23.1021 17.8084 20.1095 15.3727 18.5884C17.1639 17.5299 18.556 15.9159 19.3351 13.9943C20.1142 12.0728 20.2371 9.95007 19.6851 7.95232C19.133 5.95456 17.9365 4.19229 16.2794 2.93628C14.6223 1.68027 12.5962 1 10.5125 1C8.42878 1 6.40272 1.68027 4.74559 2.93628C3.08846 4.19229 1.89196 5.95456 1.33991 7.95232C0.787871 9.95007 0.910831 12.0728 1.6899 13.9943C2.46897 15.9159 3.86105 17.5299 5.65225 18.5884C3.56377 19.9813 1.90845 22.8987 1.90845 25.5427V39.2154C1.90845 39.4119 1.90845 39.6119 1.91876 39.8135C2.06143 43.6556 3.63768 47.4173 6.33982 50.4099L6.5375 50.6269C7.53224 51.7223 8.08341 53.1453 8.08452 54.6211V75.2565C8.08452 75.4537 8.1633 75.6428 8.30353 75.7822C8.44375 75.9217 8.63394 76 8.83225 76C9.03056 76 9.22075 75.9217 9.36098 75.7822C9.5012 75.6428 9.57998 75.4537 9.57998 75.2565V54.6262C9.58128 52.7834 8.89464 51.0056 7.65307 49.6374L7.45712 49.4203C4.98188 46.6858 3.5483 43.2574 3.41938 39.764C3.4125 39.5794 3.40907 39.3982 3.40907 39.2205V25.5478C3.40907 22.8133 5.53881 20.0138 7.36258 19.3951C9.39555 20.1175 11.6174 20.1175 13.6504 19.3951C16.1359 20.3061 17.6159 23.2047 17.6159 25.5478V28.2909L13.0934 24.1327C12.946 24.0089 12.7562 23.9465 12.5635 23.9584C12.3709 23.9702 12.1903 24.0556 12.0594 24.1965C11.9285 24.3375 11.8573 24.5233 11.8607 24.7152C11.864 24.907 11.9417 25.0902 12.0776 25.2265L28.7717 40.5621C29.2809 41.0311 29.5821 41.6818 29.6092 42.3714C29.6363 43.061 29.387 43.7331 28.9161 44.2401C28.6828 44.4912 28.402 44.6941 28.0898 44.8372C27.7775 44.9803 27.44 45.0609 27.0965 45.0742C26.7529 45.0875 26.4101 45.0334 26.0876 44.9149C25.7651 44.7964 25.4693 44.6159 25.217 44.3836L8.528 29.0463C8.45642 28.9772 8.37165 28.923 8.27869 28.887C8.18573 28.851 8.08645 28.8338 7.98672 28.8365C7.88698 28.8392 7.78879 28.8617 7.69794 28.9028C7.60709 28.9438 7.52542 29.0025 7.45773 29.0753C7.39005 29.1482 7.33772 29.2339 7.30383 29.3272C7.26994 29.4205 7.25517 29.5196 7.2604 29.6186C7.26563 29.7177 7.29075 29.8147 7.33427 29.904C7.3778 29.9933 7.43886 30.073 7.51384 30.1384L17.6211 39.429V75.2565C17.6303 75.4478 17.7132 75.6281 17.8526 75.7602C17.9919 75.8923 18.1771 75.966 18.3697 75.966C18.5622 75.966 18.7474 75.8923 18.8868 75.7602C19.0261 75.6281 19.109 75.4478 19.1183 75.2565V40.8048L24.2028 45.4792C25.0041 46.2147 26.0663 46.6039 27.156 46.5613C28.2457 46.5186 29.2738 46.0477 30.0145 45.2519C30.1395 45.1078 30.2544 44.9553 30.3583 44.7955C30.719 45.3536 31.2185 45.8096 31.8084 46.1195C32.3983 46.4294 33.0587 46.5827 33.7256 46.5644C34.7573 46.5631 35.7504 46.1749 36.5068 45.4775L41.5914 40.8048V50.5945H39.2812C39.183 50.5945 39.0857 50.6137 38.995 50.651C38.9043 50.6884 38.8219 50.7432 38.7524 50.8122C38.683 50.8812 38.6279 50.9632 38.5904 51.0534C38.5528 51.1436 38.5334 51.2403 38.5334 51.3379V69.2474C38.5334 69.345 38.5528 69.4417 38.5904 69.5319C38.6279 69.6221 38.683 69.7041 38.7524 69.7731C38.8219 69.8421 38.9043 69.8969 38.995 69.9343C39.0857 69.9716 39.183 69.9909 39.2812 69.9909H41.5965V75.2565C41.5965 75.4537 41.6753 75.6428 41.8156 75.7822C41.9558 75.9217 42.146 76 42.3443 76C42.5426 76 42.7328 75.9217 42.873 75.7822C43.0132 75.6428 43.092 75.4537 43.092 75.2565V69.9909H51.1314V75.2565C51.1406 75.4478 51.2235 75.6281 51.3629 75.7602C51.5023 75.8923 51.6874 75.966 51.88 75.966C52.0725 75.966 52.2577 75.8923 52.3971 75.7602C52.5364 75.6281 52.6193 75.4478 52.6286 75.2565V69.9909H61.2988C61.397 69.9909 61.4942 69.9716 61.5849 69.9343C61.6756 69.8969 61.7581 69.8421 61.8275 69.7731C61.8969 69.7041 61.952 69.6221 61.9896 69.5319C62.0272 69.4417 62.0465 69.345 62.0465 69.2474V51.3379C62.0465 51.1407 61.9677 50.9516 61.8275 50.8122C61.6873 50.6728 61.4971 50.5945 61.2988 50.5945ZM2.49288 10.4822C2.49288 8.90569 2.96307 7.36455 3.844 6.0537C4.72492 4.74285 5.97701 3.72116 7.44193 3.11784C8.90685 2.51452 10.5188 2.35667 12.074 2.66424C13.6291 2.97181 15.0576 3.73099 16.1788 4.84577C17.3 5.96056 18.0636 7.38089 18.3729 8.92715C18.6822 10.4734 18.5235 12.0761 17.9167 13.5327C17.3099 14.9892 16.2823 16.2341 14.9639 17.11C13.6455 17.9859 12.0955 18.4534 10.5099 18.4534C8.38436 18.4512 6.34652 17.6106 4.84353 16.1162C3.34054 14.6218 2.49516 12.5956 2.49288 10.4822ZM42.1793 10.4822C42.1793 8.90569 42.6495 7.36455 43.5304 6.0537C44.4113 4.74285 45.6634 3.72116 47.1283 3.11784C48.5932 2.51452 50.2052 2.35667 51.7603 2.66424C53.3155 2.97181 54.744 3.73099 55.8652 4.84577C56.9864 5.96056 57.7499 7.38089 58.0593 8.92715C58.3686 10.4734 58.2099 12.0761 57.6031 13.5327C56.9963 14.9892 55.9687 16.2341 54.6503 17.11C53.3319 17.9859 51.7819 18.4534 50.1963 18.4534C48.0707 18.4512 46.0329 17.6106 44.5299 16.1162C43.0269 14.6218 42.1815 12.5956 42.1793 10.4822ZM35.4961 44.3853C34.9795 44.8395 34.3066 45.0781 33.6176 45.0514C32.9285 45.0246 32.2764 44.7346 31.797 44.2418C31.3265 43.7346 31.0775 43.0626 31.1046 42.3731C31.1317 41.6837 31.4326 41.033 31.9414 40.5638L41.5965 31.6903V38.7796L35.4961 44.3853ZM43.092 25.5461C43.092 23.2013 44.5737 20.3026 47.0575 19.3934C49.0905 20.1158 51.3124 20.1158 53.3454 19.3934C55.1726 20.0172 57.2989 22.8235 57.2989 25.5461V39.2188C57.2989 39.3965 57.2954 39.5777 57.2885 39.7623C57.1461 42.9101 56.0248 45.9365 54.0793 48.4239C54.103 48.2791 54.1179 48.133 54.124 47.9864V25.2556C54.124 25.0584 54.0452 24.8693 53.905 24.7299C53.7648 24.5904 53.5746 24.5121 53.3763 24.5121C53.178 24.5121 52.9878 24.5904 52.8476 24.7299C52.7073 24.8693 52.6286 25.0584 52.6286 25.2556V47.9864C52.6286 48.6029 52.3823 49.1941 51.9439 49.63C51.5054 50.0659 50.9108 50.3107 50.2908 50.3107C49.6708 50.3107 49.0762 50.0659 48.6378 49.63C48.1994 49.1941 47.9531 48.6029 47.9531 47.9864V25.2556C47.9531 25.0584 47.8743 24.8693 47.7341 24.7299C47.5939 24.5904 47.4037 24.5121 47.2054 24.5121C47.0071 24.5121 46.8169 24.5904 46.6767 24.7299C46.5364 24.8693 46.4576 25.0584 46.4576 25.2556V47.9864C46.4582 48.9575 46.8342 49.8913 47.5079 50.5945H43.092V25.5461ZM60.5511 52.0814V58.6101H56.4171V57.2701C56.4171 57.073 56.3383 56.8839 56.1981 56.7444C56.0578 56.605 55.8676 56.5267 55.6693 56.5267C55.471 56.5267 55.2808 56.605 55.1406 56.7444C55.0004 56.8839 54.9216 57.073 54.9216 57.2701V58.6101H45.6601V57.2701C45.6601 57.073 45.5813 56.8839 45.4411 56.7444C45.3008 56.605 45.1106 56.5267 44.9123 56.5267C44.714 56.5267 44.5238 56.605 44.3836 56.7444C44.2434 56.8839 44.1646 57.073 44.1646 57.2701V58.6101H40.0289V52.0814H60.5511ZM60.5511 68.504H40.0289V60.097H44.1646V61.7736C44.1646 61.8712 44.184 61.9679 44.2215 62.0581C44.2591 62.1483 44.3142 62.2302 44.3836 62.2993C44.4531 62.3683 44.5355 62.4231 44.6262 62.4604C44.7169 62.4978 44.8141 62.517 44.9123 62.517C45.0105 62.517 45.1078 62.4978 45.1985 62.4604C45.2892 62.4231 45.3716 62.3683 45.4411 62.2993C45.5105 62.2302 45.5656 62.1483 45.6032 62.0581C45.6407 61.9679 45.6601 61.8712 45.6601 61.7736V60.097H54.9216V61.7736C54.9216 61.9707 55.0004 62.1599 55.1406 62.2993C55.2808 62.4387 55.471 62.517 55.6693 62.517C55.8676 62.517 56.0578 62.4387 56.1981 62.2993C56.3383 62.1599 56.4171 61.9707 56.4171 61.7736V60.097H60.5511V68.504Z"/>
</mask>
<path d="M61.2988 50.5945H54.2117L54.375 50.415C57.084 47.4224 58.6534 43.6607 58.796 39.8187C58.796 39.617 58.8064 39.417 58.8064 39.2205V25.5478C58.8064 22.9039 57.151 19.9865 55.0625 18.5936C56.8537 17.535 58.2458 15.921 59.0249 13.9995C59.804 12.0779 59.9269 9.9552 59.3749 7.95744C58.8228 5.95969 57.6263 4.19742 55.9692 2.94141C54.3121 1.68539 52.286 1.00513 50.2023 1.00513C48.1186 1.00513 46.0925 1.68539 44.4354 2.94141C42.7783 4.19742 41.5818 5.95969 41.0297 7.95744C40.4777 9.9552 40.6006 12.0779 41.3797 13.9995C42.1588 15.921 43.5509 17.535 45.3421 18.5936C42.9064 20.1146 41.6051 23.1073 41.6051 25.5512V29.6701L30.9358 39.4769C30.7212 39.675 30.5287 39.8957 30.3617 40.1349C30.1948 39.8961 30.0029 39.6755 29.7893 39.4769L19.1114 29.665V25.5461C19.1114 23.1021 17.8084 20.1095 15.3727 18.5884C17.1639 17.5299 18.556 15.9159 19.3351 13.9943C20.1142 12.0728 20.2371 9.95007 19.6851 7.95232C19.133 5.95456 17.9365 4.19229 16.2794 2.93628C14.6223 1.68027 12.5962 1 10.5125 1C8.42878 1 6.40272 1.68027 4.74559 2.93628C3.08846 4.19229 1.89196 5.95456 1.33991 7.95232C0.787871 9.95007 0.910831 12.0728 1.6899 13.9943C2.46897 15.9159 3.86105 17.5299 5.65225 18.5884C3.56377 19.9813 1.90845 22.8987 1.90845 25.5427V39.2154C1.90845 39.4119 1.90845 39.6119 1.91876 39.8135C2.06143 43.6556 3.63768 47.4173 6.33982 50.4099L6.5375 50.6269C7.53224 51.7223 8.08341 53.1453 8.08452 54.6211V75.2565C8.08452 75.4537 8.1633 75.6428 8.30353 75.7822C8.44375 75.9217 8.63394 76 8.83225 76C9.03056 76 9.22075 75.9217 9.36098 75.7822C9.5012 75.6428 9.57998 75.4537 9.57998 75.2565V54.6262C9.58128 52.7834 8.89464 51.0056 7.65307 49.6374L7.45712 49.4203C4.98188 46.6858 3.5483 43.2574 3.41938 39.764C3.4125 39.5794 3.40907 39.3982 3.40907 39.2205V25.5478C3.40907 22.8133 5.53881 20.0138 7.36258 19.3951C9.39555 20.1175 11.6174 20.1175 13.6504 19.3951C16.1359 20.3061 17.6159 23.2047 17.6159 25.5478V28.2909L13.0934 24.1327C12.946 24.0089 12.7562 23.9465 12.5635 23.9584C12.3709 23.9702 12.1903 24.0556 12.0594 24.1965C11.9285 24.3375 11.8573 24.5233 11.8607 24.7152C11.864 24.907 11.9417 25.0902 12.0776 25.2265L28.7717 40.5621C29.2809 41.0311 29.5821 41.6818 29.6092 42.3714C29.6363 43.061 29.387 43.7331 28.9161 44.2401C28.6828 44.4912 28.402 44.6941 28.0898 44.8372C27.7775 44.9803 27.44 45.0609 27.0965 45.0742C26.7529 45.0875 26.4101 45.0334 26.0876 44.9149C25.7651 44.7964 25.4693 44.6159 25.217 44.3836L8.528 29.0463C8.45642 28.9772 8.37165 28.923 8.27869 28.887C8.18573 28.851 8.08645 28.8338 7.98672 28.8365C7.88698 28.8392 7.78879 28.8617 7.69794 28.9028C7.60709 28.9438 7.52542 29.0025 7.45773 29.0753C7.39005 29.1482 7.33772 29.2339 7.30383 29.3272C7.26994 29.4205 7.25517 29.5196 7.2604 29.6186C7.26563 29.7177 7.29075 29.8147 7.33427 29.904C7.3778 29.9933 7.43886 30.073 7.51384 30.1384L17.6211 39.429V75.2565C17.6303 75.4478 17.7132 75.6281 17.8526 75.7602C17.9919 75.8923 18.1771 75.966 18.3697 75.966C18.5622 75.966 18.7474 75.8923 18.8868 75.7602C19.0261 75.6281 19.109 75.4478 19.1183 75.2565V40.8048L24.2028 45.4792C25.0041 46.2147 26.0663 46.6039 27.156 46.5613C28.2457 46.5186 29.2738 46.0477 30.0145 45.2519C30.1395 45.1078 30.2544 44.9553 30.3583 44.7955C30.719 45.3536 31.2185 45.8096 31.8084 46.1195C32.3983 46.4294 33.0587 46.5827 33.7256 46.5644C34.7573 46.5631 35.7504 46.1749 36.5068 45.4775L41.5914 40.8048V50.5945H39.2812C39.183 50.5945 39.0857 50.6137 38.995 50.651C38.9043 50.6884 38.8219 50.7432 38.7524 50.8122C38.683 50.8812 38.6279 50.9632 38.5904 51.0534C38.5528 51.1436 38.5334 51.2403 38.5334 51.3379V69.2474C38.5334 69.345 38.5528 69.4417 38.5904 69.5319C38.6279 69.6221 38.683 69.7041 38.7524 69.7731C38.8219 69.8421 38.9043 69.8969 38.995 69.9343C39.0857 69.9716 39.183 69.9909 39.2812 69.9909H41.5965V75.2565C41.5965 75.4537 41.6753 75.6428 41.8156 75.7822C41.9558 75.9217 42.146 76 42.3443 76C42.5426 76 42.7328 75.9217 42.873 75.7822C43.0132 75.6428 43.092 75.4537 43.092 75.2565V69.9909H51.1314V75.2565C51.1406 75.4478 51.2235 75.6281 51.3629 75.7602C51.5023 75.8923 51.6874 75.966 51.88 75.966C52.0725 75.966 52.2577 75.8923 52.3971 75.7602C52.5364 75.6281 52.6193 75.4478 52.6286 75.2565V69.9909H61.2988C61.397 69.9909 61.4942 69.9716 61.5849 69.9343C61.6756 69.8969 61.7581 69.8421 61.8275 69.7731C61.8969 69.7041 61.952 69.6221 61.9896 69.5319C62.0272 69.4417 62.0465 69.345 62.0465 69.2474V51.3379C62.0465 51.1407 61.9677 50.9516 61.8275 50.8122C61.6873 50.6728 61.4971 50.5945 61.2988 50.5945ZM2.49288 10.4822C2.49288 8.90569 2.96307 7.36455 3.844 6.0537C4.72492 4.74285 5.97701 3.72116 7.44193 3.11784C8.90685 2.51452 10.5188 2.35667 12.074 2.66424C13.6291 2.97181 15.0576 3.73099 16.1788 4.84577C17.3 5.96056 18.0636 7.38089 18.3729 8.92715C18.6822 10.4734 18.5235 12.0761 17.9167 13.5327C17.3099 14.9892 16.2823 16.2341 14.9639 17.11C13.6455 17.9859 12.0955 18.4534 10.5099 18.4534C8.38436 18.4512 6.34652 17.6106 4.84353 16.1162C3.34054 14.6218 2.49516 12.5956 2.49288 10.4822ZM42.1793 10.4822C42.1793 8.90569 42.6495 7.36455 43.5304 6.0537C44.4113 4.74285 45.6634 3.72116 47.1283 3.11784C48.5932 2.51452 50.2052 2.35667 51.7603 2.66424C53.3155 2.97181 54.744 3.73099 55.8652 4.84577C56.9864 5.96056 57.7499 7.38089 58.0593 8.92715C58.3686 10.4734 58.2099 12.0761 57.6031 13.5327C56.9963 14.9892 55.9687 16.2341 54.6503 17.11C53.3319 17.9859 51.7819 18.4534 50.1963 18.4534C48.0707 18.4512 46.0329 17.6106 44.5299 16.1162C43.0269 14.6218 42.1815 12.5956 42.1793 10.4822ZM35.4961 44.3853C34.9795 44.8395 34.3066 45.0781 33.6176 45.0514C32.9285 45.0246 32.2764 44.7346 31.797 44.2418C31.3265 43.7346 31.0775 43.0626 31.1046 42.3731C31.1317 41.6837 31.4326 41.033 31.9414 40.5638L41.5965 31.6903V38.7796L35.4961 44.3853ZM43.092 25.5461C43.092 23.2013 44.5737 20.3026 47.0575 19.3934C49.0905 20.1158 51.3124 20.1158 53.3454 19.3934C55.1726 20.0172 57.2989 22.8235 57.2989 25.5461V39.2188C57.2989 39.3965 57.2954 39.5777 57.2885 39.7623C57.1461 42.9101 56.0248 45.9365 54.0793 48.4239C54.103 48.2791 54.1179 48.133 54.124 47.9864V25.2556C54.124 25.0584 54.0452 24.8693 53.905 24.7299C53.7648 24.5904 53.5746 24.5121 53.3763 24.5121C53.178 24.5121 52.9878 24.5904 52.8476 24.7299C52.7073 24.8693 52.6286 25.0584 52.6286 25.2556V47.9864C52.6286 48.6029 52.3823 49.1941 51.9439 49.63C51.5054 50.0659 50.9108 50.3107 50.2908 50.3107C49.6708 50.3107 49.0762 50.0659 48.6378 49.63C48.1994 49.1941 47.9531 48.6029 47.9531 47.9864V25.2556C47.9531 25.0584 47.8743 24.8693 47.7341 24.7299C47.5939 24.5904 47.4037 24.5121 47.2054 24.5121C47.0071 24.5121 46.8169 24.5904 46.6767 24.7299C46.5364 24.8693 46.4576 25.0584 46.4576 25.2556V47.9864C46.4582 48.9575 46.8342 49.8913 47.5079 50.5945H43.092V25.5461ZM60.5511 52.0814V58.6101H56.4171V57.2701C56.4171 57.073 56.3383 56.8839 56.1981 56.7444C56.0578 56.605 55.8676 56.5267 55.6693 56.5267C55.471 56.5267 55.2808 56.605 55.1406 56.7444C55.0004 56.8839 54.9216 57.073 54.9216 57.2701V58.6101H45.6601V57.2701C45.6601 57.073 45.5813 56.8839 45.4411 56.7444C45.3008 56.605 45.1106 56.5267 44.9123 56.5267C44.714 56.5267 44.5238 56.605 44.3836 56.7444C44.2434 56.8839 44.1646 57.073 44.1646 57.2701V58.6101H40.0289V52.0814H60.5511ZM60.5511 68.504H40.0289V60.097H44.1646V61.7736C44.1646 61.8712 44.184 61.9679 44.2215 62.0581C44.2591 62.1483 44.3142 62.2302 44.3836 62.2993C44.4531 62.3683 44.5355 62.4231 44.6262 62.4604C44.7169 62.4978 44.8141 62.517 44.9123 62.517C45.0105 62.517 45.1078 62.4978 45.1985 62.4604C45.2892 62.4231 45.3716 62.3683 45.4411 62.2993C45.5105 62.2302 45.5656 62.1483 45.6032 62.0581C45.6407 61.9679 45.6601 61.8712 45.6601 61.7736V60.097H54.9216V61.7736C54.9216 61.9707 55.0004 62.1599 55.1406 62.2993C55.2808 62.4387 55.471 62.517 55.6693 62.517C55.8676 62.517 56.0578 62.4387 56.1981 62.2993C56.3383 62.1599 56.4171 61.9707 56.4171 61.7736V60.097H60.5511V68.504Z" fill="#055EB0"/>
<path d="M61.2988 50.5945H54.2117L54.375 50.415C57.084 47.4224 58.6534 43.6607 58.796 39.8187C58.796 39.617 58.8064 39.417 58.8064 39.2205V25.5478C58.8064 22.9039 57.151 19.9865 55.0625 18.5936C56.8537 17.535 58.2458 15.921 59.0249 13.9995C59.804 12.0779 59.9269 9.9552 59.3749 7.95744C58.8228 5.95969 57.6263 4.19742 55.9692 2.94141C54.3121 1.68539 52.286 1.00513 50.2023 1.00513C48.1186 1.00513 46.0925 1.68539 44.4354 2.94141C42.7783 4.19742 41.5818 5.95969 41.0297 7.95744C40.4777 9.9552 40.6006 12.0779 41.3797 13.9995C42.1588 15.921 43.5509 17.535 45.3421 18.5936C42.9064 20.1146 41.6051 23.1073 41.6051 25.5512V29.6701L30.9358 39.4769C30.7212 39.675 30.5287 39.8957 30.3617 40.1349C30.1948 39.8961 30.0029 39.6755 29.7893 39.4769L19.1114 29.665V25.5461C19.1114 23.1021 17.8084 20.1095 15.3727 18.5884C17.1639 17.5299 18.556 15.9159 19.3351 13.9943C20.1142 12.0728 20.2371 9.95007 19.6851 7.95232C19.133 5.95456 17.9365 4.19229 16.2794 2.93628C14.6223 1.68027 12.5962 1 10.5125 1C8.42878 1 6.40272 1.68027 4.74559 2.93628C3.08846 4.19229 1.89196 5.95456 1.33991 7.95232C0.787871 9.95007 0.910831 12.0728 1.6899 13.9943C2.46897 15.9159 3.86105 17.5299 5.65225 18.5884C3.56377 19.9813 1.90845 22.8987 1.90845 25.5427V39.2154C1.90845 39.4119 1.90845 39.6119 1.91876 39.8135C2.06143 43.6556 3.63768 47.4173 6.33982 50.4099L6.5375 50.6269C7.53224 51.7223 8.08341 53.1453 8.08452 54.6211V75.2565C8.08452 75.4537 8.1633 75.6428 8.30353 75.7822C8.44375 75.9217 8.63394 76 8.83225 76C9.03056 76 9.22075 75.9217 9.36098 75.7822C9.5012 75.6428 9.57998 75.4537 9.57998 75.2565V54.6262C9.58128 52.7834 8.89464 51.0056 7.65307 49.6374L7.45712 49.4203C4.98188 46.6858 3.5483 43.2574 3.41938 39.764C3.4125 39.5794 3.40907 39.3982 3.40907 39.2205V25.5478C3.40907 22.8133 5.53881 20.0138 7.36258 19.3951C9.39555 20.1175 11.6174 20.1175 13.6504 19.3951C16.1359 20.3061 17.6159 23.2047 17.6159 25.5478V28.2909L13.0934 24.1327C12.946 24.0089 12.7562 23.9465 12.5635 23.9584C12.3709 23.9702 12.1903 24.0556 12.0594 24.1965C11.9285 24.3375 11.8573 24.5233 11.8607 24.7152C11.864 24.907 11.9417 25.0902 12.0776 25.2265L28.7717 40.5621C29.2809 41.0311 29.5821 41.6818 29.6092 42.3714C29.6363 43.061 29.387 43.7331 28.9161 44.2401C28.6828 44.4912 28.402 44.6941 28.0898 44.8372C27.7775 44.9803 27.44 45.0609 27.0965 45.0742C26.7529 45.0875 26.4101 45.0334 26.0876 44.9149C25.7651 44.7964 25.4693 44.6159 25.217 44.3836L8.528 29.0463C8.45642 28.9772 8.37165 28.923 8.27869 28.887C8.18573 28.851 8.08645 28.8338 7.98672 28.8365C7.88698 28.8392 7.78879 28.8617 7.69794 28.9028C7.60709 28.9438 7.52542 29.0025 7.45773 29.0753C7.39005 29.1482 7.33772 29.2339 7.30383 29.3272C7.26994 29.4205 7.25517 29.5196 7.2604 29.6186C7.26563 29.7177 7.29075 29.8147 7.33427 29.904C7.3778 29.9933 7.43886 30.073 7.51384 30.1384L17.6211 39.429V75.2565C17.6303 75.4478 17.7132 75.6281 17.8526 75.7602C17.9919 75.8923 18.1771 75.966 18.3697 75.966C18.5622 75.966 18.7474 75.8923 18.8868 75.7602C19.0261 75.6281 19.109 75.4478 19.1183 75.2565V40.8048L24.2028 45.4792C25.0041 46.2147 26.0663 46.6039 27.156 46.5613C28.2457 46.5186 29.2738 46.0477 30.0145 45.2519C30.1395 45.1078 30.2544 44.9553 30.3583 44.7955C30.719 45.3536 31.2185 45.8096 31.8084 46.1195C32.3983 46.4294 33.0587 46.5827 33.7256 46.5644C34.7573 46.5631 35.7504 46.1749 36.5068 45.4775L41.5914 40.8048V50.5945H39.2812C39.183 50.5945 39.0857 50.6137 38.995 50.651C38.9043 50.6884 38.8219 50.7432 38.7524 50.8122C38.683 50.8812 38.6279 50.9632 38.5904 51.0534C38.5528 51.1436 38.5334 51.2403 38.5334 51.3379V69.2474C38.5334 69.345 38.5528 69.4417 38.5904 69.5319C38.6279 69.6221 38.683 69.7041 38.7524 69.7731C38.8219 69.8421 38.9043 69.8969 38.995 69.9343C39.0857 69.9716 39.183 69.9909 39.2812 69.9909H41.5965V75.2565C41.5965 75.4537 41.6753 75.6428 41.8156 75.7822C41.9558 75.9217 42.146 76 42.3443 76C42.5426 76 42.7328 75.9217 42.873 75.7822C43.0132 75.6428 43.092 75.4537 43.092 75.2565V69.9909H51.1314V75.2565C51.1406 75.4478 51.2235 75.6281 51.3629 75.7602C51.5023 75.8923 51.6874 75.966 51.88 75.966C52.0725 75.966 52.2577 75.8923 52.3971 75.7602C52.5364 75.6281 52.6193 75.4478 52.6286 75.2565V69.9909H61.2988C61.397 69.9909 61.4942 69.9716 61.5849 69.9343C61.6756 69.8969 61.7581 69.8421 61.8275 69.7731C61.8969 69.7041 61.952 69.6221 61.9896 69.5319C62.0272 69.4417 62.0465 69.345 62.0465 69.2474V51.3379C62.0465 51.1407 61.9677 50.9516 61.8275 50.8122C61.6873 50.6728 61.4971 50.5945 61.2988 50.5945ZM2.49288 10.4822C2.49288 8.90569 2.96307 7.36455 3.844 6.0537C4.72492 4.74285 5.97701 3.72116 7.44193 3.11784C8.90685 2.51452 10.5188 2.35667 12.074 2.66424C13.6291 2.97181 15.0576 3.73099 16.1788 4.84577C17.3 5.96056 18.0636 7.38089 18.3729 8.92715C18.6822 10.4734 18.5235 12.0761 17.9167 13.5327C17.3099 14.9892 16.2823 16.2341 14.9639 17.11C13.6455 17.9859 12.0955 18.4534 10.5099 18.4534C8.38436 18.4512 6.34652 17.6106 4.84353 16.1162C3.34054 14.6218 2.49516 12.5956 2.49288 10.4822ZM42.1793 10.4822C42.1793 8.90569 42.6495 7.36455 43.5304 6.0537C44.4113 4.74285 45.6634 3.72116 47.1283 3.11784C48.5932 2.51452 50.2052 2.35667 51.7603 2.66424C53.3155 2.97181 54.744 3.73099 55.8652 4.84577C56.9864 5.96056 57.7499 7.38089 58.0593 8.92715C58.3686 10.4734 58.2099 12.0761 57.6031 13.5327C56.9963 14.9892 55.9687 16.2341 54.6503 17.11C53.3319 17.9859 51.7819 18.4534 50.1963 18.4534C48.0707 18.4512 46.0329 17.6106 44.5299 16.1162C43.0269 14.6218 42.1815 12.5956 42.1793 10.4822ZM35.4961 44.3853C34.9795 44.8395 34.3066 45.0781 33.6176 45.0514C32.9285 45.0246 32.2764 44.7346 31.797 44.2418C31.3265 43.7346 31.0775 43.0626 31.1046 42.3731C31.1317 41.6837 31.4326 41.033 31.9414 40.5638L41.5965 31.6903V38.7796L35.4961 44.3853ZM43.092 25.5461C43.092 23.2013 44.5737 20.3026 47.0575 19.3934C49.0905 20.1158 51.3124 20.1158 53.3454 19.3934C55.1726 20.0172 57.2989 22.8235 57.2989 25.5461V39.2188C57.2989 39.3965 57.2954 39.5777 57.2885 39.7623C57.1461 42.9101 56.0248 45.9365 54.0793 48.4239C54.103 48.2791 54.1179 48.133 54.124 47.9864V25.2556C54.124 25.0584 54.0452 24.8693 53.905 24.7299C53.7648 24.5904 53.5746 24.5121 53.3763 24.5121C53.178 24.5121 52.9878 24.5904 52.8476 24.7299C52.7073 24.8693 52.6286 25.0584 52.6286 25.2556V47.9864C52.6286 48.6029 52.3823 49.1941 51.9439 49.63C51.5054 50.0659 50.9108 50.3107 50.2908 50.3107C49.6708 50.3107 49.0762 50.0659 48.6378 49.63C48.1994 49.1941 47.9531 48.6029 47.9531 47.9864V25.2556C47.9531 25.0584 47.8743 24.8693 47.7341 24.7299C47.5939 24.5904 47.4037 24.5121 47.2054 24.5121C47.0071 24.5121 46.8169 24.5904 46.6767 24.7299C46.5364 24.8693 46.4576 25.0584 46.4576 25.2556V47.9864C46.4582 48.9575 46.8342 49.8913 47.5079 50.5945H43.092V25.5461ZM60.5511 52.0814V58.6101H56.4171V57.2701C56.4171 57.073 56.3383 56.8839 56.1981 56.7444C56.0578 56.605 55.8676 56.5267 55.6693 56.5267C55.471 56.5267 55.2808 56.605 55.1406 56.7444C55.0004 56.8839 54.9216 57.073 54.9216 57.2701V58.6101H45.6601V57.2701C45.6601 57.073 45.5813 56.8839 45.4411 56.7444C45.3008 56.605 45.1106 56.5267 44.9123 56.5267C44.714 56.5267 44.5238 56.605 44.3836 56.7444C44.2434 56.8839 44.1646 57.073 44.1646 57.2701V58.6101H40.0289V52.0814H60.5511ZM60.5511 68.504H40.0289V60.097H44.1646V61.7736C44.1646 61.8712 44.184 61.9679 44.2215 62.0581C44.2591 62.1483 44.3142 62.2302 44.3836 62.2993C44.4531 62.3683 44.5355 62.4231 44.6262 62.4604C44.7169 62.4978 44.8141 62.517 44.9123 62.517C45.0105 62.517 45.1078 62.4978 45.1985 62.4604C45.2892 62.4231 45.3716 62.3683 45.4411 62.2993C45.5105 62.2302 45.5656 62.1483 45.6032 62.0581C45.6407 61.9679 45.6601 61.8712 45.6601 61.7736V60.097H54.9216V61.7736C54.9216 61.9707 55.0004 62.1599 55.1406 62.2993C55.2808 62.4387 55.471 62.517 55.6693 62.517C55.8676 62.517 56.0578 62.4387 56.1981 62.2993C56.3383 62.1599 56.4171 61.9707 56.4171 61.7736V60.097H60.5511V68.504Z" stroke="#055EB0" mask="url(#path-1-outside-1_346_3466)"/>
</svg>
